<?xml version="1.0" encoding="utf-8"?>
<!-- Generator: Adobe Illustrator 18.0.0, SVG Export Plug-In . SVG Version: 6.00 Build 0)  -->
<!DOCTYPE svg PUBLIC "-//W3C//DTD SVG 1.1//EN" "http://www.w3.org/Graphics/SVG/1.1/DTD/svg11.dtd">
<svg version="1.1" id="Layer_1" xmlns="http://www.w3.org/2000/svg" xmlns:xlink="http://www.w3.org/1999/xlink" x="0px" y="0px"
	 viewBox="0 0 1024 1024" enable-background="new 0 0 1024 1024" xml:space="preserve">
<path fill="#F8F7F6" d="M182.8,776.6c11.5-16.8,13.8-38.8,9.8-58.4c-4-19.2-15.1-35.7-33-44.3c-15.9-7.6-34.2-6.8-49.3,5.7
	c58.8-7.1,78.5,101.4,17.7,121.1C152.3,803.6,171.1,793.5,182.8,776.6z M2.2,942.5c1.9-29.6,15.1-83.8,50.7-94.3
	c-34.7-12.6-47,9.6-50.8,36c-3.8-26.4-16.1-48.7-50.8-36C-13,858.7,0.2,912.9,2.2,942.5C2.1,942.7,2.2,942.7,2.2,942.5L2.2,942.5z"
	/>
<path fill="#F8F7F6" d="M2.1,858.2C2.1,858.2,2.2,858.2,2.1,858.2c7.3-16.8,32.4-26.1,47.7-15.6c1.7-38.8-46.2-40.9-47.7-21.6
	c-1.5-19.3-49.4-17.2-47.7,21.6C-30.3,832.1-5.2,841.4,2.1,858.2L2.1,858.2z M74,931.3c-13.1-17.8-3-44.9,1.4-52.9
	c4.9-8.8,0.4-27.3-13.4-35.5c6.3,6.5,9.5,16.1,7.7,25c-2.3,11.9-16.6,23.2-11.5,36.1c-5.9-12.4,7-24.2,8.9-35.8
	c1.6-9.4-3.1-19.8-11.3-24.8c5.6,11.5-1.1,27.4-7,39.6C44.6,891.7,41.4,927.4,74,931.3L74,931.3z"/>
<path fill="#F8F7F6" d="M113.9,906.6c-11.3-9.1-6.5-35.9-7.2-47.7c-0.4-7.4-2.7-14.8-8.1-20.1c-5.2-5.1-11.6-8-26.4-5.9l1.8,0.6
	c6.1,2.1,12.5,5.6,16.4,10.9c4.4,6,3.8,14.2,3.2,21.2c-0.5,6.3-1.9,14.4,2.3,19.9c-4.2-4.7-3.7-12.1-3.6-18
	c0.1-6.2,0.6-13.2-2.2-18.9c-2.7-5.5-9.1-8.8-14.6-10.8c-4.5-1.5-11.1-3.1-15.8-0.9c34.1,10.5,11.8,47.4,35.9,65.2
	C101.7,906.6,107.4,907.2,113.9,906.6L113.9,906.6z M-1.9,1011c-4.7-31.6-36.6-55.6-39.8-58.8c3,3.2,31,14.8,41.7,44.3
	c0.1-0.3,0.1-0.7,0.1-1c-2.3-32.6-12.5-53.4-21.4-77.1c9.7,18.1,20.1,33.3,24.1,68.6c3-31.8,20.6-57.1,22.3-62.8
	c-0.7,6-19.5,47-20.9,70.2c10.3-21.3,26.2-32,29.6-34.4c-0.5,2.9-24.2,22.8-28.6,52.7c9.9-23.4,35.8-50.7,53.2-52.4
	c6.7-0.7,15.5-4.7,18.8-11.2c2.2-4.1-2.7-6.6-5.8-7.6c-14-4.3-30.5-4.8-47.3,18.7c18.3-27.7,16.1-44.5,15.5-54
	c-0.7-10.9-2.7-22.4,1.6-32.8c0.8-1.9-1.3-2.8-2.9-1.4C24.5,884.5,8,915.2,2,950.9c-5.9-35.8-22.5-66.5-36.3-78.9
	c-1.5-1.4-3.7-0.5-2.9,1.4c4.3,10.4,2.3,21.9,1.6,32.8c-0.7,9.5-2.8,26.3,15.5,54c-16.7-23.5-33.3-23-47.3-18.7
	c-3.1,0.9-7.9,3.5-5.8,7.6c3.3,6.5,12.1,10.3,18.8,11.2C-35.4,963-12,988.1-1.9,1011L-1.9,1011z M-99.3,675
	c-26.1-57.9,66.5-115.9,101.1-68.9v0.7c0.1-0.2,0.2-0.3,0.3-0.4c0.1,0.2,0.2,0.3,0.3,0.4v-0.7c34.7-47,127.2,10.9,101.1,68.9
	c18.5-16,23.6-36.7,18.9-56.7c-4.7-19.8-19.4-36.3-36.6-46.5c-17-10-36.6-12.9-55-5.4c-15.4,6.2-26.6,19-28.6,36.9
	c-2-17.9-13.2-30.7-28.6-36.9c-18.4-7.4-38.1-4.6-55,5.4c-17.2,10.1-31.9,26.7-36.6,46.5C-122.8,638.3-117.7,659-99.3,675z
	 M97.1,930.1c4.5-3.5,3.5-11.7-0.1-15.5c-4.6-5-10.3-5.6-15.5-15.8c-0.9-1.8-2.6-1.8-3.1,0.1C72.7,923.1,91.4,934.5,97.1,930.1
	L97.1,930.1z M129.4,663.5c21.6-3.2,39.4,6.8,48.3,16.1c7.8-12.3-1.9-24.7-15-27.5C151.5,649.7,137.5,655.6,129.4,663.5L129.4,663.5
	z M146.6,639.9c5.3-6,12.8-11.5,15.1-19.5c-1.6,8.2-8.5,14.4-13.2,21c-2.1,3-4.7,5.5-7.3,8c-0.7,0.7-1.4,1.4-2.2,2.1
	c7.4-1.6,23.1-4.5,25.8-6.2c6.3-3.9,4.8-14,5.2-20.3c0.4-5.3,2.8-9.5,6.4-13c-16.7-1-30,8.7-39.5,36.1
	C140.3,645.4,144.1,642.9,146.6,639.9z M130.4,649.5c25.3-36.6,9.5-55.6-10.5-49.7C133.9,610.4,131.4,633.3,130.4,649.5z
	 M138.3,835.9c6.5,5.8,13.5,11.1,21.4,14.7c-9.7-2.8-18.6-8.1-26.9-13.7c-0.1,0-0.2,0.1-0.4,0.1c11.5,28.9,30.3,26.6,38.6,23.4
	c-3.4-3.4-4.7-9-6.1-13.9C162.3,837.4,153.9,833.9,138.3,835.9z"/>
<path fill="#F8F7F6" d="M115.5,817.9c26.4,18.9,50.7,16.6,46.1-13C152.7,815.8,143.2,818.8,115.5,817.9z M114,826.3
	c12,15.6,10.1,37,3.7,45.3C149.5,868.4,128.9,834.1,114,826.3z M4.1,748.3c0,0.1,0,0.2,0.1,0.3c-1.5,12.8-31.5,31.2-27.4,56.5
	c5.2-3.1,18.4-6.8,27.1-0.9v0.4c0.1-0.1,0.2-0.1,0.3-0.2c0.1,0.1,0.2,0.1,0.3,0.2v-0.4c8.6-5.9,21.8-2.1,27.1,0.9
	c4.1-25.3-25.9-43.7-27.4-56.5C4.1,748.5,4.1,748.4,4.1,748.3L4.1,748.3L4.1,748.3z M74,808c-15.8-3.1-24.8-13.8-41.5-22
	c10.4,10.7,10.4,28.3,26.2,34c4,1.5,10.1,2.9,13.6-0.4c1.6-1.5,0.8-4.7,0-7.4c16.5,11,41.4,3.4,41.7-8.6c0-1.4-0.6-2.5-1.9-2.1
	c-15.1,4.9-35.9-0.3-42.1-5.7c-4.2-3.7-17.4-14.8-33.4-13.5C48.5,791.5,59.5,803.7,74,808z"/>
<path fill="#F8F7F6" d="M16,760.2c9.6-13.5,34.8-30.2,58.2-32.4C51,731.5,34,748.1,20.5,766.2c0,0.1,0.1,0.1,0.1,0.2
	c36.1-28.9,77.7-23.8,84.5-19.2c-7.1-3.6-55.4,1.7-82,23c0.1,0,0.1,0.1,0.1,0.1c30.4-12.9,56.5-3,61.6-1.8
	c-4.8-0.8-54.4-2.5-57.7,9.2c18.6-4.4,31.4,4.4,37.7,7.3c10.4,4.7,21.1,11,32.7,11.9c11.8,0.9,23.4-5.3,29.4-15.9
	c12.8-22.5-5.2-28.3-7.9-43.3c-2.4-13.1,13.2-28.2-6.7-42.3c-19.1-13.5-44.6-5.7-59.6,8.1C43.7,711.8,24.9,729.2,16,760.2L16,760.2z
	"/>
<path fill="#F8F7F6" d="M-4,753c5.8-14.3-8.5-52.5-22.9-71.5c14.2,16.4,23.4,37.6,28.7,58.7c0.6-24-0.3-48.1,0.4-72.2
	c0.7,22.1,2.8,44.1,3.9,66.2c3.8-18.1,13.7-34.4,19.3-43c-4.9,8.9-16.5,40.1-15.6,58.8c5.3-12.1,14-23.4,21.4-33.3
	c10.9-14.7,22.4-29.8,26.1-48.1c3-15-6.3-30.3-20.8-34.8c-14.4-4.5-26.5,5.7-34.2,17c-7.8-11.3-19.8-21.5-34.2-17
	c-14.5,4.6-23.8,19.9-20.8,34.8c3.7,18.3,15.2,33.4,26.1,48.1C-18.6,727.5-9,739.7-4,753L-4,753z"/>
<path fill="#F8F7F6" d="M51.7,552c-4-14-19.6-15.1-30.5-7.3c-9.2,6.6-14.3,21-13.8,32.3C19.5,558.9,38.9,552.3,51.7,552z"/>
<path fill="#F8F7F6" d="M2.2,568.4c0,0,12.1-36.1,12.1-42.8c0-6.7-5.4-12.1-12.1-12.1c-6.7,0-12.1,5.4-12.1,12.1
	S2.2,568.4,2.2,568.4z"/>
<path fill="#F8F7F6" d="M1072.8,342.2c-34.7-12.6-47,9.6-50.8,36c-3.8-26.4-16.1-48.7-50.8-36c35.7,10.5,48.9,64.7,50.9,94.3
	c0,0.2,0,0.2,0,0C1024.1,406.9,1037.3,352.7,1072.8,342.2z"/>
<path fill="#F8F7F6" d="M950.2,425.2c32.6-3.9,29.4-39.6,25.3-48.4c-5.8-11.8-12.3-27.3-7.4-38.7c-7.4,5.2-11.5,15.1-10,23.9
	c1.9,11.7,14.8,23.4,8.9,35.8c5.1-12.9-9.1-24.2-11.5-36.1c-1.9-9.4,1.8-19.6,8.8-26.1c-15.5,7.4-20.7,27.4-15.6,36.6
	C953.2,380.3,963.3,407.4,950.2,425.2L950.2,425.2z"/>
<path fill="#F8F7F6" d="M1069.8,336.6c1.7-38.8-46.2-40.9-47.7-21.6c-1.5-19.3-49.4-17.2-47.7,21.6c15.3-10.5,40.4-1.2,47.7,15.6
	C1029.4,335.3,1054.5,326,1069.8,336.6z M910.4,400.5c6.5,0.6,12.2,0,18.3-4.5c24.2-17.8,1.5-55.1,36.4-65.4
	c-5-2.1-11.7-0.3-16.3,1.4c-5.3,1.9-11.2,5.2-13.8,10.4c-3,6.1-2.3,13.4-2.2,19.9c0.1,5.7,0.3,12.6-3.6,17.1
	c4.4-5.7,2.7-14.3,2.2-20.9c-0.5-6.7-0.9-14.5,3.3-20.2c4.1-5.5,10.9-9.2,17.3-11.2c0.2-0.1,0.4-0.1,0.6-0.2
	c-15.2-2.2-21.7,0.7-27,5.9c-5.4,5.3-7.7,12.7-8.1,20.1C916.8,364.7,921.6,391.5,910.4,400.5z M978.4,446c3,3.2,31,14.8,41.7,44.3
	c0.1-0.3,0.1-0.7,0.1-1c-2.3-32.6-12.5-53.4-21.4-77.1c9.7,18.1,20.1,33.3,24.1,68.6c3-31.8,20.6-57.1,22.3-62.8
	c-0.7,6-19.5,47-20.9,70.2c10.3-21.3,26.2-32,29.6-34.4c-0.5,2.9-24.2,22.8-28.6,52.7c9.9-23.4,35.8-50.7,53.2-52.4
	c6.7-0.7,15.5-4.7,18.8-11.2c2.2-4.1-2.7-6.6-5.8-7.6c-14-4.3-30.5-4.8-47.3,18.7c18.3-27.7,16.1-44.5,15.5-54
	c-0.7-10.9-2.7-22.4,1.6-32.8c0.8-1.9-1.3-2.8-2.9-1.4c-13.8,12.5-30.3,43.2-36.3,78.9c-6-35.7-22.5-66.4-36.4-78.7
	c-1.5-1.4-3.7-0.5-2.9,1.4c4.3,10.4,2.3,21.9,1.6,32.8c-0.7,9.5-2.8,26.3,15.5,54c-16.7-23.5-33.3-23-47.3-18.7
	c-3.1,0.9-7.9,3.5-5.8,7.6c3.3,6.5,12.1,10.3,18.8,11.2c19,2.7,42.4,27.8,52.5,50.7C1013.4,473.3,981.5,449.4,978.4,446z
	 M831.7,212.1c-4.1,19.6-1.7,41.6,9.8,58.4c11.7,16.9,30.4,27,54.7,24.1c-60.8-19.7-41-128.2,17.7-121.1
	c-15.2-12.5-33.4-13.3-49.3-5.7C846.8,176.4,835.6,192.9,831.7,212.1z M920.8,169c-26.1-58,66.4-116,100.9-68.9v0.7
	c0.1-0.2,0.2-0.3,0.3-0.4c0.1,0.2,0.2,0.3,0.3,0.4v-0.7C1057,53,1149.5,111,1123.4,169c18.5-16,23.6-36.7,18.9-56.7
	c-4.7-19.8-19.4-36.3-36.6-46.5c-17-10-36.6-12.9-55-5.4c-15.4,6.2-26.6,19-28.6,36.9c-2-17.9-13.2-30.7-28.6-36.9
	c-18.4-7.4-38.1-4.6-55,5.4c-17.2,10.1-31.9,26.7-36.6,46.5C897.2,132.3,902.3,152.9,920.8,169z M927.1,424.1
	c5.7,4.4,24.4-7,18.7-31.1c-0.5-2-2.2-1.9-3.1-0.1c-5.2,10.2-10.9,10.8-15.5,15.8C923.7,412.4,922.6,420.6,927.1,424.1L927.1,424.1z
	"/>
<path fill="#F8F7F6" d="M1024.2,242.6c-1.5,12.8-31.5,31.2-27.4,56.5c5.2-3.1,18.4-6.8,27.1-0.9v0.4c0.1-0.1,0.2-0.1,0.3-0.2
	c0.1,0.1,0.2,0.1,0.3,0.2v-0.4c8.6-5.9,21.8-2.1,27.1,0.9C1055.7,273.8,1025.7,255.4,1024.2,242.6c-0.1-0.1-0.1-0.2-0.1-0.3l0,0
	C1024.1,242.4,1024.1,242.5,1024.2,242.6z M953.8,313.7c3.5,3.3,9.6,1.9,13.6,0.5c15.9-5.8,15.8-23.4,26.2-34
	c-16.7,8.2-25.7,18.9-41.5,22c14.7-4.4,25.6-16.6,37.5-25.8c-16-1.3-29.2,9.8-33.4,13.5c-6.2,5.4-27,10.6-42.2,5.7
	c-1.2-0.4-1.9,0.7-1.9,2.1c0.3,11.9,25.1,19.6,41.7,8.6C953,309,952.2,312.2,953.8,313.7L953.8,313.7z"/>
<path fill="#F8F7F6" d="M941.4,262.6c5.1-1.3,31.2-11.1,61.6,1.8c0.1,0,0.1-0.1,0.1-0.1c-26.6-21.3-75-26.6-82-23
	c6.8-4.6,48.4-9.7,84.5,19.2c0-0.1,0.1-0.1,0.1-0.2c-13.6-18.1-30.5-34.8-53.7-38.4c23.4,2.1,48.6,18.8,58.2,32.3
	c-9-31-27.7-48.5-36.7-56.7c-15-13.8-40.5-21.6-59.6-8.1c-20,14-4.3,29.2-6.7,42.3c-2.7,15-20.7,20.7-7.9,43.3
	c6,10.6,17.6,16.8,29.4,15.9c11.6-0.9,22.4-7.2,32.7-11.9c6.3-2.8,19.1-11.6,37.7-7.3C995.7,260,946.2,261.7,941.4,262.6z
	 M910.3,320.2c-15,7.9-35.6,42.2-3.7,45.3C900.2,357.2,898.3,335.8,910.3,320.2z M993.1,175.4c14.2,16.4,23.4,37.6,28.7,58.7
	c0.6-24-0.3-48.1,0.4-72.2c0.7,22.1,2.8,44.1,3.9,66.2c3.8-18.1,13.7-34.4,19.3-43c-4.9,8.9-16.5,40.1-15.6,58.8
	c5.3-12.1,14-23.4,21.4-33.3c10.9-14.7,22.4-29.8,26.1-48.1c3-15-6.3-30.3-20.8-34.8c-14.4-4.5-26.5,5.7-34.2,17
	c-7.8-11.3-19.8-21.5-34.2-17c-14.5,4.6-23.8,19.9-20.8,34.8c3.7,18.3,15.2,33.4,26.1,48.1c8,10.8,17.6,23,22.6,36.3
	C1021.8,232.7,1007.5,194.5,993.1,175.4z M1016.8,71c0.5-11.3-4.6-25.7-13.8-32.3c-10.9-7.9-26.5-6.8-30.5,7.3
	C985.3,46.3,1004.7,52.8,1016.8,71z M1022.1,62.4c0,0,12.1-36.1,12.1-42.8s-5.4-12.1-12.1-12.1s-12.1,5.4-12.1,12.1
	C1010,26.2,1022.1,62.4,1022.1,62.4z M893.8,143.5c-1-16.2-3.5-39.1,10.5-49.7C884.3,87.9,868.5,106.9,893.8,143.5z M888.6,146.4
	c-10.1-9.3-19.6-19.5-27-31c7.2,9.1,15.8,17,24.9,24.3c-9.4-25.6-22.5-34.6-38.7-33.7c3.6,3.5,6,7.6,6.4,13c0.4,6.3-1,16.3,5.2,20.3
	C862.7,141.4,885.2,145.2,888.6,146.4L888.6,146.4z"/>
<path fill="#F8F7F6" d="M890.6,333.9c-2.8,1.3-5.7,2.2-8.5,3.2c-4.8,1.5-10.6,2.6-14.7,5.7c3.6-3.8,9.2-5.7,13.8-8
	c2.6-1.3,5.3-2.6,7.8-4.3c-17.5-3-27,0.2-29.7,10c-1.4,4.9-2.7,10.4-6.1,13.9C861.2,357.4,879.1,359.7,890.6,333.9L890.6,333.9z
	 M861.6,146c-13.1,2.9-22.8,15.2-14.9,27.6c8.8-9.3,26.6-19.4,48.2-16.2C886.8,149.5,872.7,143.6,861.6,146L861.6,146z"/>
<path fill="#F8F7F6" d="M908.8,311.8c-27.7,0.9-37.3-2.1-46.1-13C858,328.4,882.3,330.8,908.8,311.8z"/>
<path fill="none" d="M2.9,1398.7V-487h1020.8v2658.2H2.9V1398.7z"/>
</svg>
