<svg xmlns="http://www.w3.org/2000/svg" width="350.3" height="60.7" viewBox="0 0 350.3 60.7"><g fill="#2B2D6B"><path d="M11 29.7H9V3.6H0V1.8h20.1v1.8H11v26.1zM25.4 8.9v13.4c0 2.1.4 3.6 1.3 4.5.9.9 2.2 1.4 4.1 1.4 2.5 0 4.3-.6 5.4-1.9 1.2-1.2 1.7-3.3 1.7-6.1V8.9h1.9v20.7h-1.6l-.3-2.9h-.1c-1.3 2.2-3.7 3.2-7.2 3.2-4.7 0-7.1-2.5-7.1-7.6V8.9h1.9zM55 8.5c.9 0 1.8.1 2.8.3l-.4 1.8c-.9-.2-1.8-.3-2.7-.3-1.8 0-3.2.8-4.3 2.3-1.1 1.5-1.7 3.4-1.7 5.7v11.4h-1.9V8.9h1.6l.2 3.7h.1c.9-1.5 1.8-2.6 2.7-3.2 1-.5 2.2-.9 3.6-.9zM66.5 29.7L58.5 9h1.9l5.4 14c.7 1.8 1.2 3.4 1.6 4.7h.1c.5-1.7 1.1-3.3 1.6-4.8l5.4-14.1h1.9l-8 20.7h-1.9zM88.3 30.1c-3 0-5.4-.9-7-2.8-1.7-1.9-2.5-4.5-2.5-7.8s.8-6 2.4-7.9c1.6-2 3.8-3 6.6-3 2.4 0 4.4.9 5.8 2.6 1.4 1.7 2.1 4 2.1 6.9v1.5h-15c0 2.8.7 5 2 6.5s3.2 2.3 5.6 2.3c1.2 0 2.2-.1 3.1-.2.9-.2 2-.5 3.4-1.1v1.7c-1.2.5-2.3.9-3.2 1-1 .2-2.1.3-3.3.3zm-.5-19.9c-2 0-3.6.7-4.8 2-1.2 1.3-1.9 3.2-2.1 5.7h12.8c0-2.4-.5-4.3-1.6-5.6-1.1-1.4-2.5-2.1-4.3-2.1zM97.9 8.9h1.9l4.4 11.6c1.3 3.6 2.2 6 2.5 7.2h.1c.5-1.6 1.4-4.1 2.6-7.3l4.4-11.5h1.9L106.5 33c-.8 2-1.4 3.3-1.9 4-.5.7-1.1 1.2-1.8 1.5-.7.3-1.5.5-2.5.5-.7 0-1.5-.1-2.4-.4V37c.7.2 1.5.3 2.4.3.6 0 1.2-.2 1.7-.5s.9-.8 1.3-1.4c.4-.6.9-1.7 1.4-3.1.5-1.4.9-2.3 1-2.7L97.9 8.9zM152.2 29.7h-1.6l-6.1-21.5c-.5-1.8-.9-3.2-1.1-4.4-.2 1.1-.5 2.4-.9 3.8s-2.4 8.8-6.2 22.1h-1.6L127 1.8h2l4.9 18c.2.7.4 1.4.5 2 .2.6.3 1.2.4 1.7.1.5.3 1.1.4 1.6l.3 1.5c.3-1.7 1-4.4 1.9-7.9l4.8-16.9h2.2l5.6 19.4c.6 2.2 1.1 4 1.4 5.4.2-.9.4-1.9.6-2.9.3-1 2.2-8.3 5.9-21.9h2l-7.7 27.9zM181.5 19.3c0 3.4-.8 6-2.5 7.9-1.6 1.9-3.9 2.9-6.8 2.9-1.8 0-3.4-.4-4.8-1.3s-2.4-2.1-3.2-3.8c-.7-1.6-1.1-3.5-1.1-5.7 0-3.4.8-6 2.5-7.9 1.6-1.9 3.9-2.8 6.8-2.8 2.8 0 5.1 1 6.7 2.9 1.6 1.8 2.4 4.5 2.4 7.8zm-16.4 0c0 2.8.6 5.1 1.9 6.7 1.3 1.6 3 2.4 5.3 2.4s4.1-.8 5.3-2.4c1.3-1.6 1.9-3.8 1.9-6.7 0-2.9-.6-5.1-1.9-6.7-1.3-1.6-3-2.4-5.3-2.4s-4.1.8-5.3 2.4c-1.3 1.6-1.9 3.8-1.9 6.7zM195.4 8.5c.9 0 1.8.1 2.8.3l-.4 1.8c-.9-.2-1.8-.3-2.7-.3-1.8 0-3.2.8-4.3 2.3-1.1 1.5-1.7 3.4-1.7 5.7v11.4h-1.9V8.9h1.6l.2 3.7h.1c.9-1.5 1.8-2.6 2.7-3.2 1-.5 2.2-.9 3.6-.9zM204.3 29.7h-1.9V0h1.9v29.7zM218.8 8.5c1.5 0 2.8.3 3.9.8s2.1 1.5 2.9 2.8h.1c-.1-1.6-.1-3.2-.1-4.7V0h1.9v29.7h-1.2l-.5-3.2h-.2c-1.6 2.4-3.8 3.5-6.8 3.5-2.9 0-5-.9-6.6-2.7-1.5-1.8-2.3-4.4-2.3-7.8 0-3.6.8-6.3 2.3-8.2 1.6-1.8 3.8-2.8 6.6-2.8zm0 1.8c-2.3 0-4 .8-5.1 2.4-1.1 1.6-1.7 3.9-1.7 6.9 0 5.9 2.3 8.8 6.8 8.8 2.3 0 4.1-.7 5.2-2 1.1-1.4 1.6-3.6 1.6-6.7v-.3c0-3.2-.5-5.5-1.6-6.9-1-1.5-2.8-2.2-5.2-2.2zM266.3 15.5c0 4.7-1.2 8.2-3.7 10.6-2.5 2.4-6.1 3.6-10.8 3.6h-6.7V1.8h7.5c4.5 0 7.8 1.2 10.2 3.5 2.3 2.3 3.5 5.7 3.5 10.2zm-2.1 0c0-4-1-7-3-9s-5-3-8.9-3h-5.1V28h4.6c8.2 0 12.4-4.2 12.4-12.5zM284.8 29.7l-.5-3.3h-.2c-1 1.3-2.1 2.3-3.2 2.8-1.1.6-2.4.8-3.9.8-2 0-3.6-.5-4.8-1.6-1.1-1-1.7-2.5-1.7-4.3 0-2 .8-3.6 2.5-4.7s4.1-1.7 7.3-1.8l3.9-.1v-1.4c0-2-.4-3.5-1.2-4.5-.8-1-2.1-1.5-3.9-1.5-1.9 0-3.9.5-6 1.6l-.7-1.6c2.3-1.1 4.5-1.6 6.8-1.6s4 .6 5.1 1.8c1.1 1.2 1.7 3 1.7 5.5v13.8h-1.2zm-7.6-1.4c2.2 0 4-.6 5.2-1.9 1.3-1.3 1.9-3 1.9-5.3v-2l-3.6.2c-2.9.1-5 .6-6.2 1.4-1.2.8-1.9 2-1.9 3.6 0 1.3.4 2.3 1.2 3 .8.7 1.9 1 3.4 1zM307.4 29.7V16.2c0-2.1-.4-3.6-1.3-4.5-.9-.9-2.2-1.4-4.1-1.4-2.5 0-4.3.6-5.4 1.9-1.2 1.3-1.7 3.3-1.7 6.1v11.4H293V8.9h1.6l.4 2.8h.1c1.3-2.2 3.7-3.2 7.2-3.2 4.7 0 7.1 2.5 7.1 7.6v13.6h-2zM324.3 30.1c-3 0-5.3-.9-7-2.8-1.7-1.9-2.5-4.5-2.5-7.8 0-3.4.9-6.1 2.6-8 1.7-1.9 4.1-2.9 7.2-2.9 1.8 0 3.5.3 5.2.9l-.5 1.7c-1.8-.6-3.4-.9-4.7-.9-2.5 0-4.5.8-5.8 2.4-1.3 1.6-2 3.8-2 6.8 0 2.8.7 5 2 6.6 1.3 1.6 3.1 2.4 5.5 2.4 1.9 0 3.6-.3 5.2-1v1.8c-1.4.4-3.1.8-5.2.8zM342.9 30.1c-3 0-5.4-.9-7-2.8-1.7-1.9-2.5-4.5-2.5-7.8s.8-6 2.4-7.9c1.6-2 3.8-3 6.6-3 2.4 0 4.4.9 5.8 2.6 1.4 1.7 2.1 4 2.1 6.9v1.5h-14.9c0 2.8.7 5 2 6.5s3.2 2.3 5.6 2.3c1.2 0 2.2-.1 3.1-.2.9-.2 2-.5 3.4-1.1v1.7c-1.2.5-2.3.9-3.2 1-1.1.2-2.2.3-3.4.3zm-.5-19.9c-2 0-3.6.7-4.8 2-1.2 1.3-1.9 3.2-2.1 5.7h12.8c0-2.4-.5-4.3-1.6-5.6s-2.5-2.1-4.3-2.1z"/><g><path d="M135.5 50.5h-6l-2.1 5.2h-1.1l5.9-14.8h.7l5.8 14.8h-1.2l-2-5.2zm-5.6-.9h5.3l-2-5.3c-.2-.4-.4-1-.6-1.7l-.6 1.8-2.1 5.2zM148.2 55.7v-7.1c0-1.1-.2-1.9-.7-2.4-.5-.5-1.2-.7-2.2-.7-1.3 0-2.3.3-2.9 1-.6.7-.9 1.7-.9 3.2v6h-1V44.8h.8l.2 1.5h.1c.7-1.1 2-1.7 3.8-1.7 2.5 0 3.7 1.3 3.7 4v7.2h-.9zM152.5 41.7c0-.6.2-1 .6-1 .2 0 .4.1.5.3.1.2.2.4.2.7 0 .3-.1.5-.2.7-.1.2-.3.3-.5.3-.3 0-.6-.3-.6-1zm1.2 14h-1V44.8h1v10.9zM171 55.7v-7.2c0-1.1-.2-1.8-.6-2.3-.4-.5-1.1-.7-1.9-.7-1.1 0-1.9.3-2.5.9-.5.6-.8 1.6-.8 2.9v6.4h-1v-7.5c0-1.8-.8-2.8-2.5-2.8-1.1 0-2 .3-2.5 1s-.8 1.7-.8 3.2v6h-1V44.8h.8l.2 1.5h.1c.3-.5.7-1 1.3-1.3.6-.3 1.2-.4 1.8-.4 1.7 0 2.8.6 3.3 1.9.4-.6.8-1.1 1.4-1.4.6-.3 1.3-.5 2-.5 1.2 0 2.1.3 2.7 1 .6.6.9 1.7.9 3v7.2h-.9zM182.2 55.7l-.3-1.7h-.1c-.6.7-1.1 1.2-1.7 1.5-.6.3-1.3.4-2.1.4-1.1 0-1.9-.3-2.5-.8-.6-.5-.9-1.3-.9-2.3 0-1.1.4-1.9 1.3-2.5.9-.6 2.2-.9 3.9-.9l2.1-.1v-.7c0-1-.2-1.8-.6-2.4-.4-.5-1.1-.8-2-.8-1 0-2.1.3-3.1.8l-.4-.9c1.2-.6 2.4-.8 3.6-.8 1.2 0 2.1.3 2.7.9.6.6.9 1.6.9 2.9v7.3h-.8zm-4-.7c1.2 0 2.1-.3 2.8-1 .7-.7 1-1.6 1-2.8v-1.1l-1.9.1c-1.5.1-2.6.3-3.3.7-.7.4-1 1-1 1.9 0 .7.2 1.2.6 1.6.4.4 1 .6 1.8.6zM189.3 55c.6 0 1.2-.1 1.7-.2v.8c-.5.2-1 .2-1.7.2-1 0-1.7-.3-2.1-.8-.5-.5-.7-1.3-.7-2.4v-7.1h-1.6v-.6l1.6-.5.5-2.5h.5v2.6h3.2v.9h-3.2v6.9c0 .8.1 1.5.4 1.9.4.6.8.8 1.4.8zM193.2 41.7c0-.6.2-1 .6-1 .2 0 .4.1.5.3.1.2.2.4.2.7 0 .3-.1.5-.2.7-.1.2-.3.3-.5.3-.4 0-.6-.3-.6-1zm1.2 14h-1V44.8h1v10.9zM205.6 55.7v-7.1c0-1.1-.2-1.9-.7-2.4-.5-.5-1.2-.7-2.2-.7-1.3 0-2.3.3-2.9 1-.6.7-.9 1.7-.9 3.2v6h-1V44.8h.8l.2 1.5h.1c.7-1.1 2-1.7 3.8-1.7 2.5 0 3.7 1.3 3.7 4v7.2h-.9zM218.7 44.8v.7l-2.3.1c.6.8.9 1.6.9 2.5 0 1.1-.4 1.9-1.1 2.6-.7.7-1.6 1-2.8 1-.5 0-.8 0-1-.1-.4.2-.7.5-.9.7-.2.3-.3.6-.3.9 0 .3.1.6.4.8.3.2.7.2 1.3.2h1.9c1.2 0 2.1.2 2.7.7.6.5.9 1.2.9 2.1 0 1.2-.5 2-1.4 2.7-.9.6-2.3.9-4 .9-1.4 0-2.4-.3-3.2-.8-.8-.5-1.1-1.3-1.1-2.2 0-.8.2-1.4.7-1.9.5-.5 1.1-.8 1.9-1-.3-.1-.6-.3-.8-.6-.2-.3-.3-.6-.3-.9 0-.7.5-1.4 1.4-1.9-.6-.3-1.1-.7-1.5-1.2-.4-.6-.5-1.2-.5-1.9 0-1.1.3-2 1-2.6.7-.7 1.6-1 2.8-1 .7 0 1.3.1 1.7.2h3.6zm-8.8 12.8c0 1.5 1.1 2.3 3.4 2.3 2.9 0 4.3-.9 4.3-2.7 0-.7-.2-1.1-.7-1.4-.4-.3-1.2-.4-2.2-.4h-1.8c-2-.2-3 .6-3 2.2zm.8-9.4c0 .8.3 1.5.8 2s1.2.7 2.1.7c.9 0 1.6-.2 2.1-.7.5-.5.7-1.1.7-2 0-.9-.2-1.6-.8-2.1-.5-.5-1.2-.7-2.1-.7-.9 0-1.6.2-2.1.8-.5.4-.7 1.1-.7 2zM235.4 45.2c0 1.4-.5 2.5-1.4 3.3-1 .8-2.3 1.1-4.1 1.1h-2.3v6.1h-1V41h3.6c3.5 0 5.2 1.4 5.2 4.2zm-7.8 3.6h2c1.7 0 2.9-.3 3.6-.8.7-.5 1.1-1.4 1.1-2.7 0-1.1-.3-2-1-2.5s-1.8-.8-3.2-.8h-2.4v6.8zM239.2 44.8v7.1c0 1.1.2 1.9.7 2.4.5.5 1.2.8 2.2.8 1.3 0 2.3-.3 2.9-1 .6-.7.9-1.7.9-3.2v-6h1v10.9h-.9l-.2-1.5h-.1c-.7 1.1-2 1.7-3.8 1.7-2.5 0-3.7-1.3-3.7-4v-7.1h1zM255.1 44.6c1.5 0 2.7.5 3.5 1.4.8 1 1.2 2.4 1.2 4.2 0 1.8-.4 3.2-1.2 4.2-.8 1-2 1.5-3.4 1.5-.8 0-1.5-.2-2.1-.5-.6-.3-1.1-.8-1.5-1.4h-.1l-.3 1.7h-.6V40.1h1v6.4h.1c.4-.7.9-1.1 1.5-1.4.4-.4 1.1-.5 1.9-.5zm0 .9c-1.3 0-2.2.4-2.8 1.1-.6.7-.8 2-.8 3.7v.2c0 1.7.3 2.8.9 3.6.6.7 1.5 1.1 2.7 1.1 1.2 0 2.1-.4 2.7-1.3.6-.8.9-2 .9-3.6 0-3.2-1.2-4.8-3.6-4.8zM263.8 55.7h-1V40.1h1v15.6zM267.3 41.7c0-.6.2-1 .6-1 .2 0 .4.1.5.3.1.2.2.4.2.7 0 .3-.1.5-.2.7-.1.2-.3.3-.5.3-.4 0-.6-.3-.6-1zm1.1 14h-1V44.8h1v10.9zM276.5 55.9c-1.6 0-2.8-.5-3.7-1.5-.9-1-1.3-2.4-1.3-4.1 0-1.8.5-3.2 1.4-4.2.9-1 2.2-1.5 3.8-1.5.9 0 1.9.2 2.7.5l-.3.9c-.9-.3-1.8-.5-2.5-.5-1.3 0-2.4.4-3 1.2-.7.8-1 2-1 3.6 0 1.5.3 2.6 1 3.5.7.8 1.7 1.3 2.9 1.3 1 0 1.9-.2 2.8-.5v.9c-.8.3-1.7.4-2.8.4zM295.6 51.9c0 1.2-.5 2.2-1.4 2.9-.9.7-2.1 1.1-3.6 1.1-1.8 0-3.2-.2-4.1-.6v-1c1.1.4 2.4.7 4.1.7 1.2 0 2.2-.3 2.9-.8.7-.6 1.1-1.3 1.1-2.2 0-.6-.1-1-.4-1.4-.2-.4-.6-.7-1.1-1-.5-.3-1.3-.6-2.3-1-1.5-.5-2.5-1.1-3.1-1.7-.6-.6-.9-1.4-.9-2.4 0-1.1.4-2 1.3-2.7.9-.7 2-1 3.3-1 1.4 0 2.7.3 3.9.8l-.4.9c-1.2-.5-2.4-.8-3.5-.8s-2 .3-2.6.8c-.6.5-1 1.2-1 2.1 0 .5.1 1 .3 1.3.2.3.5.7 1 .9.4.3 1.2.6 2.3 1 1.1.4 2 .8 2.6 1.2.6.4 1 .8 1.3 1.3.2.4.3 1 .3 1.6zM303.2 55.9c-1.7 0-2.9-.6-3.7-1.9h-.1V60.6h-1V44.8h.8l.2 1.6h.1c.8-1.2 2-1.8 3.6-1.8 1.5 0 2.6.5 3.4 1.5.8 1 1.2 2.4 1.2 4.2 0 1.8-.4 3.2-1.2 4.2-.8.9-1.9 1.4-3.3 1.4zm-.1-.9c1.1 0 2-.4 2.6-1.2.6-.8.9-2 .9-3.5 0-3.2-1.2-4.8-3.5-4.8-1.3 0-2.2.4-2.8 1.1-.6.7-.9 1.8-.9 3.4v.3c0 1.7.3 2.9.9 3.7.6.7 1.5 1 2.8 1zM317.4 55.7l-.3-1.7h-.1c-.5.7-1.1 1.2-1.7 1.5s-1.3.4-2.1.4c-1.1 0-1.9-.3-2.5-.8-.6-.5-.9-1.3-.9-2.3 0-1.1.4-1.9 1.3-2.5.9-.6 2.2-.9 3.9-.9l2.1-.1v-.7c0-1-.2-1.8-.6-2.4-.4-.5-1.1-.8-2-.8-1 0-2.1.3-3.1.8l-.4-.9c1.2-.6 2.4-.8 3.6-.8 1.2 0 2.1.3 2.7.9.6.6.9 1.6.9 2.9v7.3h-.8zm-4-.7c1.2 0 2.1-.3 2.8-1 .7-.7 1-1.6 1-2.8v-1.1l-1.9.1c-1.5.1-2.6.3-3.3.7-.7.4-1 1-1 1.9 0 .7.2 1.2.6 1.6.4.4 1 .6 1.8.6zM326 55.9c-1.6 0-2.8-.5-3.7-1.5-.9-1-1.3-2.4-1.3-4.1 0-1.8.5-3.2 1.4-4.2.9-1 2.2-1.5 3.8-1.5.9 0 1.9.2 2.7.5l-.3.9c-.9-.3-1.8-.5-2.5-.5-1.3 0-2.4.4-3 1.2-.7.8-1 2-1 3.6 0 1.5.3 2.6 1 3.5.7.8 1.7 1.3 2.9 1.3 1 0 1.9-.2 2.8-.5v.9c-.7.3-1.6.4-2.8.4zM335.9 55.9c-1.6 0-2.8-.5-3.7-1.5-.9-1-1.3-2.4-1.3-4.1 0-1.7.4-3.1 1.3-4.2.9-1 2-1.6 3.5-1.6 1.3 0 2.3.5 3 1.3.7.9 1.1 2.1 1.1 3.7v.8h-7.9c0 1.5.4 2.6 1.1 3.4.7.8 1.7 1.2 3 1.2.6 0 1.2 0 1.6-.1.5-.1 1.1-.3 1.8-.6v.9c-.6.3-1.2.5-1.7.5-.6.3-1.2.3-1.8.3zm-.3-10.4c-1.1 0-1.9.3-2.5 1-.6.7-1 1.7-1.1 3h6.8c0-1.3-.3-2.3-.8-3-.7-.7-1.4-1-2.4-1zM349.6 52.9c0 1-.4 1.7-1.1 2.3-.7.5-1.8.8-3.2.8-1.5 0-2.6-.2-3.5-.7v-1.1c1.1.6 2.3.8 3.5.8 1.1 0 1.9-.2 2.5-.5.6-.4.8-.8.8-1.4 0-.5-.2-1-.7-1.4-.4-.4-1.2-.7-2.2-1.1-1.1-.4-1.9-.7-2.3-1-.4-.3-.8-.6-1-1-.2-.4-.3-.8-.3-1.3 0-.8.3-1.5 1-1.9.7-.5 1.6-.7 2.9-.7 1.2 0 2.3.2 3.4.7l-.4.9c-1.1-.4-2.1-.7-3-.7-.9 0-1.6.1-2.1.4-.5.3-.8.7-.8 1.2 0 .6.2 1 .6 1.4.4.3 1.2.7 2.4 1.1 1 .4 1.7.7 2.2 1 .4.3.8.6 1 1 .1.3.3.7.3 1.2z"/></g></g></svg>