<?xml version="1.0" standalone="no"?>
<!DOCTYPE svg PUBLIC "-//W3C//DTD SVG 20010904//EN"
 "http://www.w3.org/TR/2001/REC-SVG-20010904/DTD/svg10.dtd">
<svg version="1.0" xmlns="http://www.w3.org/2000/svg"
 width="700.000000pt" height="700.000000pt" viewBox="0 0 700.000000 700.000000"
 preserveAspectRatio="xMidYMid meet">
<metadata>
Created by potrace 1.11, written by Peter Selinger 2001-2013
</metadata>
<g transform="translate(0.000000,700.000000) scale(0.100000,-0.100000)"
fill="#000000" stroke="none">
<path d="M2849 6515 c-61 -13 -166 -59 -226 -99 -138 -94 -242 -254 -278 -428
-14 -65 -15 -224 -2 -245 4 -6 9 -25 12 -44 23 -132 155 -421 279 -614 52 -80
173 -249 343 -480 202 -275 282 -397 363 -553 23 -45 44 -82 47 -82 6 0 -3
170 -12 240 -21 159 -133 583 -190 715 -7 17 -28 68 -46 115 -19 47 -42 99
-51 115 -10 17 -18 35 -18 40 0 6 23 -28 50 -75 28 -47 57 -96 66 -110 8 -14
48 -92 88 -175 75 -152 119 -263 154 -390 44 -154 40 -148 42 -60 1 44 3 96 5
115 1 19 5 87 9 150 4 63 9 135 11 160 2 25 7 92 10 150 4 58 9 125 10 150 2
25 7 97 10 160 4 63 8 133 10 155 2 22 5 72 6 110 1 58 3 63 8 30 3 -22 6
-335 5 -695 0 -360 1 -659 4 -664 3 -5 20 42 37 105 74 261 185 527 312 747
68 119 243 368 243 347 0 -5 -6 -16 -14 -24 -32 -37 -123 -196 -192 -334 -112
-228 -184 -420 -239 -637 -40 -161 -49 -225 -48 -345 0 -88 20 -195 31 -165
16 47 81 178 130 260 79 136 136 218 365 530 307 417 429 624 513 875 49 149
64 227 59 330 -4 107 -9 132 -40 208 -72 178 -208 316 -379 384 -259 102 -530
-6 -754 -299 -20 -27 -39 -48 -43 -48 -3 0 -18 18 -33 40 -37 56 -137 161
-199 208 -150 115 -306 158 -458 127z m698 -897 c-3 -7 -5 -2 -5 12 0 14 2 19
5 13 2 -7 2 -19 0 -25z"/>
<path d="M1210 4746 c-293 -69 -516 -321 -524 -591 -3 -90 8 -143 50 -234 55
-120 155 -238 281 -334 29 -22 53 -42 53 -46 0 -3 -19 -19 -41 -35 -166 -117
-301 -304 -334 -461 -55 -264 123 -559 405 -668 221 -87 435 -58 767 104 165
80 351 203 693 455 364 268 514 364 685 439 l77 33 -38 12 c-73 24 -238 19
-411 -14 -108 -20 -405 -118 -521 -172 -29 -13 -55 -24 -57 -24 -20 0 -301
-149 -410 -217 -81 -50 -45 -17 65 61 170 121 406 247 620 331 117 46 308 109
383 126 32 8 57 16 57 19 0 4 -298 6 -662 6 -365 -1 -690 2 -723 5 l-60 6 75
2 c41 2 93 4 115 6 22 1 90 5 150 9 61 3 143 8 183 11 39 3 105 7 145 10 39 3
108 7 152 10 44 3 107 8 140 10 121 8 321 19 343 18 39 -1 18 8 -75 32 -145
39 -251 79 -413 157 -58 28 -117 59 -132 69 -14 11 -33 19 -41 19 -9 0 -17 4
-19 8 -1 4 -32 24 -68 44 -80 45 -124 78 -65 49 109 -54 393 -155 576 -205
197 -54 357 -82 520 -92 l104 -6 -57 31 c-130 68 -178 97 -283 166 -93 61
-224 153 -260 182 -45 37 -335 246 -435 315 -269 183 -472 283 -689 339 -97
25 -248 32 -321 15z"/>
<path d="M5575 4735 c-158 -41 -263 -84 -482 -199 -58 -31 -334 -219 -493
-337 -365 -270 -504 -364 -675 -453 l-90 -48 105 6 c120 7 136 9 280 37 249
48 607 161 804 255 31 14 31 14 8 -3 -84 -63 -385 -217 -542 -276 -52 -20
-137 -48 -189 -61 -51 -14 -95 -27 -98 -29 -2 -3 31 -6 74 -7 43 -1 98 -3 123
-5 25 -1 97 -6 160 -9 63 -4 135 -9 160 -11 25 -3 83 -7 130 -10 47 -3 114 -7
150 -10 56 -4 196 -12 345 -21 22 -1 69 -3 105 -5 178 -7 -186 -14 -762 -13
-345 0 -627 -1 -625 -2 1 -1 61 -19 132 -39 112 -32 299 -97 400 -138 179 -73
543 -286 645 -377 l35 -31 -45 29 c-103 67 -300 173 -440 235 -198 89 -500
185 -634 203 -22 4 -59 9 -82 13 -77 14 -294 1 -294 -17 0 -4 39 -25 86 -46
93 -43 287 -154 292 -168 2 -4 8 -8 14 -8 11 0 101 -61 106 -72 2 -5 8 -8 13
-8 5 0 17 -7 26 -15 68 -56 512 -377 633 -457 232 -153 489 -266 685 -303 39
-7 182 -7 218 0 219 43 400 179 492 370 86 180 81 340 -18 514 -48 85 -169
218 -251 276 -30 22 -56 43 -56 46 0 4 26 26 58 50 199 150 321 349 328 532 5
177 -87 360 -246 489 -52 42 -196 118 -223 118 -10 0 -28 5 -39 11 -12 6 -69
13 -127 14 -84 2 -124 -2 -196 -20z"/>
<path d="M3661 3140 c-11 -51 -16 -209 -7 -255 2 -11 7 -40 11 -65 31 -203
132 -499 260 -766 66 -136 173 -322 209 -363 11 -13 15 -21 8 -17 -7 4 -35 37
-62 74 -27 37 -53 72 -58 77 -13 17 -107 167 -134 215 -125 220 -238 499 -313
770 l-24 85 -1 -55 c-1 -30 -1 -340 -1 -689 -1 -599 -9 -776 -23 -486 -3 72
-8 162 -11 200 -3 39 -7 108 -10 155 -2 47 -7 112 -10 145 -5 64 -13 184 -20
300 -12 212 -17 290 -20 293 -2 2 -9 -22 -15 -54 -41 -195 -169 -488 -322
-737 -56 -92 -56 -90 2 43 136 307 260 805 260 1035 l0 70 -41 -79 c-47 -90
-153 -266 -207 -341 -79 -109 -307 -420 -312 -425 -16 -15 -167 -238 -222
-325 -119 -193 -229 -442 -253 -575 -2 -14 -8 -45 -13 -70 -22 -118 7 -272 76
-405 48 -91 173 -219 262 -267 104 -57 162 -72 275 -72 117 0 188 21 293 86
66 41 204 170 272 256 l35 43 36 -48 c170 -228 389 -354 588 -340 282 21 536
265 582 557 40 261 -101 619 -419 1065 -76 106 -228 313 -250 340 -30 37 -190
268 -232 334 -45 73 -123 222 -162 311 l-15 35 -12 -55z m-114 -1645 c0 -8 -4
-12 -9 -9 -4 3 -8 9 -8 15 0 5 4 9 8 9 5 0 9 -7 9 -15z m3 -35 c0 -5 -5 -10
-11 -10 -5 0 -7 5 -4 10 3 6 8 10 11 10 2 0 4 -4 4 -10z"/>
</g>
</svg>
