<svg xmlns="http://www.w3.org/2000/svg" width="131" height="100.3" viewBox="0 0 131 100.3"><path opacity="0.1" fill="#999999" d="M17.2 38.4c-.1-1-.9-1.8-2.1-2.2-1.2-.4-2.2 1-2.1 1.9.1 1 .8 1.8 2.1 1.9 1.3.1 2.2-.6 2.1-1.6zm-1.7-1.5c.1 0 .2 0 .2.1s0 .1-.1.2c-.1 0-.2 0-.2-.1s0-.2.1-.2zm-.2.7s-.1.4-.2.4-.2-.2-.3-.3c0 0 .1-.1.2-.1.2-.1.3-.1.3 0zm-.5-1c.1 0 .2 0 .3.1.1.2-.2.4-.4.5-.1 0-.1-.2-.1-.3 0-.1 0-.2.2-.3zm-.3 1c.1 0 .2 0 .2.1s0 .2-.1.2-.2 0-.2-.1c0 0 0-.1.1-.2zm-.4-1c.1 0-.1.4-.1.5v.2c-.1 0-.4-.2-.4-.3 0-.1.5-.4.5-.4zm-.7 1.5s-.1 0-.1-.1v-.1s.1 0 .1.1c.1 0 .1.1 0 .1zm.3.9l-.2-.2v-.2l.2.2c.1.1.1.2 0 .2zm-.1-1c0-.1 0-.3.1-.3s.2.1.2.2.3.3.2.3c0 .1-.5.1-.5-.2zm.5.9c0-.1 0-.2.1-.2s.5.2.5.3c0 .1-.4.1-.5.2-.1 0-.1-.2-.1-.3zm.6.9c-.1 0-.2-.1-.2-.2v-.2c.1 0 .3.3.4.4.1.1-.1-.1-.2 0zm.1-1.1c0-.1.2-.3.3-.4.1 0 .2 0 .3.2 0 .1 0 .3-.1.3-.2 0-.4 0-.5-.1zm.5.9c-.1 0-.2 0-.2-.1s0-.2.1-.2.4 0 .4.1c0 0-.2.1-.3.2zm.4-1.2c-.1 0-.1-.1-.2-.2V38c.1 0 .1.1.2.2.1 0 .1.1 0 .2zm-.1-.8l.2-.2h.2s0 .4-.1.4c-.1.1-.3-.2-.3-.2zm.2 1.4c0-.1.1-.1.2-.2h.2c0 .1-.1.1-.2.2s-.2.1-.2 0zm.4.7c-.1 0-.1 0-.1-.1s0-.1.1-.1.1 0 .1.1l-.1.1zm.2-1.3c-.1 0-.3.2-.3.1s.1-.5.2-.5.2 0 .2.2c0 .1 0 .2-.1.2zm-.2-.7c0-.1.2-.4.3-.4.1 0 .2 0 .2.2 0 .1 0 .2-.1.3-.1 0-.3.1-.4-.1zm.5 1.1s0-.5.1-.5.1.4.1.4 0 .1-.1.1c0 .1-.1.1-.1 0zM71.2 2.5c.9-.2 1.1-1 1.5-1.6 0 0 1.9 1.7 2.1 2 .7.7 1.1 1.6 1.5 2.5.5 1.1 1 2.1 1.4 3.2.1.2.2.4.2.6.1-.2.1-.2 0-.2-.5-1.5-1.3-3.1-2.8-3.9-1.7-1-3.7-.9-5.6-1.5-.2-.1-.3.1-.2.3.9 1.5 1.5 3.5 3.1 4.3.9.5 1.9.7 2.8.9.8.2 1.7.4 2.5.3.1 0 .4.4.5.5.3.6.4 1.4.5 2.1.1.8.1 1.5-.1 2.3 0 .2.3.3.3.1.1-.5.2-1 .1-1.5 0-1 0-1.8.2-2.8.2-.7.3-1.4.5-2.1.4.1.8-.1 1.1-.4.5-.5.6-1.2 1.4-1.4.1 0 .2-.2.1-.3-.6-.5-1.2-.5-1.9-.2.2-.4.5-.7.9-.9.2-.1.5-.2.7-.1h.1c0 .3.2.5.5.5s.5-.2.5-.5-.2-.5-.5-.5c-.2 0-.3.1-.4.3h-.6c-.4.1-.9.5-1.2.9.4-1.1.9-2.1 1.5-3 .2-.3.4-.6.6-.8.1-.1.3-.2.4-.3.7 1.2 1 2.6 2.6 2.9 1.5.3 2.9-.4 4.3-.5.1 0 .2-.4.1-.5-.6-.8-1.1-2-1.8-3h-5.2c-1.2 2-2 3-2.6 4.6 0-.5 0-.8-.1-1.3-.1-.4-.2-.9-.5-1.3v-.1c0-.3-.2-.5-.5-.5s-.3.1-.3.4c0 .3.2.5.5.5.2 0 .3-.1.4-.2.3.4.4 1 .5 1.5.1.6.1 1.2-.1 1.8-.1-.4-.2-.8-.6-1-.2-.1-.5-.2-.7-.2-.1 0-.4.1-.4.2-.2.3.3.2.4.3.1.1.1.4.1.6.1.5-.1 1 0 1.4.1.3.2.5.5.7-.3 1-.5 2-.7 3.1-.1-.6-.3-1.2-.5-1.8-.3-.8-.7-1.6-1-2.4-.3-.8-.7-1.5-.9-2.2-.2-.8-.3-1.8-.3-2.5 0-.5 0-.7.1-1.7h-.4c-.1 1-.2 1.8-.1 2.9-.4-.3-.7-.8-1-1.2-.6-.6-1.2-.8-1.7-1.8h-2.7c-.5 1-1.1.8-1.7.8-.2 0-.2.3-.1.4.8.8 1.7 1.5 2.7 1.3zm2.9 3.8c-.9-.6-2.2-.9-2.9-1.8.2.1 1.5.6 1.6.7.7.3 1.5.7 2.1 1.2.9.7 1.8 1.5 2.6 2.3-1.2-.8-2.3-1.6-3.4-2.4zm12-5.2c.6.3 1.1.7 1.7 1.1.3.2.7.3 1 .4-.4-.1-.9-.1-1.3-.3L86 1.4c-.7-.3-1.6-.8-2.4-.5.7-.5 1.8-.1 2.5.2zm10.7.5c-1 1 .5 3.3 1.8 2.1.1.7.4 1.4 1.1 1.4 1.8.1 1.4-2.2.6-2.1-1.3-.5-2.4-1-2.6-3h-2.3c.1 1 .6 1.5 1.4 1.6zm-23 10c-.3 1.7-1.2 3.4-.5 5.2.5 1.3 1.6 2.2 2.7 2.9.2-.2.1-.2.3-.4-.7-.9-1.1-2.6-2.1-3 1.1.3 1.8 1.8 2.5 2.6-.3-.7-.8-1.5-1-2.2-.3-.8-.7-2.4-1.2-3.2.5.7 1.1 2.2 1.5 3 .3.7.6 1.5.9 2.1-.3-1.3-.3-2.7-.7-3.9.5 1.3.6 2.8 1.2 4 .3-.1.5 0 .8.2h.1c.3-1.3-.3-3.1-.9-4.1-.8-1.4-2-2.6-3.6-3.2zm19-9.7c.1 0 .3-.3.2-.5-.2-.4-.4-.4-.6-1.4h-2.6c.1 0 .2.4.3.5.8.5 1.7 1.3 2.7 1.4zM75.9 22.5c-.2-.2-.1-.1-.2-.3-.4.2-1.8.5-2.9 2.5-.6 1.1-.9 2.1-1 3.4 1.1-.5 2.4-.5 3.5-1.1.7-.3 1.3-.8 1.7-1.5.2-.3.3-.7.4-1 0-.2 0-.4.1-.7 0-.1 0-.2-.1-.3l-.4-.1c-.6.8-1 1.6-1.5 2.4.4-.8.5-1.7.9-2.5-.5.3-.9 1.3-1.2 1.6-.6.7-1.4 1.2-2.1 1.7.6-.5 1.3-1 1.8-1.7.3-.4.5-.8.8-1.2.2-.3.3-.6.5-.9-.9.7-1.5 1.7-2.6 2.2 1-.5 1.5-1.7 2.3-2.5zm-7.1-3.3c.8.7 1.2 1.6 1.9 2.4 1 1 2.2 1.5 3.6 1.1.4-.3.8-.6 1.3-.8-.1-.2-.1-.2-.1-.4-1.2-.2-2.5 0-3.7-.5.8.3 1.7.1 2.5 0-.4-.1-.9 0-1.2-.2-.8-.3-1.8-1.1-2.7-1.3.8.1 1.9.5 2.7.8.7.2 1.2.4 2 .4-.9-.4-1.6-1.1-2.4-1.6.9.4 1.5.5 3 1.3v-.1l.2-.2c-3.4-3.6-5.4-1.6-7.1-.9zM.8 73.7c.7-.2 1.4-1 2.1-1 .5-.1 1 .5 1.3.8.6.5.8 1 1.2 1.7.2.1.7.4.8.5-.1-.2-.4-.7-.5-.9-1-1.6-2.7-2.8-4.5-3.4 0 0-.3-.2-1.3-.6v.7c1 .1 1.3.2 1.9.4-.3 0-.6-.1-.9 0-.3.2.1.4-.9.5v1.3c1 0 .6.1.8 0zm4.5-16.3c-.2 1.6.2 3.1.9 4.3v.1c.4.6.9 1.2 1.5 1.7.3-.1.3-.1.4-.2-.2-.2-.5-.7-.6-.9-.5-.8-.8-1.7-1.5-2.3.6.5 1.4 1.4 1.9 2.3-.4-1.3-1.2-2.5-1.7-3.7.6 1.1 1.7 2.7 2.2 3.9 0-.2 0-.8-.1-1 0-.1-.6-2.2-.7-2.2.1-.1 1.1 2.2 1.3 3.2.1-.1 0 0 .1 0 0-.8.2-1.7.6-2.5V60c.5-2.2-2.8-1.8-4.3-2.6zm5.9 1.3c-.7.8-1.7 2.5-1.6 3.8h.1c.3-.1.5-.1.8 0 .9-1 1.2-2.5 2-3.6-.6 1.1-.9 2.5-1.4 3.7.5-.6.9-1.3 1.3-1.9l.1-.1c.5-.7 1.3-2 1.9-2.5-.6.6-1.3 2.1-1.8 2.9-.1.1-.1.2-.2.3-.4.6-.9 1.1-1.3 1.7.4-.3.8-.7 1.3-1.1.5-.5 1.1-.9 1.7-1-.7.1-1.2.8-1.7 1.5-.3.4-.6.8-1 1.1.2.2.1.2.3.4.2-.1.5-.2.7-.3 1-.5 1.9-1.1 2.5-2 1-1.6.4-3.4.5-5.2-1.1.1-2.2.6-3.1 1.3-.4.2-.8.6-1.1 1zm-8.9 3c-.6.3-1.2.6-1.8.6 1.1 1 1.4 2.5 3.1 2.9.8.2 2.6-.4 3.1-.4.2 0 .3-.1.6-.1v-.1c-1-.3-1.8-.4-2.9-.3 1-.2 1.7-.2 2.6 0-1.5-.8-3-1.4-4.8-1.5 1.7 0 3.3.5 4.8 1.2-.5-.6-1.2-.9-1.9-1.2.9.1 1.7.5 2.4 1.2 0-.1.1-.1.1-.2-.6-.5-1.2-1.2-1.6-1.9-1.2-1.1-2.4-.9-3.7-.2zm1.1 18.4c.1-.7-.3-1.2-1-1.5 1.6-1-.3-3-1.6-2.3 0-.6.2-1.2-.8-1.6v2.7c1 .7 1.2 1.6 1.3 2.7-.3.8 1.8 1.7 2.1 0zm10.8 19.6c0 .2.1.4.2.6h1.3l-.6-.9c-.3.3-.4.2-.9.3zM5 34.1c0-.9-.3-1.8-.7-2.6-.9-1.7-2.4-2.9-2.5-3.1-.1-.2-.4 0-.3.2.7 1.2 1 2.1 1.1 2.9v1.2c-.2 1.3-.3 2.6-.2 3.9.1 1.4.4 2.9 1 4.2-.2-1.2-.1-2.4-.1-3.4.1-2 .4-4 0-6 0-.1 0-.2-.1-.3 0 .1.1.2.1.3.5 2.2.2 4.4.3 6.7.1 1.3.1 2.6.6 3.8.1.3.3.5.5.7-.6-1.7-.2-3.1-.1-4.5.1-1.3.4-2.7.4-4zm41 43.7c.8-1.4 2.2-2.9 1.1-4.4-.7-1-1.7-1.4-2.7-1.1-1.1.3-2 1.1-2.2 2.2-.1.6.1 1.2.4 1.8.2.3.5.7.8 1 .6.5 1.4.7 1.7 1.6 0 0-.1.2 0 .2 1.1-1.6.9-3.5.4-4.2 1.1.2 1 1.6.7 2.4 0 .2-.1.4-.2.5zm64.6-11.4c-.1 0-.2.1-.2.2.7 1.4.2 2.5 2.7 3.8-.1-1 .7-1.8 1.8-1.9-.5-2.2-2.7-2-4.3-2.1zm2.8 4.3c1.4-.5 3-.4 5 .1-.5-.4-2.3-1.2-3.2-2.2-1.1.3-2.4 1.4-1.8 2.1zm11.1 22.1c.2-2.2.3-5.6-2.4-7.8-.2-.1-.4 0-.3.1.4 1.8-.1 3.4-.6 4.4-.6 1.2-1 2.6-.7 4 .6 2.4 1.7 4.1 4 6.1-1-1.4-1.7-3.1-1.8-4.7-.1-2.7 1.3-5.8-.1-8.3 1.7 2.6 0 5.7.6 8.5.3 1.3.8 2.5 1.5 3.6.2.2.3.5.5.7-1.3-2.7-.8-5.3-.7-6.6zM78 95.1c-1.3-.1-2.3-.8-3.6-1.2-.7-.2-1.5-.1-2.2.2-1.6.6-2.8 1.9-4.3 2.6 1.9-1.9 4.7-3.7 7.2-4.6.7-.3 1.5-.5 2.3-.6-.1-.1-.2-.2-.3-.2-.6.1-1.3.3-1.9.5-.6.2-1.2.5-1.8.8 1-.9 1.8-1.8 2.5-3 .1-.2-.2-.4-.3-.2-1.4 2.5-3.7 4-6.1 5.6-1.1.8-2.2 1.7-3 2.8.1-.2.1-.4.2-.6.1-.1.2-.2.2-.3.3-.4.6-.9.9-1.3l.6-.9h.2c.4 0 .8-.3.8-.8s-.3-.9-.7-.9c-.4 0-.8.3-.8.8 0 .3.2.6.5.7-.1.1-.1.2-.2.3-.2.4-.5.7-.7 1.1l-.6.9c.2-.7.3-1.5.4-2.2V93c0-.6-.2-1.3.3-1.8.4-.4 1-.6 1.3-1.1.7-.8-.1-1.9.1-2.8 0-.2-.2-.3-.3-.1-.3.7-1.1 1.1-1.4 1.8-.2.4-.3.8-.3 1.2-.2-.9-.6-2-1.3-2.6-.2-.1-.4.1-.2.3 1 .7 1.2 2.1 1.4 3.2V91.4c-.3-.5-.5-1-.9-1.5-.6-.6-1.4-.8-2.1-1.1-.2-.1-.3.1-.2.3.7.7.7 1.7 1.5 2.3.4.3.9.4 1.3.6 1.2.6.7 2.6.6 3.6-.1.4-.2 1-.5 1.6 0-.8-.3-1.6-.8-2.2-.4-.5-.8-.8-1.4-1.1-.5-.2-1-.3-1.5-.4 0-.4-.3-.7-.7-.7-.4 0-.7.3-.7.7 0 .4.3.7.7.7.3 0 .6-.2.7-.5 1 .2 1.9.5 2.6 1.3.6.7.9 1.6.9 2.4 0-.4-.1-.7-.3-1-.3-.5-.9-.9-1.5-1.2-1-.4-2-.2-2.8.5-.1-.1-.3-.1-.5-.1-.5 0-.9.4-.9.9s.4.9.9.9.9-.4.9-.9c0-.3-.1-.5-.3-.7.7-.6 1.6-.8 2.5-.5.6.2 1.1.6 1.4 1 .4.5.4.9.3 1.5-.4.8-.7 2.1-1 2.1h.5c.1 0 .3-.6.4-.9.2-.4.6-.7.9-1.1.5-.6.7-.8 1.4-.9.8-.2 1.6-.2 2.4-.1 1 .1 1.9.4 2.9.5 1.9.1 3.1-1.2 4.6-2.1 0 0 0-.2-.2-.2zm-5.3.6c-.6 0-1.2.2-1.8.4-.2.1-1.7.6-1.8.5 0 0 1.3-.8 1.4-.8.7-.3 1.3-.5 2-.6 1.5-.1 2.9.5 4.4.4-1.4.5-2.8.1-4.2.1zm-5-16.7c.8-2.8-1.5-6-1.6-6.3-.1-.2-.4-.1-.3.1.6 2.1.4 3.2-.1 4.2-.5 1.2-1 2.4-1.3 3.7-.3 1.3-.4 2.9-.2 4.3.2-1.2.6-2.3.8-3.3.7-2 1.5-3.9 1.6-6.1 0 2.4-.9 4.5-1.5 6.9-.3 1.2-.6 2.6-.4 3.9 0 .3.1.6.3.8-.1-1.8.6-3.1 1.1-4.4.6-1.2 1.2-2.4 1.6-3.8zm61.9-30.7c0 .5.4.8.8.8h.2v-1.6h-.2c-.4-.1-.8.3-.8.8zm-9.5 1.2c.2-1.6.5-2.9 1.6-4.2 1.1-1.3 4.4-1.8 6.5-1.9-2.3-1.4-6.3-.6-8.1 1.5-1.9 2-2.3 4.9-2.7 7.5.2-2.7.6-5.6 2.5-7.8 1.3-1.6 3.4-2.4 5.5-2.4-2.1-.6-4.1-1.2-6.4-.4-1.4.5-2.7 1.2-3.8 2.1-1.1.9-2 2-3.1 2.9 1-.8 1.8-1.8 2.8-2.8 1.1-1.1 2.4-1.8 3.8-2.5 2.5-1 4.8-.5 7.2.1-3.4-1.9-6.5-1.9-9.4-1-1.6.5-3.2 1.7-4.3 2.9-1.4 1.4-1.9 3.5-2.2 5.4 0 .1.1.2.2.2 1.7-.7 3.5-.6 5-1.8.6-.5 1-1.2 1.5-1.8.5-.7 1.1-1.2 1.8-1.6-.7.7-1.3 1.6-1.8 2.4-1.1 1.8-1.8 3.9-2.1 6-.3 2 .2 4 .8 5.9.1.2.3.1.3 0 .1-1.1.4-1.9 1-2.8.6-.7 1.3-1.4 1.9-2.1 1-.9 1.3-2.4 1.5-3.8zm5.3 3.4c.1 1.5-.1 2.7-.3 3.4 0 .1 0 .2-.1.2-.3-.2-.7-.4-.9-.5-1-.4-1.8-.3-2.8.1-.1.1-.1.2 0 .3.8.4 1.2 1.2 2 1.5.3.1.8-.1 1.1-.3-.3.4-.7.6-1.2.7-.3.1-.5.1-.8 0-.2 0-.4-.1-.5-.1V58c0-.3-.3-.6-.6-.6s-.6.3-.6.6.3.6.6.6c.2 0 .4-.1.5-.3.1.1.3.1.5.1h.9c.4-.1.8-.2 1.1-.5-.5.7-1.3 1.3-2.2 1.7-1.3.5-2.9.4-3.9-.7-.6-.6-.5-1.7.2-2.2.2-.2.5-.2.7-.2.3 0 .5.2.6.4.3.7-.2.8-.3.7 0-.3-.3-.3-.3-.1-.1.4.4.6.7.2.4-.6.2-1.3-.5-1.5-.7-.2-1.4.4-1.6.9-.4.9 0 1.8.8 2.4 1.7 1.3 4.2.6 5.6-.8-.2.3-.3.6-.5.9-.2.4-.3.8-.3 1.1h-.1c-.4 0-.7.3-.7.7 0 .4.3.7.7.7.4 0 .7-.3.7-.7 0-.3-.2-.5-.4-.6.1-.4.2-.7.3-1.1.2-.4.4-.9.7-1.3l.3 1.2c0 .5 0 1-.4 1.3-.2.1-.1.6.3.2.7-.5 1.5-.8 1.7-1.7.1-.3 0-.7-.2-1-.3-.5-.8-.8-.8-1.5 0-.5.3-1.1.3-1.6 0-.3.1-.6.1-.9.3.5.9.8 1.8.5.4-.2 1-.7.8-1.3-.1-.3-.6-.7-1-.5-.7.3-.3 1.5.6.8 0 0 .1-.1.1-.2.3.5-.6.9-.9 1-.6.2-1-.4-1.2-.9 0-.1-.1-.6-.1-.9.1-.7.5-1.3 1.1-1.7.9-.6 2.2-.5 3.2-.3.3.1.1.2 1.1.3V51c-1-.3-1.5-.4-2.2-.4-1.7 0-3.7.8-3.7 2.3zM21.5 68.2l.6-.6c.8-1.1 1.5-2.1 1.9-3.4.8-2.7-.5-6 1.4-8.4-1.7 2.3-.7 5.6-1 8.2-.2 1.6-1.1 3.2-2.3 4.5 2.5-1.7 3.8-3.3 4.7-5.6.5-1.3.2-2.8-.3-4.1-.4-1-.8-2.7-.2-4.4.1-.2-.1-.3-.3-.2-2.9 1.9-3.2 5.3-3.2 7.5 0 1.4.2 4-1.3 6.5zm-3.8 26.5c-.5.6-1.1 1.2-1.8 1.7 0 .1.1.1.1.2.7-.6 1.6-.9 2.5-1.1-.8.2-1.5.5-2 1 1.6-.6 3.2-.9 4.9-.7-1.7 0-3.3.4-4.9 1 .9 0 1.6 0 2.6.3-1.1-.2-1.8-.1-2.9 0v.1c.2.1.4.1.5.2.5.2 2.2.9 3 .8 1.7-.3 2.2-1.7 3.3-2.6-.6-.1-1.2-.4-1.7-.8-1.1-.8-2.3-1.1-3.6-.1zm10.5-14.1c-.1-.1-.1-.2-.2-.3-2.3-.2-4.5.1-6.6 1 .5-.6 1.1-.9 1.8-1.1.7-.2 1.4-.3 1.8-.8.7-.8.3-2.2.2-3.1 0-.1-.1-.1-.2 0-.1.6-.8.9-1.3 1.1-.5.3-1 .6-1.4 1.1-.2.2-.3.5-.4.7-.2.4-.3.8-.5 1.1-.1.3-.2.6-.5.9-.2.2-.5.4-.8.6-1.9 1-3.7 2.4-4.8 4.2.2-.8.3-1.7.3-2.5.5 0 .8-.6.9-1 .2-.5.3-2.6 1.2-2.1.1 0 .2-.1.1-.1-.3-.3-.8-.2-1.2-.1-.4.2-.7.4-.9.8.1-.6.3-1.3.5-1.9.2-.6.7-1.3 1.3-1.6.1.1.2.3.4.3s.4-.2.4-.4-.2-.4-.4-.4-.4.2-.4.4c-1.3.4-1.7 2.2-1.9 3.5v-1.7c0-.6 0-1.3.1-1.9.1-1 .4-1.9.7-2.8h.1c.5-.6 1.5-.3 2.2-.6.9-.4 1.2-1.4 2.1-1.8.2-.1.1-.3-.1-.3-.8.1-1.6 0-2.3.4-.5.3-.9.7-1.3 1.1v-.2-.1c.5-1 1.1-2.3 2.3-2.7.2-.1.1-.4-.2-.3-.9.3-1.5 1.2-2 2.1.1-.4.1-.8 0-1.3-.1-.8-.8-1.3-.9-2.1 0-.2-.3-.2-.3 0-.1.9-1.1 1.7-.7 2.7.3.7 1.2 1.2 1.1 2.1v.1c-.4.8-.7 1.6-.9 2.5-.2 1.1-.3 2.2-.3 3.3-.5-1.3-1.2-2.4-2.1-3.5-.3-.4-.6-.8-1-1.2-1.4-1.8-2.7-3.6-3.3-5.9 0-.2-.4-.2-.3.1.6 2.5 2 4.5 3.6 6.4l.1.1c.9 1.1 1.8 2.1 2.3 3.4.2.5.4 1.1.5 1.7-.1-.2-.2-.5-.3-.7-.1-.2-.3-.4-.5-.6-.1-.1-.3-.2-.4-.3v-.2c0-.2-.2-.4-.4-.4s-.4.2-.4.4.2.4.4.4c.1 0 .2 0 .3-.1 0 0 .1.1.2.1.3.1.5.6.7.8.3.4.4.8.5 1.3-.4-.5-1.1-.8-1.7-.4-.1 0-.1.1 0 .1 0 0 .1.1.1 0 .9.2.5 1.5.8 2.2.2.4.5.5.9.6-.1 1.5-.4 3-.8 4.3v.1c-.3 1-.7 1.8-1 2.5-.1.2.2.3.3.1.5-.8 1.1-2.1 1.4-3.5 1.1-2.3 3.2-3.9 5.4-5l.6-.3c.9 1.3 2.4 2.6 3.9 1.4.1 0 0-.1 0-.1-.8 0-1.1-.7-1.7-1.1-.3-.2-.6-.3-.9-.4h-.8c2.1-1.1 4.3-1.3 6.6-1.1zm90-67.6c-.5-.4-2.3-1.2-3.2-2.2-1.1.2-2.4 1.4-1.8 2.1 1.4-.5 3.1-.4 5 .1zM49.8 53.3c-1.1.6-2.5.8-3.5 1.7-.5.4-.9.9-1.1 1.5-.3.9-.4 1.8-.9 2.5-.1.1 0 .3.2.3 1.3-.1 3.1-.2 4-1.3.9-1.2.6-2.6 1.1-3.9.5-.6 1.1-1 1.8-1.1 1.6.6 3.1 1.6 4 3.1.1.2.4 0 .3-.1-.3-.5-.6-.9-.9-1.3-.3-.4-.8-.6-1.1-.9-.3-.3-.7-.6-1-1-.3-.4-.5-.9-.5-1.4 1.1 0 2.2.3 3.1-.2.1 1.2.1 2.3.4 3.5.4 1.5 1.8 2.8 3.2 3.5h.1c.1-1.3-1.2-2.9-2.1-3.7.8.5 1.8 1.3 2.3 2.2-.1-.6-.4-1.2-.7-1.7-.1-.2-2.2-2.7-2.1-2.7 0 0 2 2 2.4 2.5.5.8.9 1.5 1.1 2.4.2-1 0-1.9-.2-3 .5 1.3.9 2.4.7 3.8.1 0 .1 0 .2.1 0-1 .5-2 .3-3-.1-1-.6-2-1.2-2.7-1-1-2.7-1.2-4-1.5.1 0 .1-.1.2-.2 1-1.1 1.2-2.6 1.8-3.9.1-.1-.1-.2-.2-.2-1.8.2-4-.4-5.2 1.3-.8 1.2-.9 2.8-.5 4.1.1.4.3.8.5 1.1-.1-.2-.6-.3-.8-.3-.3-.1-.7-.2-1-.3-.4-.2-.7-.6-.9-1 1.3-.7 1.6-2.2 1.5-3.5-.1-.8-.2-1.6-.5-2.4-.5-1.1-1.3-1.8-1.5-3.1 0-.2-.3-.2-.3 0-.2 1.1-1 1.8-1.5 2.7-.4.7-.6 1.5-.6 2.3 0 1.6.5 3.5 2.3 3.7.1 0 .1 0 .1-.1.3.4.5.8.8 1.1-.8-.2-1.6-.3-2.4-.4-1.2-1-2.8-1.9-4.4-1.8-2 .1-3.7 1.2-5.6 1.7-.2 0-.2.3 0 .3 1.5.8 3.1 2.1 5 2 1-.1 1.9-.4 2.9-.8.8-.3 1.6-.6 2.3-1.1.6 0 1.1.1 1.7.2.3 0 .6.1.8.2.1 0 .6.3.7.2-.5.2-.8.3-1.1.6zm-2.4 3.3c-.5.9-1.1 1.7-2.1 2.1.5-.3 1.3-1.3 1.6-2 .5-.8 1-2.5 2-2.6h.1c-.9.3-1.2 1.7-1.6 2.5zm6.3-7.8c.5-.4 1.2-.5 1.8-.9.3-.1.6-.4.9-.6-.3.3-.6.7-.9.9-.5.3-1.1.5-1.5.8-.6.4-1.5 1-1.7 1.8-.2-.8.7-1.5 1.4-2zM49 50.1c-.5-2.1-.5-4.4-.2-6.6.3 2.2.2 4.5.2 6.6zm-6.3 1.5c-1.1 0-2.4.4-3.4 0 .3 0 1.6-.2 1.7-.2.8-.1 1.6-.2 2.4-.1 1.2.1 2.3.3 3.4.6-1.3-.1-2.7-.3-4.1-.3zm20.7 19.2c-.1-.2-.3-.1-.3.1.1 1.8-.8 3.3-1.4 4.2-.8 1.1-1.5 2.4-1.4 3.8.1 2.5 1 4.4 2.9 6.7-.7-1.5-1.2-3.3-.9-4.9.4-2.6 2.4-5.5 1.4-8.2 1.2 2.9-1 5.6-1 8.5 0 1.3.4 2.6.8 3.8.1.3.3.5.4.8-.8-2.9.2-5.4.5-6.6.6-2.2 1.3-5.5-1-8.2zm66.1-21.4c0-.4-.3-.8-.8-.8s-.7.4-.7.8.3.8.8.8c.4 0 .8-.2.9-.6.4.1.3.3 1.3.6V50c-1-.2-.9-.5-1.3-.6h-.2zM23 55.3c-.2.3-3.3 2.8-3.3 5.6 0 1.4.2 2.7.3 4.1.1 1.4.5 2.9-.2 4.5.2-.2.4-.5.5-.7.5-1.2.6-2.5.7-3.8.2-2.4-.2-4.7.5-7-.5 2.1-.2 4.2-.1 6.3 0 1 0 2.2-.1 3.4.6-1.3 1-2.8 1-4.2.1-1.3 0-2.6-.2-3.9-.1-1.2 0-2.2 1.1-4.1.2-.2-.1-.4-.2-.2zm90-42.8c-.1-1 .7-1.8 1.8-1.9-.5-2.1-2.6-2-4.3-2.1-.1 0-.2.1-.2.2.7 1.4.2 2.5 2.7 3.8zm15.5 21.6c0-.9-.3-1.8-.7-2.6-.9-1.7-2.4-2.9-2.5-3.1-.1-.2-.4 0-.3.2.7 1.2 1 2.1 1.1 2.9v1.2c-.2 1.3-.3 2.6-.2 3.9.1 1.4.4 2.9 1 4.2-.2-1.2-.1-2.4-.1-3.4.1-2 .4-4 0-6 0-.1 0-.2-.1-.3 0 .1.1.2.1.3.5 2.2.2 4.4.3 6.7.1 1.3.1 2.6.6 3.8.1.3.3.5.5.7-.6-1.7-.2-3.1-.1-4.5.1-1.3.4-2.7.4-4zm-2.7 27.6c-.6.3-1.2.6-1.8.6 1.1 1 1.4 2.5 3.1 2.9.8.2 2.7-.4 3.2-.4.2 0-.3-.1.7-.1v-.1c-1-.3-1.9-.4-3-.3 1-.2 1.6-.2 2.5 0-1.5-.8-3.1-1.4-4.8-1.5 1.7 0 3.3.5 4.8 1.2-.5-.6-1-.9-1.8-1.2.8.2 1.2.5 2.2 1v-.3c-1-.4-1-.9-1.3-1.4-1.1-1.3-2.5-1.1-3.8-.4zm3.8 14.5c.3 1 .4 2.4 1.4 3.6v-1.4c-1-.6-.5-1.4-.6-1.5-.2-.3-.7-.7-.8-.7zm.8-57.4c-.2-.4-.7-.8-1.1-1.1-1.1-.9-2.9-.9-4.1-.2-.2.1 0 .4.1.3.4-.2 1-.4 1.4-.5.4-.1.9-.1 1.3 0 .7.2 1.5.7 2 1.2s0 .9 1 2.4v-1.7c0-.2-.3-.4-.5-.5 0 .1-.1.1-.1.1zM129.6.9l-.1-.1c0-.1-.1-.2-.1-.2V.5h-.5c.1.2.3.4.4.6.1.2.4 0 .3-.2zm-2 7c-.3 1-.4 1.9-.8 2.9 1.4 0 2.2.4 4.2-.3V9.2c-1 .2-.7.3-1 .6.3-.3 0-.6 1-.9V7.8c-1 .1-.5.2-.6.3-.4.3-.9.6-1.3 1-.1.1-.8.5-.8.5 0-.1.7-.5.9-.7l1.3-1.3c.1-.1-.4-.2.6-.4v-.5c-1 .3-1.3.8-1.8 1.1.6-.4.8-1.1 1.8-1.5v-.8c-1 .1-1.7.2-2 .4-.8.4-1.2 1.3-1.5 2zm1.9 10.4c.4 1.1.5 2.8 1.5 4.1V21c-1-.4-.6-1.9-.7-2-.2-.3-.7-.7-.8-.7zm-13.9-9.2c.8 1.3 1.6 2.5 2.9 3.4.8.6 1.7.6 2.7.6-.9-.5-2.1-1.4-2.3-1.6-1-.9-1.8-1.8-2.6-2.8 1.1 1.2 3.9 4 6.5 4.6-.1 0-6.2-.4-8.4 0-2.6.4-3.7 2.6-5.1 4.5-.1.1 0 .2.1.2 1.8 0 3.3.7 4.9-.3 1.1-.7 1.9-1.7 3-2.4.6-.4 1.9-.9 2.6-1.2-1.1-.2-2.8.3-3.9.7-1.7.7-3.2 1.6-4.9 2.3 1.7-.9 2.8-2.2 5-2.9 2.8-.8 6.3-.6 6.9-.6.8 0 1.7.2 2.4.5-.3 0-.6-.1-.9 0-.7.2-1.3.9-2 .9-.1 0-.3.2-.1.3.6.3 1.3.7 2 .5.7-.2 1.3-1 2-1 .5-.1 1 .5 1.3.8.6.5.8 1 1.2 1.7.2.1.7.4.8.5-.1-.2-.4-.7-.5-.9-1-1.6-2.5-2.8-4.3-3.4 0 0-2.4-1-3.1-2.2-.7-1-1.4-2.2-1.7-3.4.4 1.1 1.2 2.3 1.9 3.2.5.6 1 1.1 1.7 1.4-.2-.3-.3-.5-.4-.8-.5-.9-.7-1.9-1-2.9-.4-1.3-1.2-2.5-2.5-3.1-1.1-.5-1.8 0-1.5 1.2.3 1.3 1 2.6 1.8 3.6.4.6 1 1 1.6 1.4.4.3 1.1.9 1.5 1-.9-.1-1.9-.8-2.6-1.4-.9-.7-1.5-1.6-2.3-2.3-.5-.5-1-1-1.6-1.4-.7-.4-1.4-.7-2-1.1-.1-.1-.3.1-.2.2.3.8.7 1.5 1.1 2.2zM32.7 91.5c-1.6-.5-3.2-.2-4.7.5-.8-.2-1.6-.3-2.4-.4.4-.2.8-.6 1.1-.8l.1.1c1.8.3 2.9-1.3 3.3-2.8.2-.8.2-1.6.1-2.4-.2-1-.7-1.9-.6-3 0-.2-.2-.3-.3-.1-.5 1.1-1.6 1.6-2.4 2.5-.5.6-.9 1.4-1.2 2.1-.5 1.2-.6 2.8.4 3.8-.4.3-.8.6-1.2.7-.3.1-.7 0-1.1 0-.2 0-.7 0-.8.1.3-.2.6-.6.8-.9.8-1.1 1.1-2.7.7-4.1-.6-2-2.9-2.1-4.5-2.8-.1 0-.3 0-.2.2.2 1.4-.1 2.9.6 4.3.6 1.4 2.1 1.4 3.4 1.8-.2.5-.5.9-.9 1.2-.4.3-.8.4-1.2.6-.4.2-.9.3-1.3.6-.5.3-.9.6-1.3.9-.2.2.1.4.3.2 1.3-1.2 3-1.7 4.7-1.8.6.3 1.1.9 1.4 1.6.1 1.4-.6 2.7-.1 4.1.5 1.3 2.2 2 3.4 2.4.1.1.3-.1.2-.2-.3-.9-.1-1.8-.1-2.7 0-.6-.2-1.2-.6-1.8-.7-1.1-2-1.7-2.9-2.6h-.1c-.2-.3-.4-.5-.7-.7.1.1.6 0 .7 0 .3 0 .6 0 .8.1.6.1 1.1.2 1.7.3.5.7 1.2 1.2 1.9 1.7.8.6 1.6 1.2 2.5 1.6 1.7.7 3.6-.2 5.3-.5.2 0 .2-.2.1-.3-1.7-1.3-3-2.8-4.9-3.5zm-3.6-7.8c-.3 2.1-1 4.4-2.2 6.2.6-2.1 1.3-4.2 2.2-6.2zm-6.5 3.7l-1.2-1.2c-.3-.4-.4-.8-.6-1.2.2.2.4.6.7.8.5.5 1.1.8 1.5 1.4.5.6 1.1 1.6.8 2.4-.1-.7-.7-1.6-1.2-2.2zm3.2 6.3c1 .4 1 2.2 1.2 3.1.1.8.6 1.9.9 2.4-.8-.7-1.1-1.6-1.3-2.6-.2-.9 0-2.4-.8-2.9zm6.7-.6c-1.3-.4-2.7-.6-4-.9 1.2 0 2.3.2 3.4.4.8.2 1.5.5 2.3.8.1 0 1.3.7 1.5.7-1.1.1-2.2-.7-3.2-1zm4.4-.9v-.5c.6-1.3 1.8-2.1 2-3.5.2-1.4-1-2.8-1.8-3.8-.1-.1-.3-.1-.3.1-.2.9-.8 1.6-1.2 2.4-.3.6-.4 1.2-.3 1.8 0 1.2.3 2.7 1.6 3.5zm0-4.3c.3-.7.4-2 .3-2.5.4 1 .2 2-.1 3-.3.9-1.1 2.1-.6 3l-.1-.1c-.6-.9.3-2.5.5-3.4zM125 31.5c-.4-1.5-1.1-3.1-2.8-4.2-.2-.1-.4 0-.3.2.5 1.6.2 3.1-.1 4.1 0 .1-.1.2-.1.3-.5 1.3-.8 2.7-.3 4.1.8 2.3 2.1 4 4.6 5.7-1.1-1.3-2-2.9-2.2-4.5-.2-1.7.2-3.8 0-5.6-.1-1-.3-1.9-.9-2.7.6.8.9 1.7 1 2.7.2 1.9-.2 3.9.3 5.8.4 1.3 1.1 2.4 1.8 3.5l.6.6c-1.5-2.6-1.3-5.2-1.3-6.5 0-1.2 0-2.3-.3-3.5zM49 73c.9-1.4-.5-2.5-1.7-1.7.5-1.5-2.1-2.7-2.9-.9-1-1.6-2.9-.3-2.7 1.3-1.3-.6-2.9 1.5-1.2 2.4-.6.3-1.1.8-.9 1.5.5 1.7 2.4.7 2-.1.1-1.5.5-2.9 2-3.5 2-.9 4.4.7 4.3 2.9 1.5 1.6 3-1.7 1.1-1.9zm15.8 15c-1.8-2-5.9-2.3-8.3-.7-2.4 1.4-3.6 4.1-4.6 6.6 1-2.5 2.1-5.3 4.4-6.8 1.7-1.2 3.9-1.4 5.9-.8-1.8-1.2-3.7-2.2-6-2.1-1.5.1-2.9.4-4.3 1-1.3.6-2.4 1.4-3.8 1.9 1.2-.5 2.3-1.3 3.4-1.9 1.4-.8 2.8-1.1 4.4-1.4 2.7-.3 4.8.8 6.9 2.1-2.8-2.7-5.8-3.5-8.8-3.5-1.7 0-3.5.8-5 1.7-1.7 1-2.8 2.8-3.6 4.6-.1.1 0 .3.2.2 1.8-.3 3.6.4 5.3-.3.7-.3 1.3-.9 1.9-1.3.7-.5 1.4-.9 2.2-1-.9.5-1.7 1.2-2.3 1.9-1.5 1.5-2.8 3.3-3.7 5.2-.8 1.9-.9 3.9-.8 5.9 0 .2.3.2.3.1.4-1 .9-1.8 1.8-2.4.8-.6 1.6-1 2.4-1.5 1.2-.9 1.9-2.2 2.5-3.5.6-1.5 1.3-2.7 2.6-3.6 1.7-1.3 5-.9 7-.4zm65.7-11.3c-.2-.4-.7-.8-1.1-1.1-1.1-.9-2.9-.9-4.1-.2-.2.1 0 .4.1.3.4-.2 1-.4 1.4-.5.4-.1.9-.1 1.3 0 .7.2 1.5.7 2 1.2.4.4-.1.7.9 1.6v-1.1c0-.1-.3-.2-.3-.2h-.2zm-99.2-3.9c.5.6.9 1.3 1.5 1.8 1.5 1.2 3.3 1.1 5 1.8.1.1.3-.1.2-.2-.3-1.9-.8-3.9-2.1-5.4-1.2-1.3-2.7-2.5-4.3-3-2.9-.9-6-1-9.4.9 2.4-.6 4.7-1.1 7.2 0 1.4.6 2.7 1.4 3.8 2.5.9 1 1.7 2 2.7 2.8-1.2-.9-2-2-3.1-2.9-1.1-1-2.4-1.7-3.8-2.2-2.2-.8-4.3-.3-6.4.3 2.1 0 4.2.8 5.4 2.4 1.8 2.2 2.1 5.1 2.3 7.8-.3-2.6-.7-5.5-2.6-7.6-1.8-2.2-5.8-3-8.1-1.6 2.1.1 5.4.6 6.5 2 1 1.3 1.3 2.6 1.5 4.2.2 1.4.5 2.9 1.4 4.1.6.7 1.3 1.4 1.8 2.1.6.8.9 1.8 1 2.8 0 .2.3.2.3 0 .7-1.9 1.2-3.9.9-5.9-.3-2.1-1-4.2-2.1-6-.5-.8-1-1.7-1.7-2.4 1 .5 1.6 1.1 2.1 1.7zm57.9 7.7h.8c.6.1 1.1.2 1.7.3.5.7 1.3 1.1 1.9 1.6.8.6 1.6 1.1 2.6 1.5 1.8.6 3.6-.3 5.3-.7.2 0 .2-.2.1-.3-1.7-.9-3-2.4-5-3-1.6-.5-3.3 0-4.7.7l-2.4-.3c.4-.3.7-.6 1.1-.9l.1.1c1.8.3 2.8-1.4 3.2-3 .2-.8.2-1.6 0-2.4-.3-1-.8-1.9-.8-3 0-.2-.2-.3-.3-.1-.5 1.1-1.5 1.7-2.2 2.6-.5.6-.9 1.4-1.1 2.2-.4 1.2-.5 2.8.5 3.8-.4.3-.8.6-1.2.7-.3.1-.7 0-1.1.1-.2 0-.7 0-.8.1.3-.2.6-.6.8-.9.7-1.2 1-2.8.5-4.1-.7-2-3-2-4.7-2.6-.1 0-.3 0-.2.2.3 1.4.1 2.9.8 4.3.7 1.4 2.2 1.3 3.5 1.6-.1.5-.4.9-.8 1.2-.4.3-.8.4-1.2.7-.4.2-.9.4-1.3.6-.4.3-.8.6-1.2 1-.2.2.1.4.3.2 1.3-1.3 2.9-1.9 4.6-2 .7.3 1.2.9 1.5 1.5.2 1.4-.5 2.7.1 4.1.5 1.3 2.3 1.9 3.5 2.3.1.1.3-.1.2-.2-.3-.9-.2-1.8-.2-2.7 0-.6-.3-1.2-.7-1.8-.7-1.1-2-1.6-3-2.5h-.1c-.2-.3-.4-.5-.7-.7 0-.1.5-.2.6-.2zm6.7.4c.8.1 1.6.4 2.3.7.1 0 1.3.6 1.6.7-1.1.1-2.2-.7-3.3-.9-1.4-.3-2.7-.5-4.1-.8 1.2 0 2.3.1 3.5.3zm-3.3-8.8c-.2 2.1-.8 4.4-1.9 6.3.6-2.1 1.1-4.2 1.9-6.3zm-6.3 4.1c-.4-.4-.9-.8-1.3-1.2-.3-.3-.4-.7-.7-1.1.3.2.4.6.7.8.5.4 1.1.8 1.5 1.3.5.6 1.2 1.5.9 2.3.1-.8-.6-1.6-1.1-2.1zm3.5 6.1c1 .3 1.1 2.1 1.3 3 .1.8.7 1.9 1 2.3-.9-.6-1.2-1.6-1.5-2.6-.1-.8 0-2.3-.8-2.7zm9.8-80.1c.6.3 1.2.4 1.8.3.4-.1.8-.2 1.2-.4.7-.4 1.2-1.1 2.1-1l.2-.1c-.2-.3-.5.1-.7-.9h-5.9c.2.9.6 1.7 1.3 2.1zM75.1 47.1c-1.3-2.4-4.7-2.9-5.3-5.8 0-.2-.3-.2-.4 0-.2 1.2 0 2.3.3 3.4.6 1.9 1.7 3.6 2.6 5.4.4.9.8 1.8 1 2.8.1.3.1.8.2 1.3.4-1.2.6-2.5.4-3.8-.3-1.8-1.1-3.3-2.2-4.8 1.2 1.4 2.1 2.9 2.5 4.7.4 1.8-.4 5.2-.4 5.2 2.5-3.6 2.2-6.8 1.3-8.4zm17-41.2C91.7 7 90.7 7.6 90 8.6c-.5.7-.8 1.4-1 2.2-.3 1.3-.3 2.9.8 3.7-.3.3-.7.7-1.1.8-.3.1-.7.1-1.1.1-.2 0-.7.1-.8.2.3-.3.5-.6.7-1 .7-1.2.8-2.8.3-4.1-.8-2-3.1-1.8-4.8-2.3-.1 0-.3.1-.2.2.4 1.4.3 2.9 1 4.2.8 1.3 2.2 1.2 3.6 1.4-.1.5-.4.9-.7 1.3-.3.3-.8.5-1.2.7-.4.3-.9.4-1.2.7-.4.3-.8.7-1.1 1.1-.1.2.1.4.3.2 1.2-1.4 2.8-2.1 4.5-2.3.7.2 1.2.8 1.5 1.4.3 1.4-.3 2.7.4 4 .6 1.3 2.4 1.7 3.6 2 .1 0 .3-.1.2-.2-.4-.8-.3-1.7-.4-2.6-.1-.6-.4-1.2-.8-1.7-.8-1-2.1-1.5-3.1-2.3h-.1c-.2-.3-.5-.5-.8-.7.1.1.6-.1.7-.1h.8c.6 0 1.1.1 1.7.1.6.6 1.3 1 2 1.5.8.5 1.7 1 2.7 1.3 1.8.5 3.6-.6 5.3-1.1.2 0 .2-.3 0-.3-1.8-.8-3.2-2.2-5.2-2.7-1.6-.4-3.3.2-4.7 1-.8-.1-1.6-.1-2.4-.1.4-.3.7-.6 1-.9l.1.1c1.9.1 2.7-1.6 3-3.2.1-.8.1-1.6-.2-2.4-.3-1-.9-1.8-1-2.9.1-.1-.1-.2-.2 0zm-6 5.6c-.4-.4-.9-.7-1.4-1.1-.3-.3-.5-.7-.7-1.1.3.2.5.6.7.8.5.4 1.1.7 1.6 1.2s1.3 1.5 1.1 2.3c-.1-.8-.8-1.6-1.3-2.1zm3.8 5.9c1.1.3 1.2 2.1 1.5 2.9.2.8.8 1.9 1.2 2.3-.9-.6-1.3-1.5-1.6-2.5-.2-.8-.2-2.3-1.1-2.7 0-.1 0 0 0 0zm6-1.8c.8.1 1.6.3 2.4.6.1 0 1.4.5 1.6.6-1.1.1-2.3-.5-3.3-.7-1.4-.2-2.8-.3-4.1-.5 1.1-.1 2.2-.1 3.4 0zm-5.3-2.1c.4-2.1.8-4.3 1.5-6.4-.1 2.1-.6 4.4-1.5 6.4zM76.3 54.1c2.4-1.3 4.1-3.4 4.3-4 1.1-3.1-.8-5.9-1.1-8.9 0-.2-.3-.2-.3-.1-1.2 1.9-1.9 3.9-2.3 6.1-.4 2.1-.1 4.8-1.4 6.6-.2.3-.9 1.2-.9 1.2 1.1-1 2.2-2.1 2.9-3.5.8-1.6 1.1-3.2 1.3-5 0 1.8-.3 3.4-1 5.1-.3 1-.9 1.8-1.5 2.5zm28.1-47c.5.4 1.1.7 1.7.8.9.2 1.8.1 2.6.5.1.1.3-.1.2-.2-.3-1.2-.7-3-2-3.7-1.3-.7-2.8-1-4.5-.8 0 0-.4-.3-.8-.8-.1 0-.2.1-.4.1.5.6 1 1.2 1.4 1.9.4.7.7 1.5 1 2.4.2.8.1 1.3 0 2.1-.1.5-.2.9-.3 1.3-.2.9-.6 1.7-.6 2.6-.1 1.5.9 2.9 1.5 4.3.2.3.5 1.2.9 1.3h.1c.4-.1.7-.8.8-1.1.7-1.5 1-3.2.4-4.8-.3-.7-.7-1.4-1.1-2-.2-.3-.4-.7-.6-1-.2-.4-.9-2.7-1.1-3.5.3.1.5.4.8.6zm-.3 2.7c.1 1.4.1 2.8.2 4.1.1 1.1.6 2.3.4 3.4 0-.3-.4-1.5-.4-1.7-.2-.8-.4-1.6-.4-2.4 0-1.1 0-2.3.2-3.4zm-1-5.2s0-.1 0 0c.4.8 1.9.9 2.7 1.2 1 .3 1.9.8 2.4 1.7-.4-.4-1.5-1-2.2-1.2-.9-.5-2.7-.7-2.9-1.7zM1.1 59.7c0 .5 0 1-.4 1.3-.2.1-.1.6.3.2.7-.5 1.5-.8 1.7-1.7.1-.3 0-.7-.2-1-.3-.5-.8-.8-.8-1.5 0-.5.3-1.1.3-1.6 0-.3.1-.6.1-.9.3.5.9.8 1.8.5.4-.2 1-.7.8-1.3-.1-.3-.6-.7-1-.5-.7.3-.3 1.5.6.8 0 0 .1-.1.1-.2.3.5-.6.9-.9 1-.6.2-1-.4-1.2-.9 0-.1-.1-.6-.1-.9.1-.7.5-1.3 1.1-1.7.9-.6 2-.5 3-.3.5.1 1 .3 1.4.6.3.2.9.6 1.1 1 0 .9-.1 1.8-.1 2.7v2c.1.1.2.3.4.4-.2-2-.2-4.3.7-6.1.6-1.2 1.5-2.3 2.4-3.4l.3-.3c.3-.4.7-.8 1-1.2.3-.4.5-.8 1-1 .4-.2.9-.2 1.4-.1.5.1 1 .2 1.5.4.3.1.9.3 1.1.7.3.5-.4 1.1-.5 1.6 0 .6.3 1.2.1 1.9 0 .1.1.2.2.2.8-.2 1.4-1.3 1.3-2.3.4 1.1.3 2.3-.6 3.1-.1-.1-.2-.2-.4-.2-.3 0-.5.2-.5.5s.2.5.5.5.5-.2.5-.5v-.2c.8-.7 1-1.9.7-3 .5 1 .7 2.2.4 3.3-.2.8-.9 1.5-1.5 2-1 .9-2.2.7-3.2-.2-.6-.5-.8-1.2-.8-2 0-.4.1-.8.3-1.1.2-.2.5-.3.8-.3h.2c-.4 0-.7.3-.7.7 0 .7.9 1 1.3.5.5-.5.3-1.2-.4-1.4-.9-.3-1.6.3-1.8 1.2-.4 2.4 2.3 4.3 4.3 2.9 2.1-1.5 2.5-4.2 1.1-6.3.2.1.4.3.6.5.3.2.7.4 1.1.6.5.2 1 .2 1.4 0 .1.1.2.2.4.2.3 0 .5-.2.5-.5s-.2-.5-.5-.5-.5.2-.5.5v.2c-.2.1-.3.1-.5.1-.4 0-.9-.2-1.2-.3-.3-.1-.5-.3-.8-.5-.2-.1-.4-.3-.6-.5.3 0 .5 0 .8-.1.9-.1 1.5-.6 1.8-1.5 0-.1-.1-.2-.2-.2-.6.2-1-.3-1.6-.1-.5.2-.9.8-1.4.9-.5.1-1-.4-1.4-.6-.5-.2-1-.4-1.6-.5-.5-.1-1.2-.1-1.7.1.7-1.1 1.3-2.3 1.6-3.6.1-.2-.3-.3-.3-.1-.3 1.1-.7 2.1-1.3 3.1-.3.5-.6.9-.9 1.4-.1.2-.3.4-.4.6-.1.1-.6.5-.6.7-.4.4-.8.9-1.1 1.3-.7.8-1.3 1.7-1.8 2.6.2-.8.4-1.6.7-2.3h.2c.5 0 .8-.4.8-.8 0-.5-.4-.8-.8-.8-.5 0-.8.4-.8.8 0 .3.2.6.5.8-.4 1-.6 2.1-1 3.2 0-1.1 0-2.1-.3-3.2-.2-.9-.5-1.7-.8-2.5v-.1c-.1-.9.8-1.4 1.1-2.1.4-1-.6-1.8-.7-2.7 0-.2-.3-.2-.3 0-.1.8-.7 1.3-.9 2.1-.1.4 0 .9 0 1.3-.5-.8-1.1-1.8-2-2.1-.2-.1-.4.2-.2.3 1.1.4 1.7 1.7 2.2 2.7V46.3c-.4-.4-.8-.9-1.3-1.2-.7-.4-1.6-.4-2.3-.5-.2 0-.3.2-.1.3.9.4 1.1 1.4 2 1.8.7.3 1.7 0 2.2.6h.1c.3.9.6 1.8.7 2.8 0 .3.1.5.1.8-.1-.2-.1-.3-.2-.5-.3-.6-.6-1.2-.9-1.7.2-.2.3-.4.3-.7 0-.5-.4-.8-.8-.8-.5 0-.8.4-.8.8 0 .5.4.8.8.8.1 0 .3 0 .4-.1.3.5.6 1 .8 1.5.2.4.4.8.5 1.1-.2-.4-.5-.7-.8-1.1-.5-.5-1.1-1-1.9-1.2 0-.4-.3-.8-.8-.8-.4 0-.8.3-.8.8 0 .4.3.8.8.8.4 0 .7-.2.7-.6.7.2 1.2.6 1.7 1.1.4.4.8.9 1 1.4v.1c-.3-.3-.7-.6-.9-.8-.8-.1-1.8-.3-2.7-.4-1.5 0-3.2.7-3.3 2.3.1 1.5-.1 2.7-.3 3.4 0 .1 0 .2-.1.2-.3-.2-.8-.4-1.1-.5 0 0-.3 0-.3-.1v2c1-.1.4-.2.6-.3-.1.2.4.4-.6.5v.2c0-.1.4-.2.5-.3-.1.2-.5.4-.5.5v.5c0-.1.2-.1.2-.2-.1.1-.2.3-.2.4v.3c0-.4.5-.7.7-1 .1.4.4.8.4 1.2zm6.5 25.9c.8-.3 1.3-.9 2-1.3.6.5 1 1 1.6 1.6.4.4.8.8.8 1.2v-.5c0-.2-.1-.3-.2-.5-.6-.8-1.3-1.4-2.1-2 0 0 .1 0 .1-.1.3-.9 1.2-1.3 1.9-1.8.2-.1.3-.2.3-.4v-3.9c0-.6-.7-1.2-1.1-1.6-.1-.1-.2-.1-.2.1 0 2.2-2.1 4.3-1.8 6.4-.2-.4-.3-.8-.3-1.3-.1-.8 0-1.6.1-2.3.1-.7.2-1.5.3-2.2v-.9c.7-.1 1.2-.7 1.2-1.4 0-.8-.6-1.4-1.4-1.4s-1.4.7-1.4 1.5.6 1.4 1.4 1.4c0 .4 0 .7-.1 1.1-.1.8-.3 1.6-.3 2.4-.1 1.2-.2 2.6.5 3.6-.1-.2-.3-.3-.4-.5-.4-.6-.7-1.3-.8-2-.1-.7 0-1.3-.1-2s-.3-1.5-.7-2.1c-.2-.4-.7-.8-1.1-1.1-1.1-.9-2.9-.9-4.1-.2-.2.1 0 .4.1.3.4-.2 1-.4 1.4-.5.4-.1.9-.1 1.3 0 .7.2 1.4.7 1.8 1.2.6.6.7 1 1 2.5-.1-.4-.6-1.9-.7-2-.2-.3-.6-.7-.7-.7.4 1.3 1.1 3.5 1.6 4.8.3.9.7 2 1.3 2.7-.4-.1-.8-.4-1.3-.5-.6-.2-1.2-.3-1.8-.3-1.1-.1-2.2 0-3 .8-.1.1-.1.3.1.3.8 0 1.1.6 1.6 1.1.6.2 1 .6 1.6.7.6.1 1.1 0 1.6-.2zm6.5-12.9c.2-1.2.1-2.3-.3-3.5-.4-1.2-1-1.9-1.5-2.4-.4-.3-.7-.5-.9-.6-.1.2-.1.1-.2.2.5.6.7 1.5 1.1 2.2.2.3.4.5.6.7-.2-.2-.4-.3-.6-.5-.6-.6-.9-1.4-1.5-2.1.1.3.2.7.3.9.2.5.3.9.5 1.4.2.3.4.7.7 1 .3.3.5.7.8 1-.3-.3-.5-.6-.8-.9-.3-.4-.7-.8-.9-1.2-.2-.4-.5-1.4-.9-1.8.2.9.1 1.8.4 2.7-.3-.9-.6-1.7-1-2.6h-.4c-.1.1-.1.1-.1.3 0 .2-.1.4-.1.7 0 .4 0 .7.2 1.1.3.7.8 1.3 1.4 1.8.4.3.9.5 1.4.8.6.1 1.3.4 1.8.8zm49.3-65c.3 1.8-.5 3.4-1 4.3-.7 1.2-1.3 2.5-1.1 3.9.3 2.4 1.4 4.3 3.5 6.4-.9-1.5-1.5-3.2-1.3-4.8.2-2.7 1.9-5.7.6-8.3 1.5 2.7-.5 5.7-.2 8.5.1 1.3.6 2.5 1.2 3.7.1.2.3.5.4.7-1-2.8-.3-5.4-.1-6.7.4-2.2.8-5.5-1.7-8-.1 0-.3.1-.3.3zM36.5 24c-.4 1.3.5 2.9 1.2 4 .1.1.3.1.3 0 .3-.9 1-1.4 1.6-2.2.4-.5.6-1.1.6-1.8v-1c.3.7 1.5 2.8 1.6 3.3.1.4.2.7.3 1.1.2.7.4 1.5.7 2.2.3.7.8 1.3 1.3 1.8.7.6 1.5 1 2.3 1.4.3.1 1 .4 1.4.2l.1-.1c.3-.3-.1-1.2-.2-1.5-.5-1.4-.8-3.1-1.9-4.1-.7-.6-1.5-1-2.3-1.5-.4-.2-.8-.5-1.2-.7-.7-.5-1.1-.7-1.5-1.5-.4-.8-.7-1.5-.9-2.4-.3-.9-.3-1.9-.3-2.9.3 1 .6 2 1.2 2.8.4.5.9.9 1.5 1.2.8.3 1.7.5 2.5 1 .1.1.3 0 .3-.2 0-1.3 0-3.1-1.1-4-1.1-.9-2.6-.8-3.8-1.3-.1-.1-.4-.8-.3-1 .2-1.4.5-2.9 1-4.2.3-.8.7-1.5.9-2.3-.3.9-.3 2-.3 2.9 0 .8.1 1.5.4 2.2.3.7 1 1 1.7 1.3.9.3 1.6.2 2.3-.5.4-.4.8-1.1.4-1.6-.3-.5-.9-.7-1.4-.5-.8.3-.8 1.9.3 1.3.2-.1 0-.3-.1-.3-.4-.1-.5-.2-.3-.5.2-.4.7-.3 1.1-.2.9.5 0 1.5-.5 1.8-.9.7-2.6-.2-3.1-1.1-.4-.8-.4-1.8-.3-2.7 0-.6.1-1.1.2-1.7 0-.2.1-.3.1-.5.2.2.4.4.7.6.7.5.8 1.3 1 2.1 0 .1.2.1.3 0 1-1.8.9-4.3-1.4-4.6.3-.4.5-.8.8-1.1.4-.6.9-1.1 1.3-1.7 0 0 0-.1.1-.1v-.1c0-.1-.1-.3-.3-.1-.9 1-2.1 1.8-3.4 1.4-.8-.2-1-1-.8-1.7.1-.3.3-.6.6-.8.2-.2.5-.2.8 0 .1.2.2.3.4.5 0 .5-.1.7-.5.6 0-.2-.3-.1-.3.1.1.3.3.4.5.3.4-.2.6-.5.5-1-.1-.5-.6-.8-1.1-.8-.5 0-.9.4-1.1.8-.5 1-.1 2.1.9 2.4 1 .4 2.1-.1 2.9-.7-.4.5-.8.9-1.1 1.4-.5.8-1.1 1.5-1.3 2.4-.3.9-.8 1.8-1.1 2.8-.4 1.5-.8 3-.9 4.5-.1 1 0 2.9-.1 2.8-1.9 1.1-2.7 2.4-3.2 3.8zm8.3 4.2c.6.6 1 1.3 1.4 2 0 .1.5.9.7 1.3 0 .1.1.1.1.2l-.2-.2c-.8-.7-1.2-1.8-1.8-2.6-.9-1.1-1.9-2-2.8-3.1 1 .7 1.8 1.5 2.6 2.4zm-2.4-8c.9.5 1.7 1.2 2 2.2-.3-.5-1.2-1.3-1.9-1.7-.8-.5-2.5-1.1-2.5-2.2v-.1c.2 1 1.7 1.4 2.4 1.8zm-3.1 1.1c.6 1-.5 2.4-.9 3.2-.4.7-.7 1.9-.7 2.5-.2-1 .1-2 .6-2.9.3-.8 1.3-1.9 1-2.8zM32.7 8.2c-2.9-.9-6-1-9.4.9 2.4-.6 4.7-1.1 7.2 0 1.4.6 2.7 1.4 3.8 2.5.9 1 1.7 2 2.7 2.8-1.2-.9-2-2-3.1-2.9-1.1-1-2.4-1.7-3.8-2.2-2.1-.8-4.2-.3-6.3.3 2.1 0 4.2.8 5.4 2.4 1.8 2.2 2.1 5.1 2.3 7.8-.3-2.6-.7-5.5-2.6-7.6-1.8-2.2-5.8-3-8.1-1.6 2.1.1 5.4.6 6.5 2 1 1.3 1.3 2.6 1.5 4.2.2 1.4.5 2.9 1.4 4.1.6.7 1.3 1.4 1.8 2.2.6.8.9 1.8 1 2.8 0 .2.3.2.3 0 .7-1.9 1.2-3.9.9-5.9-.3-2.1-1-4.2-2.1-6-.5-.8-1-1.7-1.7-2.4.7.4 1.3.9 1.8 1.6.5.6.9 1.3 1.5 1.8 1.5 1.2 3.3 1.1 5 1.8.1.1.3-.1.2-.2-.3-1.9-.8-3.9-2.1-5.4-.9-1.2-2.5-2.4-4.1-3zm-14.3 4.1c.1-.4.1-.8 0-1.3-.1-.8-.8-1.3-.9-2.1 0-.2-.3-.2-.3 0-.1.9-1.1 1.7-.7 2.7.3.7 1.2 1.2 1.1 2.1v.1c-.4.8-.7 1.6-.9 2.5-.2 1.1-.3 2.2-.3 3.3-.3-.7-.6-1.4-1.1-2.1-.1-1.4-.2-2.7-.3-4.1-.1 0-.2-.1-.3-.1.1 1.3.2 2.5.3 3.8-.2-.3-.5-.6-.7-.9-.7-.9-1.4-1.7-2-2.6-1-1.4-1.8-2.8-2.2-4.5 0-.2-.4-.2-.3.1.5 1.9 1.4 3.6 2.6 5.1l1.2 1.5c.9 1.1 1.8 2.1 2.3 3.4.5 1.1.7 2.5.7 4-.1-.4-.3-.7-.6-1l-.9-.6c0-.1.1-.2.1-.4 0-.5-.4-1-1-1-.5 0-1 .4-1 1 0 .5.4 1 1 1 .4 0 .7-.2.8-.5.3.1.5.3.7.5.4.4.7.9.8 1.4-.1 2.8-.9 5.7-1.9 7.3-.1.2.2.3.3.1 1.1-1.6 2.1-5.2 2-7.9V23v-.1c.1-.3.2-.6.4-.9.3-.6.7-1.2 1.1-1.7.5-.5 1.1-.9 1.8-1.1.5-.1 1-.3 1.5-.3v.1c0 .5.4.9.9.9s.9-.4.9-.9-.4-.9-.9-.9c-.4 0-.7.3-.8.7-.5 0-1.1.1-1.6.3-.7.2-1.4.6-1.9 1.2s-.9 1.3-1.2 2c0 .1-.1.2-.1.3v-.3c.2-1.1.6-2.1 1.2-3 .5-.8 1-1.5 1.7-2.1.2.1.4.2.7.2.6 0 1-.5 1-1 0-.6-.5-1-1-1s-1 .5-1 1c0 .3.1.5.3.7-.6.6-1.2 1.3-1.7 2-.5.8-.9 1.7-1.1 2.6v-1.9c0-.6 0-1.3.1-1.9.1-1 .4-1.9.7-2.8h.1c.5-.6 1.5-.3 2.2-.6.9-.4 1.2-1.4 2.1-1.8.2-.1.1-.3-.1-.3-.8.1-1.6 0-2.3.4-.5.3-.9.7-1.3 1.1v-.2-.1c.5-1 1.1-2.3 2.3-2.7.2-.1.1-.4-.2-.3-1.2 0-1.9.9-2.3 1.7zM28 43.1c2-.9 4.3.8 4.2 3 1.6 1.6 3.1-1.6 1.2-1.9.9-1.4-.5-2.5-1.7-1.7.5-1.5-2-2.8-2.9-.9-1-1.6-2.9-.4-2.7 1.2-1.3-.7-2.9 1.5-1.3 2.4-.7.3-1.1.8-.9 1.5.4 1.7 2.3.7 2-.1.1-1.5.6-2.8 2.1-3.5zm39.7-16.6c-.6-.5-1.5-.6-2.2-.9-.2-.1-.3.2-.2.3.8.6.9 1.6 1.7 2.2.6.4 1.7.3 2 1v.1c.1.8.2 1.6.2 2.4v.6c-.1 1.7-.6 3.3-.9 4.9-.1-.4-.3-.8-.6-1.2 0-.1 0-.1.1-.2.1-.4.2-.9.2-1.2 0-.7-.6-1.2-.5-1.8 0-.2-.3-.2-.3 0 0 .6-.6 1-.6 1.6v.4c-.3-.4-.7-.7-.8-1.2.2-.1.4-.3.4-.5 0-.3-.3-.6-.6-.6s-.6 0-.6.3.3.6.6.6h.1c.2.5.6 1 1 1.4l-.6-.3c-1.3-.5-2.7.3-3.6 1.1-.1.1.1.4.2.2.9-.9 2.1-1.4 3.3-1.1.1 0 .2.1.3.1-.5 0-1 .1-1.4.5-.1 0-.2-.1-.3-.1-.3 0-.5.2-.5.5s.2.5.5.5.5-.2.5-.5c0-.1-.1-.3-.2-.4.5-.4 1.2-.6 1.7-.3-1 .2-1.3 1.2-2.2 1.7-.1.1-.1.3 0 .3.6.1 1.3.2 2 0 .5-.1.8-.5 1.1-1 .3.5.5 1 .6 1.5 0 .2-.1.6-.1.8 0 .3-.1.6-.1.8 0 .4-.1.8-.1 1.2 0 .1 0 .6.2.6.3 0 .3-.4.3-.5 0-.4.2-.6.3-.9.1-.3.2-.6.4-.9v-.1c0-.1.2-.2.2-.2.8.1 1.6 1 2.4.5.5-.3.3-1.3.3-1.8 0-.1-.1-.1-.1 0-.3.6-1.2.4-1.8.5-.1 0-.2.1-.3.1.1-.2.3-.5.4-.7.7-1.2 1.5-2.2 3-2.5 1.4-.3 3 .5 3 2.1 0 .6-.4 1.3-1.4 1.7-.6.2-1-.2-1.3-.7v-.3c.1.1.3.1.4 0 .2-.2.1-.5-.1-.6-.2-.1-.4 0-.5.1-.2.1-.2.3-.2.4 0 .5.3 1.2.9 1.4.3.1.7.1.9 0-.5 1-.8 2.4-.4 3.5.3.9 1.7 1.2 2.4.5.4-.4.9-2-.1-2.1-.6-.1-1 .6-.4.9.1.1.5-.2.2-.4 0 0 .6-.2.5.7 0 .4-.2.7-.5.9-.7.6-1.6-.1-1.8-.9-.2-1 .2-2.4.7-3.2.8-.6 1.3-1.8.9-2.7-.8-1.8-3.2-1.8-4.7-.8-.8.5-1.3 1.4-1.8 2.3l-1.5 2.7v-.2c.1-2 .5-4.2 1.8-5.9.6-.8 1.3-1.5 2.1-2.1.3-.2.6-.5.9-.7 1-.8 1.9-1.5 2.7-2.4.3.2.4.6.7.9.2.2.5.4.9.4.7.1 1.2-.4 1.5-1 0-.1-.1-.2-.1-.1-.6.6-1.5-.3-2.1-.5h-.6c.8-.9 1.5-1.8 2-3 .1-.2-.2-.3-.3-.1-1.2 2.7-3.4 4.3-5.6 6.1-.2.1-.3.3-.5.4-.9.8-1.7 1.6-2.3 2.6.2-.9.3-1.7.3-2.6V31c0-.9-.2-1.7-.4-2.6v-.1c0-.9 1-1.2 1.5-1.8.6-.9-.3-1.8-.2-2.7 0-.2-.3-.3-.3-.1-.2.8-1 1.2-1.3 1.9-.2.4-.2.8-.2 1.3-.3-.9-.7-1.9-1.6-2.4-.2-.1-.4.2-.2.3 1 .6 1.4 2 1.7 3.1V28.2c-.3-.8-.5-1.3-1-1.7zm-1.2-12.9c-.4 1.3-.8 2.5-.9 3.8-.2 1.4-.1 2.9.2 4.3.1-1.2.4-2.4.5-3.3.5-2.1 1.2-4.1 1.1-6.2.2 2.4-.5 4.6-.8 7-.2 1.3-.4 2.6-.1 3.9.1.3.2.6.3.8-.3-1.7.4-3.1.7-4.5.4-1.3.9-2.6 1.1-4 .5-2.8-2-5.9-2.2-6.2-.1-.2-.4 0-.3.2.9 2 .8 3.1.4 4.2zm4.9 36.9c-1.6-2.4-5.1-4.7-3.7-8 .1-.2-.2-.4-.3-.2-.5 1.3-1 2.7-1 4.2 0 1.6.4 3.2 1 4.7 1.2 2.9 3.1 5.4 3.8 8.5.1-1.2 0-2.4-.2-3.5-.4-2.6-1.3-4.8-2.6-7 1.3 1.9 2.3 3.8 2.8 6 .3 1.7.6 3.3.5 5 1.2-3.2 1.6-6.8-.3-9.7zm-53-7c1.4.7 2.6.3 4.1.4-.4-.9-.7-1.9-1-2.9-.2-.7-.5-1.7-1.1-2-.4-.3-2.4-.5-2.9-.6 0 .3.1.3 0 .6 1.1-.1 2 1.3 2.9 1.9-.8-.4-1.9-1.4-2.8-1.3.5.3 1.2.8 1.5 1.1.4.4.7.9 1.1 1.3.1.2.9.6.9.7 0 0-.7-.4-.8-.5-.4-.4-.8-.6-1.2-1-.3-.3-1.2-.7-1.9-1.2.4.6.6.9 1 1.4.4.6 1.1 1 1.5 1.5-.5-.4-1.3-.6-1.7-1.1-.4-.5-.8-.9-1.2-1.5-.3.3-.5.3-1 .3.2 1.2 1.5 2.3 2.6 2.9zm83.4 1.3h-.1c-.4.1-.6 1-.8 1.4-.5 1.4-1.3 2.9-1.1 4.4.1.9.5 1.7.9 2.6.2.4.3.9.5 1.3.2.5.3.9.3 1.3.1.1.2.2.3.4.2-.9.4-2 .5-2.2.1-.4.3-.7.4-1.1.3-.7.7-1.4.9-2.1.5-1.6 0-3.3-.9-4.8-.1-.4-.4-1.1-.9-1.2zm-.7 5.7c-.1-.8 0-1.6.1-2.4 0-.1.3-1.4.3-1.7.3 1-.1 2.3-.1 3.4 0 1.4.2 2.8.2 4.1-.2-1.1-.4-2.2-.5-3.4zm-71.5 14c4.2.6 6.3.3 8-2.5 0-.1.1-.1 0-.2-2.1-1.4-3.7 1.4-8 2.7zM89 33.8c0-.1-.4-.7-.4-.8-1 2.1-2.5.8-2.2 3.8-.9.4-1.5 1.2-2.1 1.9-.1.2-.2.3-.4.5.5-1.7.5-3.6-.2-5.2-.4-.8-.9-1.4-1.8-1.6-.8-.2-1.8.2-2.4.8-.5.7-.8 1.6-.3 2.4.4.7 1.2 1.2 2 .8.6-.3 1.2-1.1.9-1.8-.3-.6-1.1-.5-1.3-.1-.3.5.5.7.5.2.1-.3.3-.2.5-.1.1.2.1.4.1.6-.1.5-.5.9-1 1-1 .3-1.6-.8-1.6-1.6 0-1.7 2.1-2.5 3.4-1.6.9.7 1.1 2.1 1.2 3.2.2 2.3-.9 4.1-1.9 6-.5.8-.9 1.7-1.3 2.6 0 .2.1.4.1.6.3-.6.5-1.2.8-1.8.6-1.3 1.4-2.6 2.2-3.8.7-1 1.5-2.2 2.6-2.7 0 .1.4.7 1.2.7.7.1 1.2.1 1.8-.4l.6-.6c.2-.2.8-.5 1.1-.4-.8-1.1-1.7-.6-2.1-.8.8-.3 1.7-.5 2.6-.3.4.1.7.2 1 .4h-.1c-.3.2-.4.6-.1 1 .3.3.5.3.8.1.4-.3.1-.9-.1-1.1-.9-1-2.4-.9-3.6-.6.4-.2.9-.5 1.1-.6 1.2-.4 2.5-.1 3.7.4 1.5.6 2.9 1.4 4 2.6 1.1 1.2 1.1 2.9-.4 3.8-.6.4-1.5.3-2-.3-.3-.3-.3-.8-.3-1.1 0-.2.1-.5.2-.7.1-.1.3-.2.4-.2-.3.7.2.9.4.9.9-.1.8-1.1.1-1.3-.9-.3-1.4.9-1.4 1.5.1 2.2 2.6 2.1 3.7.6.3-.5.5-.9.5-1.3 1.1 1.3 2.8 2.1 4.5 2.1.5.6.4 1.5.7 2.2.3.6.8 1 1.5 1.3 1.4.4 2.2-1.1 2.5-2.2 0-.1-.1-.2-.2-.2-.9.4-1.6-.4-2.3-.9-.3-.2-.6-.3-.8-.4 1.4-.4 2.5-1.3 2.9-2.8.4-1.4-.2-3.5-2-3.1-.7.1-1.3.7-1.3 1.4 0 .5.8 1.2 1.2.8 0 0 .1-.1 0-.2 0-.1-.1-.2-.2-.1-.1-.1-.3.1-.2.2-.3-.1-.5-.3-.6-.6 0-.2.1-.5.3-.6.3-.3.7-.5 1.1-.5.8-.1 1.2.6 1.4 1.3.3 1.2-.2 2.7-1.3 3.4-2.4 1.7-6.1.8-7.5-1.7-.5-1.3-2-2.5-3.1-3.1-1.3-.8-2.9-1.5-4.5-1.4.4-.1.7-.3 1.1-.4.3-.1.6-.1.9-.2 1.4.1 2.6.9 3.7 1.6 1.2.7 2.5 1.2 3.9 1.4 2.1.3 3.1-1.2 4.4-2.5.1-.1.1-.3-.1-.3-1.2-.1-2.1-.8-3.2-1.1-1-.3-2-.4-3-.3-1.7.1-3.3.4-4.9.7.9-.4 1.7-.9 2.5-1.5.4-.3.7-.7 1.1-1 1.7-2 1.6-4.6.8-7 0-.1-.2-.1-.3 0-1.2 1.5-2.9 2.7-3.5 4.6-.3 1.1-.1 2.3-.4 3.4-.1.5-.3 1-.8 1.4-.3.3-1 .5-1.5.6-.3.1-.8.2-1.1.4.2-.2.5-.4.7-.6.6-.5 1-1.2 1.4-1.9.1-.2.2-.3.2-.5.4-1.1.4-2.2.5-3.4.1-1.4.6-2.6 1.4-3.7.1-.1 0-.3-.1-.2-2.1.4-3.8 2-4.4 4.1-.3 1.1-.1 2.2-.2 3.3v.4c-.1.8-.5 1.6-1 2.3.1-.5.1-1.1 0-1.6-.1-.2-.2-.5-.4-.7-.2-.2-.4-.2-.6-.1-.1 0-.1.1-.2.1-.1.1-.2.3-.2.5.1.7 1.1.2.8-.3.4.2.4.8.5 1.2 0 .4 0 .9-.2 1.3-.1.3-.4.9-.8 1-.1-.3.1-.5.2-.8.2-.3.2-.5.2-.7zm10.9.1c1.1.4 3 1.1 4.2.5-.9 1-3 .5-4.1.2-1.5-.4-2.9-1.1-4.5-1.3 1.4-.4 3 .2 4.4.6zm-4.3-2.4c1.4-1.9 2.6-4 3-6.4.5 2.2-.8 4.9-2.6 6.4-.3.2-.6.5-.9.6.1-.2.3-.4.5-.6zm-3.8 0c.2-.8.4-1.6.4-2.6.1-.8.2-1.6.6-2.3.1-.2 1.2-1.7 1.3-1.5 0-.1-.4.6-.4.6-.2.4-.4.9-.5 1.3-.2.7-.3 1.5-.3 2.2-.1.8-.2 1.6-.6 2.3-.2.5-.5 1-1 1.5.2-.5.4-1 .5-1.5zm26.7 6c-4.3-1.3-5.9-4.2-8-2.8-.1.1-.1.1 0 .2 1.7 2.8 3.8 3.1 8 2.6zM99.9 65.1c1.5-1.4-.5-3.4-1.8-2.4.3-1.4-1.1-2.3-2.2-1.1-.8-1.8-3.4.7-1.4 1.7 2-.8 4.4.9 4.1 3.1-.2 1.6-1.3 2.5-2.7 3-.9-.1-1.2 2 .6 1.9.7 0 1.1-.6 1.1-1.4 1.4 1.3 2.9-.9 1.9-1.9 1.6-.3 2.2-2.5.4-2.9zm-.1-36.6c.9-1.7 2.1-3.3 3.3-4.7l.1-.1c.3.3.4.7.7 1 .2.3.6.4.9.5.9.1 1.5-.6 1.8-1.4 0-.1 0-.2-.1-.1-.8.5-1.6-.1-2.4-.3-.3-.1-.5-.1-.8 0 1.1-1.2 2.5-1.9 4.1-2.2 1.8-.3 3.6.6 4.1 2.4.2 1-.3 1.7-1.2 2.1-.6.2-1.2 0-1.5-.5-.2-.3-.2-.6-.2-.9 0-.9.8-.3 1-.2.2.1.3-.2.2-.3-.5-.3-1.4-.6-1.5.3-.1.8.3 1.9 1.3 2 .8.1 1.8-.4 2.1-1.2.3-.8.1-1.7-.4-2.5-1.3-2.2-4.3-1.8-6.3-.8-1.1.5-1.9 1.5-2.7 2.4.1-.2.2-.3.3-.5.1-.3.2-.7.2-1.1 0-.8-.4-1.4-.5-2.1 0-.1-.1-.1-.2 0 0 .5-.4.9-.6 1.3-.2.3-.3.8-.3 1.2 0 .6.3 1.4.8 1.6-1 1.3-1.9 2.5-2.7 3.9.1.2.4.3.5.2zm5.7 23.4c0-.1-.2-.2-.3-.1-1.2 1.1-2.3.8-3 3.6.9-.3 2 .3 2.3 1.2 2-.9 1.3-3 1-4.7zm-3.4 3.9c.8 1.2 1.1 2.8 1.2 4.8.3-.6.5-2.6 1.3-3.7-.6-.9-2-1.9-2.5-1.1zM36.7 38.9c.7-.1 1.4-.3 2-.6 1.1-.5 2.4-1.4 3.2-2.3.7-.9.3-1.6-.8-1.7-1.4-.1-2.6.7-3.5 1.6l-.5.5c-.6.8-1.3 1.5-2.1 2.1.6 0 1.2-.2 1.7-.5 1-.5 2.3-1.1 3.1-1.9-.7.9-1.9 1.6-2.9 2.2-.6.3-1.5.5-2.3.5-.2.1-.4.3-.6.4l.2.2c.2.1.4.2.7.3.5.3 3.6 1.7 5.7 3.5 1.7 1.5 2 3.2 3.1 4.7-1.1-1.3-2.1-2.8-3.2-4.1-.7-.8-2-1.9-3.1-2.3.5.5 1.4 1.5 1.7 2.2.6 1.1.8 2.3 1.5 3.4 1 1.6 2.6 1.7 4.1 2.4.1 0 .2 0 .2-.2-.4-2.3-.4-4.7-2.5-6.2-1.7-1.2-7.2-3.5-7.3-3.6 2.5.6 6.1-.6 7.6-1.2-1.1.6-2.3 1-3.5 1.3-.2 0-1.7.3-2.7.4.8.4 1.6.8 2.6.6 1.5-.2 2.8-.9 4-1.7.7-.4 1.3-.9 2-1.3.1-.1 0-.3-.1-.3-.7.1-1.5.1-2.3.1-.7 0-1.4.3-2 .5-1 .4-2 .8-3 1-.8.2-2 .4-2.9.1.6.2 1.5-.1 1.9-.1zm-4.8 23.9c4.8-1.9 4.4-7.6 4.9-8.6.1-.1-.1-.4-.2-.3-1.6 1.8-3-1.3-7.1 6.2-.3.6-2.7 4-3.8 6.1 2-1 5.3-3 6.2-3.4zm15.9-35.7c1.8-.4 3.6.1 5.3-.8.7-.4 1.2-1 1.8-1.5.6-.6 1.3-1 2.1-1.2-.8.6-1.5 1.3-2.2 2.1-1.4 1.6-2.5 3.5-3.2 5.5 0 .1-.1.2-.1.4-.5 1.8-.4 3.7-.1 5.6 0 .2.3.2.3 0 .3-1 .7-1.8 1.5-2.6.7-.6 1.5-1.1 2.2-1.7.4-.4.8-.8 1.1-1.3.5-.7.8-1.6 1.1-2.4.5-1.5 1-2.8 2.3-3.8 1.3-1.1 4.7-.9 6.7-.7-2-1.8-6.1-1.8-8.3 0-2.2 1.6-3.2 4.4-4 6.9.7-2.6 1.6-5.4 3.8-7.2C59.7 23 62 22.6 64 23c-1.9-1-3.8-1.9-6.2-1.5-1.4.2-2.9.7-4.2 1.4-1.2.7-2.3 1.6-3.6 2.3 1.2-.6 2.1-1.5 3.2-2.2 1.3-.9 2.7-1.4 4.2-1.7 2.7-.6 4.8.3 7.1 1.4-3-2.5-6.1-3-9.1-2.7-1.7.2-3.4 1.1-4.8 2.1-1.6 1.2-2.5 3.1-3.1 4.9.1 0 .2.1.3.1zm62.8 16.8c2-1.4 4-2.9 6.3-3.6 1.2-.4 2.6-.5 3.9-.3 1.3.2 2.5.7 3.7 1-2.1-1.1-4.8-1.7-6.5-1.8-1.8-.1-4 .4-5.3 1.7 1.2-1.3 3.3-1.9 5-2 .9-.1 2 0 3 .1-1.7-.7-3.5-1.1-4.9-1-1.3.1-2.8.5-3.7 1.5-1.1 1.2-1.5 2.7-1.9 4.3.1.1.3.2.4.1zm8.9 53.6c1.3.3 2.4.9 3.6 1.4-2-1.3-4.6-2.2-6.3-2.3-1.7-.2-4 .1-5.4 1.2 1.3-1.2 3.5-1.6 5.2-1.5.9 0 2 .2 3 .4-1.6-.8-3.3-1.5-4.8-1.5-1.3 0-2.8.1-3.8 1-1.2 1.1-1.7 2.9-2.2 3.9h.6c2-1 4-2.1 6.2-2.7 1.4-.4 2.7-.2 3.9.1zM60.6 70.3c-.9 1.6-3.2.7-.7 8 0-3.2 3-5 .7-8zm-2.2 5.2c-1.8-8.4-4-5.8-5.1-8-.1-.2-.3.1-.3.2.3 1.1-1.7 6.4 2.3 9.6.8.6 3.4 3.5 5 5-.4-2.2-1.8-6.1-1.9-6.8zm66-57.1c.1-1.6-1.9-2.7-2.8-1.1-.9-1.8-3.4-.4-2.8 1.1-1.2-.7-2.5.4-1.6 1.8-1.9.3-.2 3.5 1.3 1.8-.2-2.2 2-4 4.1-3.2 1.5.6 2 1.9 2.2 3.4-.3.8 1.6 1.7 2 0 .1-.7-.3-1.2-1-1.5 1.5-1-.2-3-1.4-2.3zM78.3 86.3c.1-1-.5-2-1.6-2.5-1.1-.6-2.4.6-2.4 1.5-.1 1 .5 1.9 1.7 2.2 1.2.3 2.2-.2 2.3-1.2zm-1.2 1.1c-.1 0-.1 0-.1-.1s0-.1.1-.1.1 0 .1.1l-.1.1zm0-.7c-.1 0-.2 0-.2-.1s.1-.1.2-.1.2 0 .2.1c0 0-.1.1-.2.1zm.9-.1s0 .1-.1.1-.1 0-.1-.1c0 0 .1-.5.2-.5 0 0-.1.4 0 .5zm-.2-1.5c.1 0 .2.1.2.2s0 .2-.1.2-.4 0-.4-.1c-.1-.1.2-.3.3-.3zm-.4.6c.1 0 .2.1.2.2s0 .2-.1.2-.3.2-.3 0l.2-.4zm-.3-.2c-.1 0-.2-.3-.2-.4 0-.1.1-.1.2-.1s.2 0 .2.1c0 0-.1.4-.2.4zm-.2-1c.1 0 .2 0 .2.1s-.1.1-.2.2c-.1 0-.2 0-.2-.1.1-.1.1-.2.2-.2zm-.1 1c.1 0 .1.1.1.2s0 .2-.1.2-.1-.1-.1-.2 0-.2.1-.2zm-.9.6c0-.1.2-.3.3-.3.1 0 .2.1.3.2 0 .1-.1.3-.2.3s-.4 0-.4-.2zm.3 1c-.1 0-.2-.1-.2-.1 0-.1.1-.2.1-.2.1 0 .4.1.4.2.1 0-.2 0-.3.1zm.4-2s-.1.3-.3.4c-.1 0-.2-.3-.2-.3s.1-.1.2-.1c.2-.1.3 0 .3 0zm-.6-.8c0-.1.1-.2.2-.2s.2.1.3.1c.1.2-.3.4-.4.4-.2.1-.1-.2-.1-.3zm-.2.7c.1 0 .2.1.2.2s0 .2-.1.2-.2-.1-.2-.2c-.1-.1 0-.2.1-.2zm-.2-1.1c.1 0-.2.3-.2.4 0 .1 0 .2-.1.2s-.3-.2-.3-.3c0 0 .5-.2.6-.3zm-1.1 1.3c0-.1 0-.1.1-.1 0 0 .1 0 .1.1s0 .1-.1.1c0 0-.1 0-.1-.1zm.3 1.1s-.1-.1-.1-.2 0-.2.1-.2c0 0 .1.1.1.2-.1.1-.1.2-.1.2zm.1-1c.1-.1 0-.3.1-.3s.2.1.2.2.3.4.2.4c-.1 0-.7 0-.5-.3zm.3.9c0-.1 0-.2.1-.2s.4.3.4.4c0 .1-.4.1-.5.1-.1 0 0-.2 0-.3zm.4 1c-.1 0-.1-.1-.2-.2 0-.1 0-.2.1-.2s.3.4.3.5c0 0-.1-.2-.2-.1zm-.5 2.7c.2-.3.4-.6.5-1 0-.2.1-.4.1-.7 0-.1.1-.2 0-.3l-.4-.1c-.6.7-1.1 1.5-1.7 2.2.5-.8.7-1.7 1.1-2.4-.5.2-1 1.2-1.4 1.5-.7.6-1.5 1.1-2.3 1.5.7-.5 1.4-.9 2-1.5.4-.3.6-.8.9-1.1.2-.2.3-.6.5-.8-.9.6-1.7 1.6-2.7 1.9 1-.4 1.6-1.6 2.5-2.3-.1-.2-.1-.1-.2-.3-.4.1-1.9.4-3.1 2.2-.7 1-1.1 2-1.3 3.3 1.2-.4 2.4-.3 3.6-.7.7-.4 1.4-.8 1.9-1.4zm-51.5-22c1.2-.3 2.4-.8 3.7-1 1.3-.2 2.6 0 3.9.4 2.3.8 4.3 2.3 6.3 3.7.1.1.3 0 .3-.2-.3-1.5-.7-3.1-1.8-4.3-.9-1-2.4-1.4-3.7-1.5-1.5-.2-3.3.3-4.9.9 1.1-.1 2.1-.2 3-.1 1.7.1 3.8.8 5 2.1-1.3-1.3-3.5-1.8-5.3-1.8-1.7.1-4.4.7-6.5 1.8zm55.8 32.3v.1h.4c-.1-.2-.3-.3-.4-.1zM72.6 87c.4 0 .9-.6 1.3-.7-.1-.2-.1-.3-.1-.5-1.2-.3-2.5-.3-3.6-.9.8.4 1.6.2 2.5.2-.3-.1-.9-.1-1.2-.3-.8-.4-1.7-1.3-2.6-1.6.8.2 1.9.6 2.6 1 .7.3 1.2.5 1.9.6-.9-.5-1.5-1.3-2.3-1.8.9.5 1.5.6 2.8 1.5v-.1l.2-.2c-3-3.7-5.1-2-6.9-1.4.7.8 1 1.8 1.7 2.7 1.1 1.1 2.3 1.5 3.7 1.5zm11.5-2.3c-1-1.1-2.2-1.6-3.6-.8-.6.5-1.3 1-2.1 1.3 0 .1 0 .1.1.2.8-.5 1.7-.6 2.7-.6-.8.1-1.5.2-2.2.6 1.6-.3 3.3-.3 4.9.2-1.7-.4-3.4-.2-5 .1.9.1 1.6.3 2.5.8-1-.4-1.8-.5-2.8-.5v.1c.2.1.4.2.5.3.5.2 2 1.3 2.8 1.3 1.7 0 2.4-1.3 3.8-2-.6-.1-1.1-.6-1.6-1zm-7.2-1.3c.5-1.3 0-3.1-.4-4.1-.7-1.5-1.8-2.8-3.3-3.5-.4 1.7-1.5 3.3-1 5.1.4 1.3 1.4 2.3 2.4 3.1.2-.2.2-.2.4-.3-.7-.9-.8-2.7-1.9-3.2 1.1.4 1.6 2 2.3 2.8-.2-.8-.6-1.5-.8-2.3-.2-.8-.5-2.5-.9-3.3.5.8.9 2.3 1.2 3.1.2.8.5 1.5.7 2.2-.2-1.3-.1-2.7-.4-4 .4 1.3.3 2.8.9 4.1.3 0 .5.2.8.3zm3.4.2c1.1-1 1.8-2.3 2.1-3.9-1.6.3-4.7-1-5 1.3v.1c.1.9.2 1.8-.1 2.6l.1.1c.5-.9 2-2.9 2.1-2.7-.1-.1-1.2 1.8-1.2 1.9-.1.1-.3.7-.3.9.8-1.1 2.3-2.2 3.2-3.2-.8 1-1.9 2-2.6 3.1.8-.7 1.7-1.3 2.5-1.7-.8.4-1.3 1.2-2 1.8-.2.2-.6.6-.9.7.1.1.1.1.2.3.6-.3 1.2-.7 1.9-1.3-.1 0-.1 0 0 0zm19 8c-.3-1.7-2-1.5-2.4-.2-.6-1.5-3.3-.8-2.8 1.2-1.8-.6-2.4 1.6-1.2 2.7-1.4.3-1.2 3 .6 2.6-.3.6-.3 1.3.3 1.7 1.5 1 2.3-1 1.5-1.3-.9-1.2-1.4-2.5-.7-4 1-2 3.8-2.2 5.2-.5 2.1.1 1.2-3.3-.5-2.2zM109 .7c.2-.1.4.3.6-.7h-.5c-.4 1-.9.4-1.4.3-.2 0-.4.7-.6-.3h-.5s0 .2.1.2c.6.6 1.6.8 2.3.5zM17.6 99.9c.1.1.1.1.2.1h1c-.7 0-1.6-1.4-2.6-1.4.5.3 1.2 1 1.4 1.3zm-2.1-4c.1.1.1.1.2.3.7-.4 1.2-1 1.7-1.6v-.1c.9-1.2 1.4-2.6 1.4-4.2-1.6.6-4.8-.1-4.7 2.2v.1c.3.8.5 1.7.4 2.5l.1.1c.3-1 1.5-3.2 1.6-3.1-.1-.1-.8 1.9-.9 2.1 0 .1-.1.7-.2.9.6-1.2 1.9-2.6 2.6-3.7-.6 1.1-1.5 2.3-2 3.5.6-.8 1.5-1.6 2.1-2.1-.7.6-1.1 1.5-1.7 2.2-.1.3-.3.7-.6.9zm81.9-64.4c-.1.1-.3.2-.5.3-.2.1-.1.4.1.3 0 0 .1 0 .1-.1h.1c.4-.2.8-.3 1.1-.5.7-.2 1.4-.4 2.1-.4 1.1-.1 2.2 0 3.2-.1 2-.3 3.2-1.9 4.6-3.2.1-.1 0-.3-.1-.3-1.4.1-2.7-.4-4.1-.5-.8 0-1.7.2-2.4.7-1.5 1-2.6 2.8-4.2 3.8zm2.8-1.8c.7-.4 1.3-.8 2-1 1.6-.4 3.2-.1 4.8-.5-1.3.9-3 .8-4.5 1.1-.7.1-1.3.5-1.9.8-.2.1-1.7 1-1.9.9.1-.1 1.4-1.2 1.5-1.3zm12.7 65.5c.1-.1.2-.2.2-.3-.8-.2-1.5-.4-2.2-.7-.8-.4-1.5-.8-2.2-1.4-.7-.5-.9-1-1.2-1.7-.2-.4-.3-.9-.5-1.3-.3-.8-.5-1.7-1-2.5-.8-1.3-2.4-1.9-3.7-2.6-.3-.2-1.1-.7-1.5-.5l-.1.1c-.3.3-.1 1.1 0 1.4.3 1.6 1 3.3 2.4 4.2.6.4 1.4.7 2.1 1.1.3.2.7.3 1 .5.4.2 2.3 1.7 2.9 2.2-.3-.1-.7-.2-1-.2-.6-.1-1.3 0-1.8.3-.8.4-1.5 1-2.4 1.1-.2 0-.2.2-.1.3 1 .8 2.3 2.1 3.7 1.9 1.4-.2 2.9-.8 4.1-1.9.1-.2.6-.1 1.3 0zm-8.5-7.5c-.7-.8-1.8-1.5-2.3-2.5.2.2 1.2 1 1.3 1.1.6.5 1.2 1.1 1.7 1.7.7.9 1.3 1.9 1.8 2.9-.9-1-1.6-2.2-2.5-3.2zm3.5 7.6c-1 .3-2 .4-3 0 .6.1 1.8 0 2.6-.3.9-.2 2.5-1.1 3.3-.4l.1.1c-.9-.5-2.2.3-3 .6zM91.7 54.2c.8-.3.2-.9-.4-1.1-.9-.2-1.3.8-1.1 1.5.3.9 1.2 1.5 2.1 1.3 1.1-.2 1.9-1.1 2.2-2.2.3-1 .1-2.1-.6-2.9.7.1 1.5-.1 2.1-.5.4.1.7.5 1 .8.3.3.6.5 1 .5.8-.1.8-1.3.8-1.9 0-.1-.1-.1-.1-.1-.5.2-1 0-1.6 0h-.3c.7-.7 1.1-1.5 1.3-2.3.4-1.5-.6-3.8-2.5-3.3-.6.2-1.1.9-1.2 1.5 0 .5.1 1.4.7 1.6.6.2 1.1-.2 1.1-.8 0-.5-.2-.8-.6-.4-.1.1.1.4.2.2l.1.1c0 .3-.1.5-.4.6-.4.2-.6-.3-.7-.5-.2-.5-.1-1 .2-1.4.7-1.1 2.1-.4 2.6.4 1.2 1.9-.8 4.9-2.8 5.2-.7.1-1.3-.2-2-.4-.5-.1-1.2-.1-1.8 0-.3.1-.5.1-.8.3.4-.4.7-1 .9-1.5.1-.2.2-.6.2-1 .3-.1.5-.4.5-.7 0-.4-.4-.8-.8-.8s-.8.4-.8.8.4.8.8.8h.2c-.1.4-.2.9-.3 1-.2.5-.5 1.1-1 1.4.1-.3.1-.5.1-.8 0-.4-.3-.7-.4-1 0-.1-.1-.1-.1 0-.2.7-.8 1-1.2 1.6-.2.4 0 .9.4 1.2-.3.3-.6.6-1 .9-1.4 1.4-3.1 2.5-5.1 2.5-.2 0-.2.3 0 .3 1.9-.1 3.5-.9 4.9-2.2.5-.4.9-.9 1.4-1.3 0 .3.1.6.4.7.6.2 1-.3 1.6 0 .1 0 .1 0 .1-.1-.1-.4-.1-.7-.3-1-.1-.2-.3-.3-.5-.5h.5c.4 0 .7.1 1 .3.3.2.6.4.9.7-.2.1-.4.4-.4.7 0 .4.4.8.8.8s.8-.4.8-.8-.4-.8-.8-.8c-.1 0-.2 0-.3.1-.3-.3-.6-.5-.9-.7-.3-.2-.6-.3-1-.3h-.5c.6-.3 1.3-.5 2.1-.3 2.1.3 2.5 2.7 1.5 4.2-.5.8-1.6 1.4-2.5.9-.4-.2-.7-.7-.8-1.1-.1-.4 0-.7.3-.9.2-.1.4-.1.6 0 .3 0 .3.2.2.4-.3 0-.2.3 0 .3zM23.9 41.8c1.9-.3 2.4-2.2 2.2-3.9.5.9.8 1.9 1.1 2.7.1.2.4.1.3-.1-.1-.5-.3-1-.6-1.6.6.5 1.4.7 2.1.8 1 .1 2 .2 3 0 3.7-.7 4.6-3.6 4.2-5.7-.2-.8-.9-1.3-1.7-1.3-1.1 0-1.9 1-2.2 1.9-.3.8.3 1.6 1.2 1.5.6-.1 1.4-.6.4-.9-.2-.1-.3.2-.1.3.6.2-.6.3-.7.3-.8-.1-.5-1.2-.3-1.6.4-.8 1.2-1.4 2.1-1.2 1.5.2 1.3 2.6.8 3.5-.6 1.1-1.5 2-2.6 2.5.3-.3.5-.7.6-1 .2-.6-.2-.9-.5-1.4-.1-.1-.2-.1-.3 0-.2.4-.4.7-.3 1.2.1.4.1.9-.1 1.3-.3.4-.9.4-1.3.4h-1.4c-.8 0-1.7-.2-2.4-.6-.5-.3-.9-.7-1.2-1.2-.3-.5-.5-1.1-.9-1.5-.5-.6-1-1.1-1.6-1.6-1.1-.8-2.8-1.3-3.8-.9 0 0 1.6-1.7 2.6-2.3.4-.2.8-.4 1.2-.5.4.1.8.3 1.2.5l.6.6c.5 1.3.2 2.7 1.1 3.9.8 1.1 2.7 1.2 4 1.4.1 0 .3-.1.2-.3-.5-.8-.6-1.7-.9-2.5 0-.5-.4-1.1-.9-1.5-.9-.8-2.1-1-3.2-1.5-.1-.1-.2-.1-.3-.2h-.1c-.3-.2-.6-.4-.9-.5.1 0 .6-.2.7-.2.3-.1.5-.1.8-.2.6-.1 1.1-.1 1.7-.2.7.5 1.5.8 2.3 1.1.1.1.3.1.4.2.8.3 1.6.6 2.4.6.9.1 1.7-.2 2.5-.6.9-.4 1.7-1 2.5-1.4.2-.1.1-.3 0-.3-1.9-.5-3.5-1.6-5.6-1.7-1.7-.1-3.2.8-4.4 1.8l-2.4.3c.3-.3.6-.8.8-1.1l.1.1c1.8-.2 2.4-2.1 2.4-3.7 0-.8-.2-1.6-.6-2.3-.5-.9-1.3-1.6-1.5-2.7 0-.2-.3-.2-.3 0-.2 1.2-1.1 2-1.5 3-.3.7-.5 1.6-.5 2.4-.1 1.3.2 2.9 1.4 3.5-.3.4-.6.8-1 1-.3.2-.7.2-1 .3-.2.1-.7.2-.8.3.2-.3.4-.7.5-1.1.4-1.3.3-2.9-.5-4.1-1.1-1.8-3.4-1.2-5.2-1.4-.1 0-.3.1-.2.2.6 1.3.8 2.8 1.8 4 1 1.2 2.4.8 3.8.7 0 .5-.2 1-.5 1.4-.2.3-.5.5-.7.7l-.3.3-1 1c-.4.4-.7.7-1 1.2-.1.1 0 .2.1.2 2.1-1 4.4.6 5.7 2.5.5 1-.6 1.4-1 2.1-.5.9-.2 1.9-.6 2.9-.1.1 0 .2.1.2zm2.4-9.7c1.1.1 1.6 1.8 2 2.6.3.7 1.1 1.7 1.6 2-1-.4-1.6-1.2-2-2.1-.4-.7-.7-2.2-1.6-2.5-.1 0 0 0 0 0zm5.5-2.7c.8-.1 1.6 0 2.4.1.1 0 1.4.3 1.7.3-1 .3-2.3-.1-3.4-.1-1.4 0-2.8.2-4.1.3 1.1-.3 2.3-.6 3.4-.6zm-5.3-7.8c.3 2.1.3 4.5-.3 6.6.1-2.2.1-4.4.3-6.6zm-5.1 5.5c-.5-.3-1-.5-1.5-.8-.4-.3-.6-.6-.9-.9.3.2.6.5.9.6.6.3 1.2.5 1.8.9.6.4 1.5 1.2 1.5 2-.3-.8-1.2-1.4-1.8-1.8zm72.3 41.1c.3.2.8.4 1.2.5.6.1 1.3.2 1.8-.2 1-.6 1.5-1.7 1.4-2.8-.1-1.1-.8-1.9-1.9-2.2-1.8-.5-2.8 1.2-3.8 2.4.2-.1.3-.2.4-.3.7-.5 2-1 2.5-.1-.9-.3-2.7.2-3.8 1.7 0 0 .1-.1.2-.1.8 0 1.3.6 2 1.1zM81.2 87.9c-.3-.4-2.2-1.2-2.6-1.4-.1.3 0 .3-.2.5 1.1.2 1.6 1.8 2.3 2.6-.6-.6-1.4-1.9-2.4-2 .4.4 1 1.1 1.1 1.4.3.5.4 1 .7 1.5.1.2.7.8.7.9 0 0-.6-.6-.6-.7-.3-.4-.6-.8-.9-1.3-.2-.4-1-1-1.5-1.7.2.7.3 1.1.5 1.7.2.6.8 1.2 1.1 1.8-.4-.6-1.1-.9-1.4-1.6-.3-.6-.5-1.1-.8-1.8-.4.2-.6.1-1 .1.1 1.4 1 2.8 1.9 3.6 1.1 1.1 2.5 1 3.8 1.5-.1-1-.2-2-.2-3 0-.6 0-1.6-.5-2.1zM59.4 34.8c-.2-1.4-1.9-1.7-2.4-.1-1.5-1.3-2.9 2-.6 2.1 1.5-1.5 4.4-.9 5 1.2.5 1.5-.2 2.8-1.2 3.9-.8.2-.3 2.3 1.3 1.5.7-.3.7-1 .5-1.7 1.8.6 2.3-2 .9-2.5 1.3-.9.9-3.2-.9-2.8.8-1.9-1.8-3-2.6-1.6zm-16.1 5.8c.8.5 1.2 1.6.7 2.5 2.8-.1 2.8-1.3 4-2.2.1-.1.1-.2 0-.3-1.5-.6-3.3-1.7-4.7 0zm54.6 54.7c1-.5 1.8.6 2.1 1.4 0 .1.1.3.2.4-.2-1.6-.2-3.6-2-4.1-1.2-.3-2.2 0-2.8.9-.7.9-.8 2.1-.3 3.1.3.6.9.9 1.5 1.1.4.1.9.2 1.3.2.8 0 1.6-.4 2.3.2l.1.2c-.2-1.8-1.5-3.2-2.4-3.4zM62.4 59.7c1.4-.1 2.9-.6 3.7-1.8 1.1-1.7-.3-3.8-.8-5.5-1.9.7-3.3 1.9-3.9 3.6 0 .2-.1.4-.2.5-.1.5-.2 1-.1 1.6.9-.1 1.6-1.8 2-2.7-.2.9-.3 2-.8 2.8.6-.4 1.3-.8 1.7-1.4.5-.9.7-1.8.8-2.8 0 1.1 0 2.3-.7 3.2-.4.5-.9 1-1.4 1.4.8-.3 1.5-.9 2.3-1.3-.8.9-1.6 1.8-2.6 2.4zm-35.1 2.7c4.5-6.3 2-6.1 1.6-7.9-3.1 2.2-.7 4.8-1.6 7.9zm.5-14c.6.5 1.4.8 1.7 1.7l-.1.2c1.1-1.6 1-3.4.4-4.2 1.1.2 1 1.6.7 2.4 0 .1-.1.3-.2.4.8-1.4 2.2-2.8 1.1-4.4-.7-1-1.6-1.4-2.7-1.2-1.1.3-2 1.1-2.3 2.2-.1.6.1 1.2.4 1.8.4.5.7.9 1 1.1zM43 40.6c-1.2.5-3.2.4-3.8.6 1.9.4 3.4 1 4.4 2 .9-.4.2-2-.6-2.6zm17.9 21.7c.3-.1.6-.2.8-.4.8-.7.5-2.3-.2-3.1-.7-.7-1.5-.7-2.2-.2-.6.3-.9.9-.9 1.6 0 1 .6 2.3 1.6 2.3.3-.1.6-.1.9-.2h-.1c-.1 0-.4-.2-.3-.4 0-.2.4-.4.5-.3.1 0 .2.2.1.4 0 .1-.1.2-.2.3zm.6-2.6c.1 0 .3.4.2.4h-.2c-.1 0-.2-.1-.2-.1s.1-.3.2-.3zm-.1.9c.1 0 .2.2.1.3 0 .1-.1.2-.3.2-.1 0-.2-.2-.1-.3.1-.1.2-.2.3-.2zm-1.1-1.9c.1 0 .2.1.2.3 0 .1-.2.2-.3.1-.1 0-.2-.1-.2-.2 0-.2.2-.2.3-.2zm-.8 0c.1 0 .1.1.1.2s-.1.2-.2.1c-.1 0-.1-.1-.1-.2.1 0 .2-.1.2-.1zm-.2.9c0-.1.1-.2.1-.2.1 0 .1.1 0 .3 0 .1-.1.2-.1.2v-.3zm-.7-.1c0-.1.2-.2.3-.2.1 0 .2.2.2.3 0 .1-.2.2-.3.2-.2 0-.2-.1-.2-.3zm.5.6c.1 0 .3.2.3.4 0 .1-.3.1-.4.1-.1 0-.1-.1-.1-.3 0-.1.1-.2.2-.2zm.1 1.4c-.1 0-.2-.1-.2-.2s.1-.1.3-.1c.1 0 .2.1.2.2-.1 0-.2.1-.3.1zm.4.6c-.1 0-.2-.1-.1-.2 0-.1.1-.2.2-.1.1 0 .2.1.1.2 0 .1-.1.2-.2.1zm.2-1.8c0-.1.1-.2.2-.2s.2.1.1.3c0 .1-.1.2-.2.2-.1-.1-.1-.2-.1-.3zm.3 1.4c-.1 0-.2-.2-.1-.4 0-.2.2-.3.3-.3.1 0 .2.2.1.4s-.2.3-.3.3zm0-1.8c-.1 0-.2-.2-.2-.3 0-.2.2-.3.3-.2.1 0 .5.2.5.4 0 0-.4.1-.6.1zm.5 1c-.1 0-.1-.1-.1-.3 0-.1.1-.2.2-.2s.1.1.1.3c0 .2-.1.3-.2.2zm.3-.7c-.1 0-.1-.1-.1-.1 0-.1.1-.1.1-.1.1 0 .1.1.1.1s0 .1-.1.1zm.1-.7c-.1 0-.2-.1-.1-.2 0-.1.1-.2.2-.2s.2.1.1.2c0 .1-.1.2-.2.2zm-5.8-17.8s.1-.1.1-.2c.8-.4 1.5 0 2.3.1.4.1.9 0 1.3 0 .6-.1 1.2-.4 1.6-.9.7-.9.6-2.2.1-3.1-.5-1-1.5-1.4-2.7-1.3-1.9.2-2 2.2-2.5 3.8.1-.2.2-.3.2-.4.4-.7 1.4-1.8 2.3-1.1-.8.1-2.3 1.3-2.7 3.1zm35.6 56.9c.3-.7.4-1.3.5-2.1 0-.8-.1-1.6-.4-2.4-.3-.9-.8-1.6-1.6-2.1 1 .2 1.9.5 2.7 1.1.2.1.3-.2.2-.3-.8-.5-1.6-.8-2.5-1 2 .1 3.9-.6 5.4-2 .6-.5 1-1.2 1.3-1.9.7.1 1.4.4 2 0 .5-.3.6-1 .8-1.5 0-.1 0-.2-.1-.1-.6.4-1.3.3-1.9.5-.2 0-.3.1-.5.2.2-.8.2-1.6-.2-2.1-.8-1-2.3-.8-2.4.5-.1 1.1.7 1.6 1.5.7 0-.1.1-.2 0-.2-.3-.3-.4-.2-.7.1-.1.1 0 .3.1.3-.1.1-.3.2-.5 0-.3-.3-.2-.8-.1-1.1.1-.5.6-.7 1.1-.6 1 .3 1 1.3.9 2.1-.3 1.5-1.3 2.7-2.5 3.6-1.5 1-3.1 1.4-4.7 1.1 1-.1 1.9-.6 2.3-1.6 0-.1-.1-.2-.2-.2-.8.2-1.5-.2-2.4.2-.7.3-1.1 1-1.8 1.2-.8.3-1.7 0-2.5-.1-.3 0-2.6-.2-2.6-.2 0 .1 0 .2.1.3.7 0 1.4 0 2.2.1 1.4.2 2 1.9 2.1 3.2.1 1.3-.1 2.7-1 3.7-1 1.1-2.2.7-2.7-.5-.2-.4-.2-1-.1-1.4 0-.3.2-.6.4-.8.5-.6 1.3-.1 1.1.5-.1-.1-.2-.1-.2 0-.1.1 0 .3.1.4.1.1.2.1.2 0 .3-.3.7-1.1.2-1.4-.6-.4-1.4 0-1.8.6-.8 1.1-.1 3.5 1.3 3.7.7.1 1.3-.2 1.7-.6 0 .1-.1.3-.1.4 0 .3 0 .4.1.7 0 .2.1.4.1.4h.9c.4-1 .3-1.9-.5-2.5.4-.7.6-1.4.7-2 .2-1.4-.2-3.3-1.4-4.2.4 0 .7.1 1.1.2.7.1.9.3 1.2 1 .2.6.2 1.3.3 1.9.3 1 1.1 1.4 2.1 1.5.1 0 .2-.1.2-.2-.1-1.7-1.5-2.7-2.4-4 .3.1.7.1 1 .2 1 .4 1.7 1.2 2 2.3.2.7.3 1.4.3 2.2 0 .7-.2 1.4-.5 2.1-.1 0-.2-.1-.3-.1-.5 0-1 .3-1 .8 0 .4.2.7.5.7h1c.3 0 .5-.3.5-.7 0-.3-.3-.4-.6-.6zM76.3 58c.8 0 2.1.4 2.6.6 1.1.4 2.1 1.1 3.1 1.6 1.2.6 2.5 1.3 3.8 1.8.9.3 1.9.7 2.8.5.1 0 .2-.2.1-.3-.9-1-1.6-2.1-2.3-3.3-.6-.9-1.2-1.9-2.2-2.5-1.3-.8-2.8-.8-4.3-.5-.9.2-3.1.6-4 1.6.9-.6 2.1-.7 3.3-.4 2 .4 3.5 1.8 5.2 3-1.5-.9-2.8-2-4.5-2.4-1.2-.4-2.6-.4-3.6.3zM64 65.8c-.2-1.4-1-2.5-2.1-3.3.6 1.1.9 2.2 1.2 3.4-.3-.7-.6-1.4-1-2 .3 1.4.5 2.8.6 4.2-.4-1.8-.8-3.7-1.8-5.3.2 1.4.1 2.9.4 4.3-.5-1.4-.7-2.9-1.1-4.3 0 1.1-.2 2.2-.2 3.2 0 2.3 1.5 3.2 3.4 4 .4-1.3.8-2.8.6-4.2zm42.3 34.3c-.1 0-.3.1-.4.2h.8l-.2-.2h-.2zM69.6 64.2c-.1-1.6-1.3-2.6-2.6-3.3-1.4-.7-2.9-.4-4.4-.7v.2c1.2.3 2.3.7 3.4 1.1-1-.2-1.9-.3-2.9-.4.7.3 1.2.7 1.9 1 .9.3 1.8.5 2.6 1-1-.4-2-.4-3-.7-.4-.1-.9-.3-1.3-.5.8.5 1.6.9 2.5 1.4-1.2-.3-2.7-.8-3.8-1.3.9 1.2 1.6 2.4 3.2 2.5.4.1 4.4-.5 4.4-.3zm14.1 6.3c.1 0 .1 0 .1-.1-.2-.5-.8-1-1.3-1 .1-.1.3-.2.4-.3.4-.2.7-.3 1.1-.4.8-.2 1.6-.3 2.5-.2.7.1 1.3.3 1.8.6.1.1.3.2.5.3-.3.2-.5.6-.5 1 0 .7.6 1.3 1.3 1.3.7 0 1.3-.6 1.3-1.3 0-.7-.6-1.3-1.3-1.3-.2 0-.4.1-.6.2-.1 0-.1-.1-.2-.1-.6-.4-1.2-.7-1.9-.8-.9-.1-1.8-.1-2.6.1-.2 0-.4.1-.6.2.5-.4 1.1-.7 1.6-1.1.5-.3 1-.6 1.6-.9.2-.1.5-.2.7-.3.2.3.6.6 1 .6.6 0 1.1-.5 1.1-1.1 0-.6-.5-1.1-1.1-1.1-.6 0-1.1.5-1.1 1.1 0 .1 0 .3.1.4-.1 0-.1.1-.2.1-.6.3-1.2.6-1.8 1-.9.5-1.7 1.1-2.5 1.6H83c.7-.6 1.3-1.2 1.7-2 .6-1.1 1-2.6.2-3.7-1.2-1.8-3.6.1-3.5 1.8 0 .7.8 1.3 1.4 1 .5-.2.9-1 .2-1.2-.2-.1-.3.2-.2.3.4.2-.4 1.2-1.1.4-.3-.4-.1-1 .1-1.4.5-1 1.7-1.4 2.6-.7 1 .9.4 2.5-.1 3.5-.4.8-1.1 1.5-1.8 2.1-.1.1-.2.2-.4.3.1-1-.6-1.3-.9-1.4-.1 0-.1 0-.1.1 0 .7-.6 1-.8 1.6-.1.3-.2.9.1 1.1-.6.5-1.1 1-1.5 1.7-.6 1-.8 2.2-.9 3.4 0-.5-1.5-2.9-1.9-3.4-.1-.1-1.2-1.7-1.1-1.7 1.3-.3 2.8-.3 3.5-1.6.7-1.3.5-2.8.8-4.3 0-.1-.1-.2-.2-.2-1.8.3-4.1.3-4.8 2.3-.3 1-.3 2.1 0 3.1-.8-1.1-1.6-2.2-2-3.6-.2-.6-.4-1.5-.1-2.1.3-.5.8-.5 1.3-.7 1.1-.4 2.1-2.1 1.5-3.3-.7-1.4-2.5.9-2.9 1.5.7-4.1 5.1-6.8 8.3-9 1.3-.9 2.5-1.7 3.8-2.6-1.4 1.2-2.8 2.3-4.3 3.4-1.3.9-2.7 1.8-3.8 3 3.5-1.3 7.5-1.9 9.8-5 .6-.8 1.1-1.6 1.5-2.4.3-.6 1-1.6.9-2.3 0-.2-.1-.3-.2-.4-.7-.7-2.9.6-3.4 1-2.3 1.4-4 3.6-5.9 5.4-1.8 1.7-3.7 3.2-5.2 5.1-.4.5-.8 1.1-1.1 1.7-.1.2-1 1.6-.9 1.9-.3-.4-1.2-2.6-1.7-2.1-.3.3-.2 1.6-.2 2 0 .5-.1 1 .3 1.3.7.6 1.4.4 1.6 1.5.2 1.2.3 2.4.6 3.6-1.3-.7-2.5-1.5-3.7-2.3-.2-.1-1.4-1.1-1.7-.8-.3.3 1 .8 1.2.8-.8.2-1.2.7-1.8 1.1-.5.4-1.5.6-1 1.3.5.7 2 .7 2.7.2.6-.4.8-1.2 1-1.9 1.7.9 3.2 1.7 4.5 3.2.2.2.5.6.9 1-.5-.3-1.3-.6-1.9-.8-.7-.3-1.4-.7-2.4-.8 0-.3-.1-.5-.4-.5-.3 0-.5.2-.5.5s.3.5.6.5c.2 0 .5-.2.5-.4.7.1 1.4.4 2 .6.7.3 1.6.6 2.2 1.1-.7-.3-1.4-.5-2.1-.5-.6 0-1.2.2-1.6.7h-.3c-.5 0-.9.4-.9.9s.4.9.9.9.9-.4.9-.9c0-.4-.2-.7-.5-.8.4-.4 1-.6 1.6-.6.6 0 1.2.2 1.8.4.1.1.3.1.5.2 1.3 1.7 2.9 4.2 3.2 6.4 0 .2.2-.1.2-.4 0-1.5 0-3.1.6-4.5.4-.8 1-1.5 1.7-2.1.3.4.7.6 1.3.4.7 0 1.2-.8 2-.4zm-7.9-2.9c.4-.5 1-.8 1.5-1.3.3-.2.4-.6.7-.8-.2.4-.4.8-.7 1.1-.4.4-.9.7-1.3 1.2-.5.6-1.2 1.4-1.2 2.1-.2-.7.5-1.7 1-2.3zm8.2-22c-.9 1-1.1 2.3-1.8 3.4 1.6-2 3.8-2.8 5.4-4.6 1.2-1.4.9-3.3.7-5 0-.2-.2-.2-.3-.1-2.3 3-6 4.9-6 9 .5-.9.8-2.1 1.6-2.9.4-.4.9-.7 1.3-1 .9-.6 1.5-1.4 2.1-2.4-.8 1.7-1.9 2.4-3 3.6zm31.1 52.3c-1.5.3-3.1 1.1-4.3 2.1h3.6c.9 0 1.8-.7 2.7-1.1 2.6-.8 4.8-.1 7.2.8-3.2-2.2-6.2-2.4-9.2-1.8zm14.7-52.7c-.7-.4-1.6-.4-2.4-.5-.2 0-.3.2-.2.3.9.4 1.3 1.4 2.2 1.8.4.2.6.1 1.6.2v-1c-1-.3-.8-.6-1.2-.8zm-11.4 22c-.5-.5-1-1-1.6-1.4-.7-.4-1.4-.7-2-1.1-.1-.1-.3.1-.2.2l1.2 2.1c.8 1.3 1.6 2.5 2.9 3.4.8.6 1.7.6 2.7.6-.9-.5-2.1-1.4-2.3-1.6-1-.9-1.8-1.8-2.6-2.8 1.1 1.2 3.9 4 6.5 4.6-.1 0-6.2-.4-8.4 0-2.6.4-3.7 2.6-5.1 4.5-.1.1 0 .2.1.2 1.8 0 3.3.7 4.9-.3 1.1-.7 1.9-1.7 3-2.4.6-.4 1.9-.9 2.6-1.2-1.1-.2-2.8.3-3.9.7-1.7.7-3.2 1.6-4.9 2.3 1.7-.9 2.8-2.2 5-2.9 2.8-.8 6.3-.6 6.9-.6.8 0 1.7.2 2.4.5-.3 0-.6-.1-.9 0-.7.2-1.3.9-2 .9-.1 0-.3.2-.1.3.6.3 1.3.7 2 .5.7-.2 1.3-1 2-1 .5-.1 1 .5 1.3.8.6.5.8 1 1.2 1.7.2.1.7.4.8.5-.1-.2-.4-.7-.5-.9-1-1.6-2.5-2.8-4.3-3.4 0 0-2.4-1-3.1-2.2-.7-1-1.4-2.2-1.7-3.4.4 1.1 1.2 2.3 1.9 3.2.5.6 1 1.1 1.7 1.4-.2-.3-.3-.5-.4-.8-.5-.9-.7-1.9-1-2.9-.4-1.3-1.2-2.5-2.5-3.1-1.1-.5-1.8 0-1.5 1.2.3 1.3 1 2.6 1.8 3.6.4.6 1 1 1.6 1.4.4.3 1.1.9 1.5 1-.9-.1-1.9-.8-2.6-1.4-1-.5-1.7-1.4-2.4-2.2zm11.4-5.5l.2.1c.2.4 0 .7 1 1v-1.1c-1-.6-.6-1.2-1.1-1.7.3.3.1.7 1.1 1.1v-.8c-1-.6-.6-1.2-.8-1.7.2.4-.2.9.8 1.4v-2.2c-1-.1-1.5-.3-2-.5-.1 1.7 0 3.2.8 4.4zM56.3 96.2c0-.2-.3-.2-.4 0-.3 1.2-1.2 1.8-1.9 2.8-.2.4-.4 1-.6 1h2.1c.1-1 .2-1.9.4-2.8.1.9 0 1.8 0 2.8h2l-.2-.4c-.4-1.2-1.3-2-1.4-3.4zm73.8 4c0 .1 0 .1 0 0l.3.1c.1-.2-.2-.3-.3-.1zM52.2 58.6c1.8 1.3 3.8 1.4 5.9 1.1v-.2c-.5-.7-1.4-1-2.2-1.2-.2 0-2.6-.4-2.7-.6.1.1 1.4.2 1.5.2.6 0 1.3 0 1.9.1.7.1 1.3.3 1.8.8.1-.1.2-.2.3-.4-.2.1-1.8-1.1-2-1.2-1.1-.7-2.4-1.2-3.7-1-.6.1-1.4.5-1.6 1.1-.2.6.4 1.1.8 1.3zm72.6 28c1 2 1 3 .7 4.2-.3 1.3-.5 2.6-.6 3.9-.1 1.4.1 2.9.6 4.3-.1-1.2.1-2.4.2-3.4.3-2.1.8-4.1.5-6.3.4 2.4-.1 4.6-.2 7-.1 1.3-.1 2.5.3 3.7 0 .1.1 0 .1 0h.2c-.2-1 .2-2.5.4-3.8.2-1.4.6-2.6.8-4 .3-2.9-2.5-5.6-2.7-5.9-.2-.2-.4.1-.3.3zm-.3-10.3c.1-1.6-1.9-2.7-2.8-1.1-.9-1.8-3.4-.4-2.8 1.1-1.2-.7-2.5.4-1.6 1.8-1.9.3-.2 3.5 1.3 1.8-.2-2.2 2-4 4.1-3.2 1.5.6 2 1.9 2.2 3.4-.3.8 1.6 1.7 2 0 .1-.7-.3-1.2-1-1.5 1.6-1-.1-3-1.4-2.3zM126.9 2c-.6.3-1.2.6-1.8.6 1.1 1 1.6 2.5 3.2 2.9.6.2 1.7-.1 2.7-.3v-.6c-1-.1-1.1-.1-1.7-.1.6-.1.7-.1 1.7-.1v-.3c-2-.6-2.5-1-3.8-1.1 1.3 0 1.8.3 3.8.8v-.3c-1-.2-.6-.3-1-.5.3.1 0 .2 1 .3v-1l-.2-.1c-1.2-1.1-2.6-.9-3.9-.2zm3.3-1.6c.1.4.3.8.5 1.2V.4h-.5zm-4 25.3c-.1.1-.1.3.1.3.8 0 1.1.6 1.6 1.1.4.4 1.1.7 1.6.8.4.1.5.1 1.5 0v-2.7c-1-.1-1.1-.2-1.6-.3-1.1-.2-2.3 0-3.2.8zm4.8 13.2v-2.1c-1 .3-.9.7-1.3 1 .5.3.3.7 1.3 1.1zm-.4 59.4c.1.1.4.1.4.2v-2.1c-1-.1-.6-.2-.8-.2.3 0-.2.1.8.1v-1.6c-1 .3-1.8.9-2.5 1.3.8.8 1.2 1.6 2.1 2.3zm-4.2-14.7c-.1.1-.1.3.1.3.8 0 1.1.6 1.6 1.1.4.4 1.1.7 1.6.8.4.1.3.1 1.3 0V83c-1-.1-1-.2-1.4-.2-1.1-.2-2.4 0-3.2.8zm4.4-18.6c-.4.1-2.5.3-3 .6-.7.3-1 1.3-1.2 2-.3 1-.6 1.9-1 2.9 1.4 0 2.9.4 4.2-.3.3-.2.2-.4 1.2-.6V68c0 .1-.4.2-.5.4-.4.5-1.3.7-1.9 1.1.5-.5 1.3-.9 1.7-1.4.2-.3-.3-.5.7-.8v-.4c-1 .4-1.4.7-1.7.9-.4.3-.9.6-1.3 1-.1.1-.8.5-.8.5 0-.1.7-.5.9-.7.4-.4.7-.9 1.1-1.3.2-.2.9-.8 1.5-1.1-1-.1-1.9.8-2.7 1.3.8-.6 2.1-2 3.1-1.9-.1-.3-.3-.3-.3-.6zm-1.9-22c-.2-.1-.3.2-.1.3 1 .4 1.2 1.5 2.2 2.4V45c-1-.8-1.2-1.6-2.1-2zM45.3 90.2c-.3-.6-.8-1-1.3-1.3-1-.6-2.3-1.2-3.7-.7-.5-1-1.1-2-1.8-2.9.2.1.3.2.5.2.4.1.9.3 1.3.4.6.2 1.2.2 1.8.3.1.4.4.7.8.7s.8-.3.8-.8c0-.4-.3-.8-.8-.8-.4 0-.7.3-.8.7-.5 0-1-.1-1.5-.2-.4-.1-.7-.2-1.1-.3-.2-.1-.3-.1-.5-.2.4.1.9.1 1.3 0 1-.2 1.7-.6 2.3-1.4h.2c.4 0 .6-.3.6-.6 0-.4-.3-.6-.6-.6-.4 0-.6.3-.6.6 0 .2.1.4.3.6-.2.2-.4.5-.6.7-.4.3-.9.4-1.3.6-.5.1-1 .1-1.6.1-.7-.1-1.1-.6-1.6-1.1-1-.9-2.2-1.7-3.4-2.3 0 .1.1.3.1.4 1.1.6 2.2 1.3 3.2 2.1 1.9 1.7 3.1 4 3.8 6.4.1.4.2.8.4 1.2.1.2.4.9-.3.9-.2 0-.3.1-.4.2-.6.3-1 .9-1.3 1.4-.2.3-.3.7-.4 1-.2.8-.4 1.4-.4 2.2 0 .8.3 2.2.4 2.2h.6c.5-2 1.3-4.2 2.1-6.2-.2 2.1-1.1 4.2-2.1 6.2h.9c.4 0 .8-.4 1.2-.7.6-.5 1.1-1.1 1.4-1.8.5-1.1.8-2.6-.1-3.6-.1-.1-.3-.2-.4-.3-.1-.1-.3-.1-.5-.2-.4-.2-.3-1-.3-1-.3-1.3-.7-2.6-1.3-3.8.1 0 .1.1.2.1.7 1.2.7 2.6 1.8 3.6 1 1 2.9.7 4.1.6.1 0 .2-.2.1-.3-.8-.6-1-1.5-1.5-2.3zm-2.1.5c-.6-.7-1.1-2.1-2.1-2.2h.1c1.1-.1 1.9 1.5 2.5 2.2.5.6 1.4 1.5 1.9 1.7-1-.2-1.7-.9-2.4-1.7zm76-5.7c-.6 1.7-3 1.3.8 8-.6-3.2 2.1-5.5-.8-8zm4-3c.3-.3.6-.7.8-1 .3-.5.5-1.2.3-1.8-.3-1.1-1.3-1.9-2.4-2.1-1.1-.2-2 .2-2.6 1.3-1 1.6.5 3 1.4 4.3-.1-.2-.1-.3-.2-.4-.3-.8-.5-2.2.6-2.5-.5.8-.5 2.6.7 4.1 0 0 0-.2-.1-.2.1-.9.9-1.1 1.5-1.7zm-5.2 8.6c-3.3-7.9-5-5-6.5-6.9-.1-.2-.3.1-.2.2.5 1-.6 6.6 4 9 .8.4 4 2.8 5.8 4.1-.8-2.2-2.8-5.8-3.1-6.4zM40.8 68.2c1.3-.1 2.5-.5 3.6-1.3.9-.7 1.5-1.7 2.2-2.5.1 0 .2-.1.3-.1-.3.3-.5.6-.8.9-1 1.3-1.6 2.8-1.9 4.3.1.1.2.1.3.2.3-1.5.9-2.9 1.8-4.2.2-.4.5-.7.8-1-.5 1.1-1 2.3-.5 3.4.6 1.3 2 1.8 2.8 2.9.1.2.1.4.2.6.2.5.3.3.4-.1.1-1.3.5-2.6.3-3.8-.1-.6-.4-1.2-.8-1.7-.6-.7-1.3-1.2-1.7-2 .8-.8 1.8-1.4 2.8-2 1.3-.7 2.7-1.3 4.2-1.5 0-.1-.1-.2-.1-.3-1.5.3-2.9.8-4.3 1.6-1 .5-2 1.2-2.8 2-.9-.3-1.4-1-2.2-1.6-.5-.4-1.1-.6-1.8-.6-1.3-.1-2.5.5-3.8.6-.4 0-.4.3-.1.4.2 0 .4.1.6.1 1.2.8 1.8 2.1 3.1 2.6.8.3 1.6 0 2.4-.3-.6.8-1.2 1.6-2 2.1-1.1.7-2.9 1.2-4.2.9-1.8-.5-1.5-2.7-.2-3.5.9-.5 1.7.3 1.7 1.1 0 .4-.1.7-.3 1-.2.2-.4.3-.6.2-.1 0-.9-.5-.4-.7.2-.1.1-.4-.1-.3-.7.2-.3.8.1 1.2.7.5 1.3-.1 1.6-.7.3-.8-.1-1.7-.8-2.1-.8-.4-1.6.2-2.1.7-.6.8-.6 1.7-.1 2.5.4.8 1.4 1 2.4 1zm6.5-3.4c.1.6.5 1.8.9 2.4.5.8 1.7 2.1 1.2 3.1v.1c.3-1-.9-2-1.3-2.7-.5-1-.9-1.9-.8-2.9zm-3.8-1.4c-.8-.4-1.9-1.5-2.8-1.1 0 0 .1 0 .1-.1.9-.6 2.3.6 3.2 1 .7.4 1.9.8 2.5.8-1.1 0-2-.1-3-.6zm74 31.4c-4.2-1.7-5.5-4.7-7.7-3.5-.1 0-.1.1 0 .2 1.4 3 3.5 3.5 7.7 3.3zM47.8 83.7c2.3-.8 4.6-1.7 7.1-1.8 1.3-.1 2.6.2 3.8.7 1.2.5 2.2 1.3 3.3 2-1.7-1.7-4.1-3-5.8-3.4-1.7-.5-4-.6-5.6.2 1.5-.9 3.7-.9 5.4-.6.9.2 1.9.5 2.9.9-1.4-1.1-3-2-4.5-2.3-1.3-.2-2.8-.3-4 .4-1.4.9-2.2 2.2-2.9 3.6 0 .2.1.4.3.3zm5-20.9c-.1.4-.2.9-.3 1.3 0 .1-.2 1.2-.3 1.2 1.1-.4 2.2-.2 3.4 0 .8.1 1.7.2 2.4-.2.9-.5 1.3-1.6 1.4-2.6-.3-.2-.6-.4-.8-.7 0-.1-.5.5-.5.5-.4.8-.9 1.3-1.8 1.6.6-.3 1.1-.7 1.2-1.4 0-.1.3-.8.5-1.2-.7.1-1.3 1-1.8 1.4-.8.6-1.8.7-2.6 1.4.7-.8 1.8-1 2.5-1.8.4-.4.8-1 1.3-1.4-1.2-.1-2.1.6-3.3 1.1 1.3-1 2.2-1.9 3.8-1.8V60c0 .2-1.4.1-1.5.1h-1c-.5 0-.9.1-1.3.4-.6.7-1 1.6-1.3 2.3zm-2.6 12c-.1 0-.1.1-.1.2.8 3.2 2.8 4.1 7 4.7-3.8-2.5-4.5-5.7-6.9-4.9zm67.3 24.4c-.9.2-1.8.8-2.6.8h7.3c.5 0 1.1 0 1.6.1-2-.9-4-1.5-6.3-.9zm.9-95c1.3-.1 3.1-.4 4-1.5.6-.7.7-1.7.8-2.7h-1.4c-.2 1-.3 1-.5 1.3-.5.9-1.1 1.8-2.1 2.2v.1c.5-.3 1.3-1.5 1.6-2.2.2-.3.4-.4.6-1.4h-1.8c-.2 1-.4.8-.6 1.2-.3.9-.4 1.9-.9 2.6.1.1.2.4.3.4zM19.1 98.4c-.4-.4-2.4-.7-2.8-.8 0 .3.1.2-.1.5 1.1 0 1.8 1.9 2.6 1.9H20c-.1 0-.4-1.2-.9-1.6zm92.5-71.5c-.1-.1-.3.1-.2.3.3.5.3 2.4 1 4.4.6 1.7 1.6 3.4 3.8 4.3.9.4 4.2 2.4 6.1 3.5-1-2.1-3.4-5.5-3.7-6.1-.3-.6-.6-1.2-.9-1.7-3.3-5.6-4.6-3.1-6.1-4.7zm-.6 55.2c.5-.8.5-2.6-.7-2.7-.4 0-.9.1-1 .6-.1.3 0 .9.5.9.1 0 .2-.2.1-.3l-.1-.1c-.2-.4-.1-.6.2-.7.2-.1.5 0 .7.1.5.3.5 1.2.4 1.6-.3 1.3-1.9 1.6-2.9.9-.7-.6-1-1.5-1.2-2.3 0-.1 0-.3-.1-.4-.1-.5-.2-1.1-.2-1.6v-1-.6c-.1-1-.7-1.9-1.5-2.5.8.2 1.6.4 2.4.3.4 0 .7-.1 1-.4.3-.2.3-.6.6-.8.1-.1 0-.2-.1-.1-.8.4-1.6-.3-2.5-.3-.8 0-1.3.8-2.2.9-1.1-.4-2.2-.2-3.3.2.2-.3.4-.7.6-1 .6-1.3.1-3.1-.9-4.1-.1-.1-.4.1-.2.2.3.3.6.8.8 1.2.2.4.3.8.3 1.2 0 .7-.3 1.5-.7 2.1-.4.6-.7.8-2.1 1.4.4-.2 1.7-1 1.8-1.2.3-.3.5-.7.5-.8-1.2.8-3.1 2-4.2 2.8-1 .7-2.1 1.4-2.5 2.5-.1.2.2.3.3.1.2-.4.4-.7.7-1 .5-.5 1.1-1 1.8-1.3.6-.3 1.3-.4 1.9-.6.6-.2 1.1-.5 1.5-.9 1.7-.8 3.6-1 5 .5.5.6.8 1.3.8 2.1v.2c-.1.8-.4 1.5-1.1 2-.9.6-2.4.6-2.7-.7-.2-.7.2-1.4.7-1.8.2-.2.5-.3.8-.2.4.1.4.7.2 1-.1.1-.3.2-.3.3.1-.2-.1-.4-.2-.2-.4.5.4.5.7.2.5-.5.4-1.4-.3-1.6-.7-.1-1.6.6-1.8 1.2-.3.9-.1 1.9.7 2.3 1.3.8 2.8-.2 3.4-1.5v.6c0 .5.1.9.2 1.4v.1c0 .7-.6 1.2-.7 1.9-.1.8.5 1.4.5 2.2 0 .1.2.2.3.1.5-.6.8-1.3.7-2v-.3c.1.1.2.3.3.4.6.8 2.3.7 3.1-.5zm7.6-50.6c.4.9 1 2.2 2.3 4-.4-1.4-.1-2.7.1-4 .2-1.4.1-2.8-1.5-4-.5 1.3-1.9 1.5-.9 4zM109 59.1c-1.2.6-2.2 1.7-3 2.7-.4.6-.7 1.2-1 1.9-.2.4-.6 1.3-.5 1.7-.1-.9.3-2.1.6-2.9.4-1 1.1-1.9 1.7-2.8.4-.6.8-1.2.9-1.9.2-.8.3-1.5.6-2.3 0-.1-.1-.3-.3-.2l-1.7 1.7c-1.1 1.1-2 2.2-2.6 3.7-.4 1-.1 1.8.1 2.7.3-1 .8-2.4.9-2.7.6-1.2 1.3-2.2 2.1-3.2-.9 1.4-2.9 4.8-2.8 7.4 0-.1-1.2-6.1-2.1-8.1-1.1-2.4-3.4-2.9-5.7-3.8-.1 0-.2.1-.2.2.4 1.7.2 3.3 1.5 4.6.9.9 2.1 1.4 3.1 2.2.6.4 1.4 1.6 1.8 2.2-.1-1.1-1-2.6-1.6-3.6-1.1-1.5-2.4-2.7-3.5-4.1 1.3 1.4 2.9 2.1 4.1 4.1 1.5 2.5 2.2 5.9 2.4 6.5.2.8.3 1.6.2 2.4 0-.3-.1-.6-.3-.8-.4-.6-1.2-1.1-1.4-1.7 0-.1-.3-.2-.3 0-.1.6-.3 1.4.1 2 .4.6 1.3 1 1.5 1.7.2.5-.2 1-.5 1.5-.4.7-.7 1-1.3 1.6-.1.2-.3.8-.3.9.2-.1.5-.5.7-.7 1.3-1.4 2.1-3.2 2.2-5 0 0 .4-2.6 1.3-3.6.8-.9 1.8-1.9 2.8-2.5-1 .6-1.9 1.7-2.6 2.7-.5.6-.8 1.3-.9 2 .2-.2.4-.4.7-.6.8-.7 1.7-1.2 2.5-1.8 1.1-.7 2.1-1.8 2.3-3.2.2-.9-.5-1.4-1.5-.9zm12.7-39.9c-1.1-.2-2 .2-2.6 1.3-1 1.6.5 3 1.4 4.3-.1-.2-.1-.3-.2-.4-.3-.8-.5-2.2.6-2.5-.5.8-.5 2.6.7 4.1 0 0 0-.2-.1-.2.2-.9 1-1.2 1.6-1.7.3-.3.6-.7.8-1 .3-.5.5-1.2.3-1.8-.4-1.1-1.4-1.9-2.5-2.1zM43.6.4h-1.2c.4.2.7.2 1.2 0zM11.9 2.9c.1-.2.2-.3.4-.5.3-.5.7-1.2 1-1.6.1-.2.2.2.3-.8h-.8c-.2 1-.4 1.3-.5 1.8-.1.3-.2.8-.4 1.1zm18-2.9h-1.3c.1 1 .1 1.5-.2 2.4.7-1 1.2-1.4 1.5-2.4zM.6 79.2c-.1-.4.4-.7-.6-.9v2.9c0-.1.2-.2.2-.2.3-.6.6-1.2.4-1.8zM10.7 2.9c.3-.1.5-.1.8 0 .4-.4.6-1.1.9-1.6.1-.4.2-.3.4-1.3h-1.4c-.4 1-.7 1.9-.7 2.7-.1 0-.1.2 0 .2zm-.4.1c0-.8.3-1.7.7-2.5 0 0 .1 0 .1-.1V0H9.2c.3 1 .8 2.2.9 2.8.2 0 0 .2.2.2zm-2.9-.9c.4.7 1 1.3 1.6 1.8 0-.1 0-.1.2-.3-.3-.2-.5-.8-.7-1.1C8.1 1.8 7.8 1 7.1 0h-.5c.2 1 .4 1.3.7 1.9l.1.2zm2.1-.3c0-.1-.2-.8-.4-1.8h-.9c.5 1 1.1 1.8 1.4 2.6 0-.2 0-.7-.1-.8zM.3 42v.5c.5-.1 1-.1 1.5-.1-.5-.2-1-.3-1.5-.4zM0 37.5v2.3c1 .6 1.3 1.2 2.1 1.8-1-1.2-1.1-2.7-2.1-4.1zm10.6-30c-.1.1-.1.1-.1.3 0 .2-.1.4-.1.7 0 .4 0 .7.2 1.1.3.7.8 1.3 1.4 1.8.1.1.2.2.3.2.9.6 2 .8 2.9 1.5.2-1.2.1-2.3-.3-3.5-.7-2.1-2-2.7-2.4-3-.1.2-.1.1-.2.2v.1c.6.9.8 2.1 1.7 2.8-.8-.5-1.2-1.4-1.7-2.1-.1-.2-.3-.4-.4-.5.1.3.2.7.3.9 0 .1.1.2.1.4.1.3.2.7.4 1 .4.7 1 1.4 1.5 2-.6-.7-1.3-1.3-1.7-2.1-.1-.1-.1-.2-.2-.3-.2-.5-.4-1.2-.7-1.5.2.9.1 1.8.4 2.7-.3-.9-.6-1.7-1-2.6 0-.1-.4-.1-.4-.1zm2.2-3.1c.1.1.2.1.2.2v.1c1.6-.5 2.2-.4 3.2-.7-.9.3-1.7.9-2.7 1.1.7.1 1.3.1 2 0 .8-.1 2-.2 2.8-.2-.9 0-2 .6-2.9.8-.4.1-.9-.1-1.3-.1.8.3 1.6.6 2.5.5-1.2.3-2.5-.2-3.7-.2l-.2.4c.4.3.8.6 1.1 1 1.3.7 2.6.5 3.7-.3.9-.6 1.5-1.4 2.4-2-1.6-1.1-3.1-3.4-7.1-.6zm-.5-1.5c-.1.1-.1.2-.2.3.1 0 .1-.1.2-.1.9-.7 1.8-1.9 2.8-1.9-1.1.2-1.8 1.8-2.7 2.6.2.2.1.2.3.4 1.3-.5 2.5-1.4 3.2-2.5.3-.6.5-.7.6-1.7H14c-.2 1-.3.8-.4 1-.4.6-.9 1.3-1.3 1.9zm10.2 5.7l.6-.6c.8-1.1 1.5-2.4 1.9-3.6.4-1.4.3-2.4.3-4.4H24c-.1 1-.1 1.4-.1 1.9 0 1.3.2 4.1-1.4 6.7zM.3 41v.4c.7.1 1.3.3 2 .5-.7-.4-1.3-.7-2-.9zM9 2.3C8.8 1.5 8.4 1 8 0h-.9C7.7 1 8.5 1.4 9 2.3zM5.3 5.9c-.7.3-1 1.3-1.2 2-.3 1-.6 1.9-1 2.9 1.4 0 2.7.4 4.1-.3 1.1-.6 2.4-1.7 2.9-3-.4-.1-.6 0-.9-.4-.4.6-.8 1-1.2 1.5-.6.6-1.4.7-1.9 1.1.5-.5 1.2-.9 1.6-1.4.4-.5.6-.9 1-1.4-.8.5-1.7.9-2 1.1-.4.4-.8.7-1.2 1-.1.1-.8.5-.8.5 0-.1.7-.5.9-.7.4-.4.7-.8 1.1-1.2.2-.2 1-.8 1.5-1.1-1-.1-2.1.8-2.9 1.3.8-.6 1.8-2 2.9-1.9-.1-.3 0-.3 0-.6-.5.1-2.5.3-2.9.6zM.7 15.8c.7-.2 1.4-1 2.1-1 .5-.1 1 .5 1.3.8.6.5.8 1 1.2 1.7.2.1.7.4.8.5-.1-.2-.4-.7-.5-.9-1-1.6-2.7-2.8-4.5-3.4 0 0-.2-.2-1.2-.5v.7c1 .1 1.2.2 1.7.4-.3 0-.6-.1-.9 0-.2.1.3.2-.7.4v1.4s.5-.1.7-.1zM12.3 4c-.4-.5-1-.9-1.7-.7-1.2.3-2 1.2-2.1 2.2-.1 1 .8 1.7 2.1 1.7.8 0 1.3-.4 1.7-.8.2-.3.4-.7.4-1 .1-.6-.1-1-.4-1.4zm-.7-.3c.1 0 .6.3.5.4 0 .1-.3.3-.4.2-.1 0-.1-.1 0-.2 0-.1-.2-.4-.1-.4zm-.4 1c.1 0 .1.1.1.2s-.1.2-.2.1c-.1 0-.1-.1-.1-.2s.1-.1.2-.1zm-.6-.9c0-.1.2-.1.3-.1.1 0 .2.2.2.3 0 .1 0 .4-.1.3-.1-.1-.5-.3-.4-.5zm0 .8c.1 0 .2.1.2.1s-.1.3-.3.3c-.1 0-.2-.4-.2-.4h.3zm-.4-.7c.1 0 .1.1.1.2s-.1.1-.2.1c-.1-.1-.2-.1-.1-.2 0-.1.1-.1.2-.1zm-.5.6s.1-.1.2 0c.1 0 .2.1.2.2 0 0-.2.3-.3.3-.1-.1-.1-.5-.1-.5zm-.9 1.4c-.1 0-.1-.1-.1-.1s.1-.5.1-.4c.1-.1.2.4.2.4 0 .1-.1.1-.2.1zM9 4.5c0-.1.1-.2.2-.2s.3.3.3.4c0 .1-.3.1-.4 0-.1.1-.2 0-.1-.2zm.2.7c0-.1.1-.2.2-.2s.2.4.2.5c0 .1-.2-.1-.3-.1-.1 0-.1-.1-.1-.2zm.3 1.6c-.1 0-.1-.1-.1-.1 0-.1.1-.1.1-.1.1 0 .1.1.1.1l-.1.1zm.1-.7c-.1 0-.2-.1-.2-.2s.1-.1.2 0c.1 0 .2.1.2.2h-.2zm.3-.9c.1-.2.1-.2.2-.2s.1.1 0 .2c0 .1-.1.2-.2.2v-.2zm.4 1.4c-.1 0-.3-.1-.3-.2s.3-.1.4-.1c.1 0 .1.1.1.2s-.1.1-.2.1zm.1-.7c-.1 0-.2-.2-.1-.3 0-.1.2-.2.3-.2.1 0 .3.2.3.4-.1.1-.4.1-.5.1zm.8.8c0 .1-.1.2-.2.2s-.3.1-.2 0c0-.1.3-.4.4-.4v.2zm.2-.5c-.1 0-.5-.1-.5-.2s.4-.3.5-.3c.1 0 .1.1.1.2 0 .2 0 .4-.1.3zm.1-.9c-.1 0 .2-.2.3-.3 0-.1.1-.2.2-.2v.3c.1.3-.4.3-.5.2zm.6.6c0 .1-.1.2-.2.2 0 0-.1-.1 0-.2 0-.1.1-.2.2-.2v.2zm.2-.7c-.1 0-.1-.1-.1-.1s0-.1.1-.1.1 0 0 .2c.1 0 0 0 0 0zm8.6 4.7c.2-.2.4-.5.5-.7.5-1.2.6-2.7.7-4 .1-1.7 0-3.2.2-5.2h-1.4c-.1 1-.1.8-.1 1.1 0 1.4.2 2.8.3 4.2.1 1.4.4 3-.2 4.6zm30.2-5.8c.4-.6.2-1.4-.3-2 1.1-.1 1.3-1.1.9-2.1h-2.3c.3 1 .2 2.1-.1 3.1-.7.6.7 2.4 1.8 1zm-28.8 4c.6-1.3 1-3 1-4.4.1-1.2 0-1.6-.1-3.6h-.9c-.1 2 .1 3 .1 4.5 0 .8.1 2.3-.1 3.5zm-19 14.1c.1-.7-.3-1.2-1-1.5 1.6-1-.3-3-1.6-2.3 0-.6.3-1.1-.7-1.4v2.7c1 .7 1 1.5 1.1 2.5-.3.8 1.8 1.7 2.2 0zm75.2-5.7c.2.9.3 1.8.1 2.6l.1.1c.4-1 1.8-3 1.9-2.9-.1-.1-1 1.9-1.1 2 0 .1-.2.7-.2.9.7-1.1 2.1-2.4 2.9-3.4-.7 1.1-1.7 2.1-2.4 3.3.7-.8 1.6-1.5 2.3-1.9-.7.5-1.2 1.3-1.8 2-.2.2-.5.6-.8.8.1.1.1.1.2.3.7-.4 1.3-.9 1.8-1.4l.1-.1c1-1.1 1.6-2.4 1.8-4-1.6.4-4.7-.6-4.9 1.7zM60.8 7.3c-.7 1.7-3.1 1 0 8.1-.3-3.3 2.6-5.3 0-8.1zM.7 37.2c.4 1.3 1.1 2.4 1.8 3.5l.6.6c-1.5-2.6-1.3-5.2-1.3-6.5 0-1 0-2.2-.3-3.3h-.2c-.2-.9-.3-1.9-1.3-2.7v2.3c0 .1.2.3.2.4.2 1.9-.1 3.9.5 5.7zM65.2 0h-1.1c-.1 1-.1.6-.2.9V0h-1c-.1 1-.2 1.3-.3 2V0h-1.5c0 2 .4 2.7 1 4 1.8-.9 3.1-2 3.1-4zM4.6 5.6c.8.2 2.6-.4 3.1-.4.1-.1.3-.1.5-.2v-.1c-1-.3-1.8-.4-2.9-.3 1-.2 1.7-.2 2.6 0C6.6 3.7 5 3.1 3.3 3c1.7 0 3.3.5 4.8 1.2-.6-.6-1.2-.9-2-1.2.9.2 1.8.6 2.4 1.3 0-.1.1-.1.1-.2C8 3.6 7.5 3 7.1 2.3c-1.2-1.2-2.4-1-3.7-.3-.6.3-1.2.6-1.8.6 1 1 1.4 2.5 3 3zm-4.3 35v.1c.2.1.5.2.7.3-.2-.2-.5-.3-.7-.4zm0-19.3c-.1-.3-.3-.5-.3-.7V23c1-.5.5-1.1.3-1.7zm0 78.3c.2.1.4.1.6.2l-.6-.3v.1zm0-.7c.2.2.5.4.7.6-.3-.4-.5-.8-.7-1.2v.6zM6.1.9c0-.1 0-.1-.1-.1 0-.1-.1-.2-.1-.2V.5h-.5c.1.2.3.4.4.6.1.2.4 0 .3-.2zM.8 92.8c.2-1.6.2-3.7-.8-5.6v9.9c1 .6.7 1.1 1 1.7.2.2.3.5.5.7-1.2-2.8-.8-5.4-.7-6.7zM44.3 3.3c0-.8.5-2.2 1.6-2-.8.5-1.6 2.2-1.2 4v-.2c.6-.7 1.4-.6 2.2-.9.4-.1.8-.4 1.1-.6.5-.4.9-1.1 1-1.7.1-.6 0-1-.3-2H44c-.3 1 .1 2.5.3 3.6-.1-.1 0-.1 0-.2zm-32 41.6c.4-.2.9-.4 1.3-.7.6-.4 1.2-1 1.4-1.7.1-.4.2-.7.2-1.1 0-.2 0-.4-.1-.7 0-.1 0-.2-.1-.3h-.4c-.4.9-.7 1.7-1 2.6.2-.9.2-1.8.4-2.7-.4.4-.7 1.4-.9 1.8-.2.4-.5.8-.8 1.1-.3.3-.6.7-.9 1 .3-.4.6-.7.9-1.1.2-.3.4-.5.6-.8.3-.4.4-.9.6-1.3.1-.3.2-.7.3-.9-.5.6-.9 1.4-1.4 2-.2.2-.4.5-.7.6.3-.2.5-.5.7-.8.4-.6.6-1.4 1.1-2-.2-.1-.1-.1-.2-.2-.2.1-.5.3-.9.6-.5.4-1.2 1.1-1.6 2.4-.4 1.2-.5 2.3-.4 3.5.6-.7 1.2-1 1.9-1.3zm10.1-9.8c-1.3-.7-2.5-.9-3.7.2-.4.7-1 1.3-1.7 1.8 0 .1.1.1.1.2.7-.7 1.5-1 2.4-1.3-.7.3-1.4.6-1.9 1.2 1.5-.7 3.1-1.2 4.8-1.2-1.7.1-3.3.7-4.8 1.5.9-.1 1.6-.1 2.6.1-1.1-.1-1.8 0-2.9.3v.1c.2 0 .4.1.5.1.5.1 2.3.7 3.1.5 1.7-.4 2-1.9 3.1-2.9-.5 0-1.1-.3-1.6-.6zm-7 .8h.1c.2-1 1.2-3.3 1.3-3.2-.1-.1-.7 2-.7 2.1 0 .1-.1.7-.1 1 .5-1.2 1.7-2.8 2.3-3.9-.5 1.2-1.3 2.4-1.7 3.7.5-.9 1.3-1.7 1.9-2.3-.6.6-1 1.5-1.5 2.3-.2.2-.4.7-.6.9.1.1.1.1.3.2.6-.5 1.1-1.1 1.6-1.8.8-1.3 1-2.3 1-3.6v-.7c-.7.4-1.9.4-2.9.7-1 .3-1.7.7-1.6 1.9v.1c.4.9.7 1.8.6 2.6zM49 21.6c-.1.1.1.3.2.2 2.2-1 4.5-2.1 6.9-2.4 1.3-.2 2.6-.1 3.9.4 1.3.4 2.3 1.1 3.5 1.7-1.9-1.5-4.4-2.6-6-2.9-1.7-.4-4-.3-5.5.7 1.4-1 3.6-1.2 5.3-1.1.9.1 2 .3 3 .7-1.5-1-3.2-1.8-4.7-1.9-1.3-.1-2.8 0-3.9.8-1.4.9-2.1 2.4-2.7 3.8zm-35.9 9.9c-.3-.3-.5-.5-.8-.7-.9-.7-1.8-1.1-2.9-1.3 0 .7-.1 1.4-.1 2-.1 1.1-.1 2.2.5 3.1.6 1 1.5 1.6 2.5 2.1.2.1.5.2.7.3.1-.2.1-.3.3-.4-.3-.3-.6-.7-1-1.1-.5-.7-1-1.4-1.7-1.5.6.1 1.2.5 1.7 1 .4.4.9.8 1.3 1.1-.4-.6-.9-1.1-1.3-1.7-.1-.1-.1-.2-.2-.2-.4-.6-.9-1.9-1.5-2.6l-.3-.3.3.3c.5.6 1.1 1.5 1.6 2.2 0 .1.1.1.1.2.4.7.8 1.3 1.3 1.9-.6-1.2-.8-2.6-1.4-3.7.7 1.2 1.1 2.6 1.9 3.7.3-.1.5 0 .8 0h.1c0-1.4-.9-3-1.6-3.9 0-.2-.1-.4-.3-.5zM0 42.9v1.2c2-.4 3.1-.6 4.4-.7-1.2-.7-2.4-.8-4.4-.5zm79.8-17.8c-.3-.5-.6-1-.9-1.7-.4.2-.5.2-1 .2.2 1.4 1.2 2.7 2.2 3.5 1.2 1 2.5.8 3.9 1.1-.2-1-.3-2-.4-3-.1-.8-.2-1.7-.8-2.2-.4-.4-2.3-1-2.7-1.1 0 .3 0 .3-.1.6 1.1.1 1.8 1.7 2.5 2.4-.7-.7-1.6-1.9-2.5-1.9.5.4 1.1 1.1 1.2 1.3.3.5.5 1 .8 1.4.1.2.7.8.7.9l-.7-.7c-.3-.4-.7-.8-1-1.2-.3-.3-1.1-.9-1.7-1.5.3.7.4 1 .7 1.6.3.6.9 1.2 1.2 1.7-.3-.5-1-.8-1.4-1.4zm-68 15.1l.5-.5c.2-.2.4-.4.7-.5l-.2-.4h-.5c-1.1.1-2.2.4-3.3.1.8.1 1.6-.2 2.5-.4-.4 0-.9.1-1.3.1-.9-.2-2-.8-2.9-.8.8 0 2 .1 2.8.3.7.1 1.3.1 2 0-1-.3-1.7-.8-2.7-1.2.9.2 1.5.2 2.8.6.1 0 .2.1.4.1v-.1c0-.2.1-.1.2-.3-.2-.1-.4-.3-.5-.4-3.5-2.2-5-.1-6.5.9.9.6 1.5 1.4 2.3 2 1.2 1 2.5 1.2 3.7.5zM7.5 27.7c.8-.3 1.3-.9 2-1.3.6.5 1 1 1.6 1.6.4.4.9.9.9 1.4v-.6c0-.2-.2-.5-.3-.7-.6-.8-1.3-1.4-2.1-2 0 0 .1 0 .1-.1.3-.9 1.2-1.3 1.9-1.8.2-.2.4-.3.4-.6v-3.4c0-.7-.8-1.3-1.3-1.9-.1-.1-.2-.1-.2.1 0 2.4-2.4 4.6-1.7 6.9-.1-.2-.2-.3-.4-.5-.4-.6-.7-1.3-.8-2-.1-.7 0-1.3-.1-2s-.3-1.5-.7-2.1c-.2-.4-.7-.8-1.1-1.1-1.1-.9-2.9-.9-4.1-.2-.2.1 0 .4.1.3.4-.2 1-.4 1.4-.5.4-.1.9-.1 1.3 0 .7.2 1.4.7 1.8 1.2.5.5.6.9.8 2.4-.1-.4-.6-1.9-.7-2-.2-.3-.6-.7-.7-.7.4 1.3 1.1 3.5 1.6 4.8.3.9.7 2 1.3 2.7-.4-.1-.8-.4-1.3-.5-.6-.2-1.2-.3-1.8-.3-1.1-.1-2.2 0-3 .8.2.2.2.4.4.4.8 0 1.1.6 1.6 1.1.4.4.9.7 1.5.8.5.1 1 0 1.6-.2zM6.1 70.1c1.1-.6 2.4-1.7 2.9-3-.4-.1-.6 0-.9-.4-.4.6-.8 1-1.2 1.5-.6.6-1.4.8-1.9 1.2.5-.5 1.2-.9 1.6-1.4.4-.5.6-.9 1-1.4-.7.5-1.6.9-1.9 1.2-.4.3-.8.6-1.2 1-.1.1-.8.5-.8.5 0-.1.7-.5.9-.7.4-.4.7-.9 1.1-1.3.2-.2 1-.8 1.5-1.1-1.1-.2-2.2.8-3 1.2.8-.6 1.8-2 2.9-1.9-.1-.3 0-.3 0-.6-.4.1-2.5.3-2.9.6-.7.3-1 1.3-1.2 2-.3 1-.6 1.9-1 2.9 1.5 0 2.7.4 4.1-.3zm5.5-5.2c.1-1-.9-2.3-2.1-2-1.2.3-2 1.2-2.1 2.2-.1 1 .8 1.7 2.1 1.7 1.3-.1 2-.9 2.1-1.9zm-.5-.2c0-.1.1-.1.1-.1s.1.1 0 .1c0 .1-.1.1-.1.1v-.1zm-1 1.6c0 .1-.1.2-.2.2s-.3.1-.2 0c0-.1.3-.4.4-.4v.2zm.9-.7c0 .1-.1.2-.2.2 0 0-.1-.1 0-.2 0-.1.1-.2.2-.2s.1.1 0 .2zm-.5-2.3c.1 0 .6.3.5.4 0 .1-.3.3-.4.2-.1 0-.1-.1 0-.2 0 0-.2-.4-.1-.4zm.2 1.4c0-.1.1-.2.2-.2s0 .2.1.3c.1.3-.5.3-.5.2-.2 0 .1-.2.2-.3zm-.2.9c0 .1 0 .3-.1.3s-.5-.1-.5-.2.4-.3.5-.3c.1 0 .1.1.1.2zm-.3-1c0 .1-.1.2-.2.1-.1 0-.1-.1-.1-.2s.1-.2.2-.1.1.1.1.2zm-.6-1.2c0-.1.2-.1.3-.1.1 0 .2.2.2.3 0 .1 0 .4-.1.3-.2 0-.5-.3-.4-.5zm-.1.9c.1 0 .2.1.2.1s-.1.3-.3.3c-.1 0-.2-.4-.2-.4.1-.1.2-.1.3 0zm0 .7c.1 0 .3.2.3.4 0 .1-.3.2-.4.1-.1 0-.2-.2-.1-.3 0-.2.1-.2.2-.2zm-.4-1.4c.1 0 .1.1.1.2s-.1.1-.2.1-.1-.1-.1-.2.1-.1.2-.1zm-.4.5s.1-.1.2 0c.1 0 .2.1.2.2 0 0-.2.3-.3.3-.2-.1-.2-.4-.1-.5zm-.9 1.4c-.1 0-.1-.1-.1-.1s.1-.5.1-.4c.1 0 .1.5.1.5s-.1.1-.1 0zm.1-1.3c0-.1.1-.2.2-.2s.3.3.3.4c0 .1-.3.1-.4 0-.1 0-.1-.1-.1-.2zm.2.7c0-.1.1-.2.2-.2s.2.4.2.5c0 .1-.2-.1-.3-.1-.1 0-.1-.1-.1-.2zm.3 1.5c-.1 0-.1-.1-.1-.1 0-.1.1-.1.1-.1.1 0 .1.1.1.1 0 .1 0 .1-.1.1zm.1-.6c-.1 0-.2-.1-.2-.2s.1-.1.2 0c.1 0 .2.1.2.2h-.2zm.3-1c0-.1.1-.2.2-.2s.1.1 0 .2-.1.2-.2.2v-.2zm.5 1.5c-.1 0-.3-.1-.3-.2s.3-.1.4-.1c.1 0 .1.1.1.2 0 0-.1.1-.2.1zm72.6-47.2c-.5.6-1.2 1.1-2 1.5 0 .1.1.1.1.2.8-.5 1.7-.7 2.6-.8-.8.1-1.5.4-2.1.8 1.6-.4 3.3-.6 4.9-.3-1.7-.2-3.4.1-5 .6.9.1 1.6.2 2.6.6-1.1-.3-1.8-.3-2.9-.2v.1c.2.1.4.1.5.2.5.2 2.1 1.1 2.9 1 1.7-.1 2.3-1.5 3.6-2.3-.6-.2-1.1-.5-1.6-1-1.1-.9-2.3-1.3-3.6-.4zM18.8 64.6c-1.5-1-3-3.1-6.5-1-.2.1-.4.2-.5.4.1.2.1.1.2.3v.1c.1 0 .3-.1.4-.1 1.3-.4 1.9-.4 2.8-.6-.9.3-1.7.9-2.7 1.1.7.1 1.3.1 2 0 .8-.1 2-.2 2.8-.2-.9 0-2 .6-2.9.8-.4.1-.9-.1-1.3-.1.8.3 1.6.6 2.5.5-1 .3-2.2-.1-3.2-.2h-.5l-.2.4c.2.2.5.4.7.6l.4.4c1.3.7 2.6.5 3.7-.3.8-.7 1.4-1.5 2.3-2.1zm-2.5 35.7h.9c-.4-.3-1-.7-1.6-1.2.4.5.5.8.7 1.2zm-.3-2.8c-.1-1-.9-1.8-2.1-2.2-.6-.2-1.2.1-1.6.5-.4.4-.6.9-.5 1.4 0 .4.2.9.5 1.2.4.4.9.7 1.6.7 1.3.2 2.2-.6 2.1-1.6zm-3.8-.3s-.1 0-.1-.1V97s.1 0 .1.1c.1 0 .1.1 0 .1zm2.2-1.2c.1 0 .2 0 .2.1s0 .1-.1.2c-.1 0-.2 0-.2-.1-.1-.1 0-.2.1-.2zm-.2.7s-.1.4-.2.4-.2-.2-.3-.3c0 0 .1-.1.2-.1.1-.1.2-.1.3 0zm-.6-1c.1 0 .2 0 .3.1.1.2-.2.4-.4.5-.1 0-.1-.2-.1-.3 0-.1.1-.2.2-.3zm-.3 1c.1 0 .2 0 .2.1s0 .2-.1.2-.2 0-.2-.1c0 0 0-.1.1-.2zm-.3-1c.1 0-.1.4-.1.5v.2c-.1 0-.4-.2-.4-.3-.1-.1.4-.4.5-.4zm-.5 2.4l-.2-.2v-.2l.2.2c.1.1.1.2 0 .2zm0-1c0-.1 0-.3.1-.3s.2.1.2.2.3.3.2.3c-.1.1-.6.1-.5-.2zm.4.9c0-.1 0-.2.1-.2s.5.2.5.3c0 .1-.4.1-.5.2 0 0 0-.2-.1-.3zm.6.9c-.1 0-.2-.1-.2-.2v-.2c.1 0 .3.3.4.4.1.1-.1-.1-.2 0zm.1-1.1c0-.1.2-.3.3-.4.1 0 .2 0 .3.2 0 .1 0 .3-.1.3-.1.1-.4 0-.5-.1zm.5.9c-.1 0-.2 0-.2-.1s0-.2.1-.2.4 0 .4.1c.1 0-.2.1-.3.2zm.5-1.2c-.1 0-.1-.1-.2-.2v-.2c.1 0 .1.1.2.2v.2zm-.2-.8l.2-.2h.2s0 .4-.1.4c-.1.1-.3-.2-.3-.2zm.3 1.4c0-.1.1-.1.2-.2h.2c0 .1-.1.1-.2.2s-.2.1-.2 0zm.3.7c-.1 0-.1 0-.1-.1s0-.1.1-.1.1 0 .1.1c0 0 0 .1-.1.1zm.2-1.3c-.1 0-.3.2-.3.1s.1-.5.2-.5.2 0 .2.2c0 .1 0 .2-.1.2zm-.1-.7c0-.1.2-.4.3-.4.1 0 .2 0 .2.2 0 .1 0 .2-.1.3-.1 0-.4.1-.4-.1zm.4 1.1s0-.5.1-.5.1.4.1.4 0 .1-.1.1c0 .1-.1.1-.1 0zm-2.2-3.1c.3-.1.5 0 .8.1h.1c.2-1.3-.6-3.1-1.2-4-.2-.3-.4-.6-.6-.8-.9-1-2-1.7-3.3-2-.1 1.7-.9 3.5 0 5.2.6 1.2 1.8 2 3 2.6.1-.2.1-.2.3-.4-.8-.8-1.3-2.5-2.4-2.8 1 .2 1.7 1.3 2.5 2.1l.3.3-.3-.6c-.3-.5-.7-1-.9-1.6-.4-.8-.9-2.4-1.4-3.1.6.7 1.3 2.1 1.8 2.9l.6 1.2c.2.3.3.6.5.9-.2-.6-.4-1.3-.5-2-.1-.6-.3-1.3-.5-1.8.2.4.4.9.5 1.4 0 .8.2 1.7.7 2.4zM94.3.4H94c.1.1.2.2.3 0zM56.2 14.8c.8.5 3.7 3.2 5.4 4.6-.6-2.3-2.3-6-2.5-6.7-2.5-8.2-4.5-5.4-5.8-7.5-.1-.2-.3.1-.2.2.4 1.1-1.2 6.6 3.1 9.4zm2 2.1c-4-2.1-5-5.2-7.3-4.2-.1 0-.1.1 0 .2 1 3.1 3.1 3.8 7.3 4zM25.5 4.1c-.2 1.6-1.1 3.3-2.3 4.6C25.7 7 27 5.2 27.8 2.9c.4-.9.3-1.9.1-2.9h-2.5c.1 2 .2 2.9.1 4.1zm50.2 16.8c-.1 1 .5 1.9 1.7 2.2 1.3.3 2.3-.3 2.4-1.2.1-1-.5-2-1.6-2.5-1.1-.6-2.4.5-2.5 1.5zm1.9-1c0-.1.1-.2.2-.2s.2 0 .3.1c.1.2-.3.4-.4.4-.2.1-.1-.2-.1-.3zm-.4-.4c.1 0-.2.3-.2.4 0 .1 0 .2-.1.2s-.3-.2-.3-.3c0 0 .5-.3.6-.3zm-1.1 1.3c0-.1 0-.1.1-.1 0 0 .1 0 .1.1s0 .1-.1.1-.1 0-.1-.1zm.2 1.1s-.1-.1-.1-.2 0-.2.1-.2c0 0 .1.1.1.2 0 0 0 .1-.1.2zm.1-1c.1-.1 0-.3.1-.3s.2.1.2.2.3.4.2.4c-.1 0-.6-.1-.5-.3zm.3.9c0-.1 0-.2.1-.2s.4.3.4.4c0 .1-.4.1-.5.1v-.3zm.5.9c-.1 0-.1-.1-.2-.2 0-.1 0-.2.1-.2s.3.4.3.5c0 .1-.2-.1-.2-.1zm.2-1.7c-.1 0-.2-.1-.2-.2s0-.2.1-.2.2.1.2.2 0 .2-.1.2zm.1.7c0-.1.2-.3.3-.3.1 0 .2.1.3.2 0 .1-.1.3-.2.3s-.4-.1-.4-.2zm.3 1c-.1 0-.2-.1-.2-.1 0-.1.1-.2.1-.2.1 0 .4.1.4.2.1 0-.2 0-.3.1zm.1-1.6c-.1 0-.2-.3-.2-.3s.1-.1.2-.1h.2c.1 0 0 .3-.2.4zm.7 1.9c-.1 0-.1 0-.1-.1s0-.1.1-.1.1 0 .1.1c0 0 0 .1-.1.1zm0-.7c-.1 0-.2 0-.2-.1s.1-.1.2-.1.2 0 .2.1c0 0-.1.1-.2.1zm.9-.2s0 .1-.1.1-.1 0-.1-.1c0 0 .1-.5.2-.5.1.1 0 .5 0 .5zm-.1-1.4c.1 0 .2.1.2.2s0 .2-.1.2-.4 0-.4-.1c-.1-.1.2-.3.3-.3zm-.4.6c.1 0 .2.1.2.2s0 .2-.1.2-.3.2-.3 0c-.1 0 .1-.4.2-.4zm-.3-.2c-.1 0-.2-.3-.2-.4 0-.1.1-.1.2-.1s.2 0 .2.1c-.1 0-.1.4-.2.4zm-.2-1c.1 0 .2 0 .2.1s-.1.1-.2.2c-.1 0-.2 0-.2-.1 0-.2.1-.2.2-.2zm-.1 1c.1 0 .1.1.1.2s0 .2-.1.2-.1-.1-.1-.2 0-.2.1-.2zM38.7 2.3c0-.1.1-.1 0-.2-2.1-1.4-3.7 1.4-8 2.7 4.2.6 6.3.4 8-2.5zm-5.4 3.1c-1.5-.2-3.3.3-4.9.9 1.1-.1 2.1-.2 3-.1 1.7.1 3.8.8 5 2.1-1.3-1.3-3.5-1.8-5.3-1.8-1.7 0-4.4.6-6.5 1.7 1.2-.3 2.4-.8 3.7-1 1.3-.2 2.6 0 3.9.4 2.3.8 4.3 2.3 6.3 3.7.1.1.3 0 .3-.2-.3-1.5-.7-3.1-1.8-4.3-.9-.9-2.4-1.3-3.7-1.4zm-20 94.1c-.1.3-.3.5-.4.8h.9v-.4c0-.1 0-.2-.1-.3 0 0-.4 0-.4-.1zM33 2.9c1.6-.6 2.6-.9 3.2-2.9h-5.5s0 .3-.1.3c-.3.6-2.7 4-3.8 6.1 2-1.1 5.3-3.1 6.2-3.5zM10.5 99l1.2-.9-.2-.4c-1.1-.1-2.5.3-3.6-.1.8.2 1.7 0 2.5-.2-.4 0-.9.1-1.3-.1-.9-.3-1.9-.9-2.8-1.1.8.1 2 .3 2.8.5.7.1 1.3.3 2 .2-.9-.3-1.7-1-2.6-1.4 1 .3 1.6.4 3.1 1v-.1c.1-.2.1-.1.2-.2-3.6-3.1-5.4-1-7.1-.1.9.6 1.3 1.5 2.2 2.2 1 1 2.3 1.3 3.6.7zM1.2 86.6c1 2 1 3 .7 4.2-.3 1.3-.5 2.6-.6 3.9 0 1.3.2 2.8.7 4.2-.1-1.2.1-2.4.2-3.4.3-2.1.8-4.1.5-6.3.4 2.4-.1 4.6-.2 7-.1 1.3-.1 2.5.3 3.7 0 .1.1 0 .1 0h.2c-.2-1 .2-2.5.4-3.8.2-1.4.6-2.6.8-4 .3-2.9-2.5-5.6-2.7-5.9-.2-.1-.5.2-.4.4zm5.4 13.6c0 .1 0 .1 0 0l.3.1c.1-.2-.2-.3-.3-.1zM.3 70.4c0 .1 0 .1 0 0 0 .1 0 .1 0 0zm12 29.5c-.1.1-.1.3-.2.4h.4c.1-.3.1-.6.2-.9-.1.1-.3.3-.4.5zM.3 61.4c0 .1 0 .1 0 0 0 .1 0 .1 0 0zm12 37.9c0-.1.1-.2.1-.3l-.1.1c-.4.4-.7.8-1 1.2h.6c.1-.1.1-.2.2-.4 0-.1.1-.4.2-.6zm-.4-1c-.3.2-1.3.7-2.2 1.7h1.4c.3 0 .6-1 1-1.5-.2-.1-.1 0-.2-.2z"/></svg>