<svg xmlns="http://www.w3.org/2000/svg" viewBox="0 0 932.5 494.7">
  <style>
    @media (max-width: 200px) {
       .strapline {
         display: none;
       }
     }
   </style>
  <path fill="#FFF" d="M32.4 397.3l-21.2-47.6c-1.7-3.8-2.9-6.3-3.5-7.4s-1.5-1.9-2.6-2.5c-1-.5-2.7-.8-5.1-.8v-5.1h33v5.1c-4.6 0-6.9 1.1-6.9 3.4 0 1.3.7 3.3 2 6.2l12.7 28.2 12-28.2c.9-2.1 1.3-3.8 1.3-5.3 0-2.8-2.3-4.3-6.9-4.3v-5.1H69v5.1c-2.5 0-4.5.7-5.8 2s-3.4 5.4-6.3 12.2L38 397.3h-5.6zm53-58.3v-5.1h32.8v5.1h-1c-3.1 0-5.1.6-6 1.7s-1.4 3.1-1.4 5.9v36.7c0 2.8.5 4.8 1.4 5.9 1 1.1 3 1.7 6 1.7h1v5.1H85.4v-5.1c3.3 0 5.5-.5 6.6-1.5s1.6-3 1.6-6.1v-36.7c0-3-.5-5-1.5-6-1.1-1.1-3.3-1.6-6.7-1.6zm67.5 12.6v28.5c0 4.6.8 7.5 2.5 8.8s3.8 2 6.4 2v5.1h-23.3v-5.1c2 0 3.7-.5 5.2-1.4 1.5-1 2.4-2.1 2.8-3.3.4-1.3.6-3.3.6-6v-31.7c0-6.3-3-9.5-8.9-9.5v-5.1h21l34 38v-22.8c0-6.8-2.9-10.2-8.6-10.2v-5.1h22.3v5.1c-1.6 0-3 .4-4.4 1.3s-2.3 1.9-2.8 3.3c-.5 1.3-.7 3.3-.7 5.8V397h-5.9l-40.2-45.4zm96.7-12.1h-5.2c-3.1 0-5.4.3-6.9 1s-2.7 2-3.7 4-1.6 4.4-1.8 7.1h-5.2v-17.7H289v17.7h-5.2c-1-4.8-2.4-8-4.1-9.6-1.8-1.7-4.6-2.5-8.5-2.5h-5.4v43.9c0 2.8.5 4.8 1.4 5.9 1 1.1 3 1.7 6.1 1.7h1.6v5.1h-34.3V391h1.5c3.1 0 5.1-.6 6.1-1.7.9-1.1 1.4-3.1 1.4-5.9v-43.9zm66.5 39.8l-1.2 3.1c-.9 2.2-1.3 3.7-1.3 4.6 0 1.5.5 2.5 1.5 3.1s2.7.9 4.9.9v5.1h-20.5V391c3.9 0 7.2-3.3 9.8-10l19.1-48.1h5.4l19.5 48.1c1.9 4.8 3.7 7.6 5.2 8.6 1.6 1 3.1 1.4 4.5 1.4v5.1h-30.8V391c2.8 0 4.5-.3 5.2-.8s1-1.2 1-2c0-.7-.3-1.7-.8-2.9l-.6-1.4-1.8-4.5h-19.1v-.1zm2-5.3h15.1l-7.7-18.5-7.4 18.5zm99.4-1.6v-5h29.1v5c-2.3.4-3.8 1.1-4.5 2-.7 1-1.1 3-1.1 6v13c-1-.1-1.8-.1-2.4-.1-3 0-8.1.8-15.3 2.3-5.2 1.1-9.5 1.6-13 1.6-9.4 0-17.1-3.2-22.9-9.5s-8.7-13.7-8.7-22.1c0-9 3.1-16.8 9.2-23.2 6.2-6.5 13.8-9.7 22.9-9.7 7.4 0 13.9 2.4 19.6 7.1 1-2 1.6-4.2 1.8-6.5h4.9l.5 21.7h-5c-3.1-10.6-9.3-15.8-18.4-15.8-5.4 0-9.6 2-12.4 6-2.9 4-4.3 10.7-4.3 20.2 0 6.6.4 11.7 1.3 15.1.8 3.5 2.5 6.1 4.9 8s5.5 2.8 9.3 2.8c3.4 0 6.2-.7 8.4-2.2 2.2-1.5 3.3-4.4 3.3-8.7v-2.3c0-3.4-2.4-5.4-7.2-5.7zm73-6.1v15.3c0 2.9.2 4.8.5 5.7.3.9 1.2 1.6 2.7 2.2s3.7.9 6.7.9c4.1 0 7-.5 9-1.5 1.9-1 3.6-2.8 5.1-5.3s2.6-5.2 3.3-8.1h5.1l-.4 20.4h-56.8v-5.1h1.1c3.1 0 5.1-.6 6-1.7s1.4-3.1 1.4-5.9v-36.8c0-2.8-.5-4.8-1.4-5.9-1-1.1-3-1.7-6-1.7h-1.1v-5h52.9l.9 16.1h-5.1c-.9-2.8-1.9-5-3.1-6.7-1.1-1.7-2.3-2.7-3.4-3.2s-3.1-.7-5.8-.7h-11.6v21.4h5.8c2.7 0 4.6-.5 5.5-1.6s1.4-3.1 1.5-6.1h5.2v21.1h-5.2v-.9c0-1.8-.4-3.4-1.1-4.8s-2.7-2.2-5.7-2.2h-6v.1zm111.4 31l-15.1-49.2c-1.3-4.4-2.5-7-3.5-7.9s-2.6-1.3-4.7-1.3v-5.1h28.3v5.1c-3.4 0-5.1 1-5.1 3.1 0 1.2.2 2.6.7 4.2l8.7 27.7 13.1-40.1h7.1l15.7 40.1 7-25.2c.5-2 .8-3.5.8-4.5 0-3.6-2-5.4-6.1-5.4v-5.1h19.9v5.1c-1.9 0-3.5.6-4.9 1.9s-3 5.2-4.8 11.7L646.5 397h-7.1l-16.2-41.7-13.9 41.7h-7.4v.3zm81.5-32.5c0-5.6 1.6-11 4.7-16.4 3.1-5.3 7.3-9.2 12.7-11.8s11-3.8 17.1-3.8c10.9 0 19.5 3.2 25.7 9.5s9.3 14 9.3 23.2c0 8.7-3.1 16.2-9.3 22.4-6.2 6.3-14.6 9.4-25.3 9.4-7.3 0-13.7-1.5-19.4-4.6-5.6-3.1-9.6-7.2-12-12.4s-3.5-10.4-3.5-15.5zm19.1-.5c0 9.6 1.3 16.5 3.8 20.7 2.6 4.2 6.4 6.3 11.5 6.3 5.3 0 9.3-1.9 12-5.8s4-10.6 4-20.3c0-8.9-1.3-15.5-3.8-19.8-2.5-4.4-6.5-6.5-12-6.5-5.2 0-9.1 2-11.6 6.1-2.6 4-3.9 10.4-3.9 19.3zm96.4 4.3v14.7c0 2.8.5 4.8 1.5 5.9s3 1.7 6 1.7h1.1v5.1H774v-5.1h1.2c3.1 0 5.1-.6 6.1-1.7.9-1.1 1.4-3.1 1.4-5.9v-36.7c0-2.8-.5-4.8-1.5-5.9s-3-1.7-6-1.7H774v-5.1h30.5c5.5 0 9.6.2 12.1.5 2.5.4 5.1 1.2 7.5 2.6 2.5 1.4 4.4 3.3 5.8 5.7s2.1 5 2.1 7.8c0 7.4-4.2 12.4-12.5 15.2 2.2 1.4 5.7 5.8 10.4 13.2 3.7 5.7 6.3 9.2 7.8 10.3 1.6 1.2 3.3 1.8 5.1 1.8v5.1h-19.4c-1.8-2.1-5.1-7.5-9.8-16-2.4-4.3-4.1-7.1-5.1-8.4s-2-2.1-3-2.4c-.9-.4-3.1-.6-6.6-.7zm0-5.6c5.2.1 8.6-.3 10.4-.9 1.8-.7 3.2-1.9 4.3-3.7 1-1.8 1.6-4.2 1.6-7.3 0-4.4-1-7.4-3.1-9.1s-5.6-2.5-10.6-2.5H799l-.1 23.5zm92.1 9l-9.7 10.6c-1.7 1.9-2.5 3.4-2.5 4.7 0 1.1.5 2 1.4 2.7s2.9 1 5.8 1v5.1h-27.3V391c2.4 0 4.7-.6 6.9-1.7s4.9-3.4 8.2-6.9l13.7-14.9-13.9-18c-3.8-4.9-6.4-7.8-7.8-8.9s-3.8-1.6-7.1-1.6v-5.1h35v5.1c-2.1 0-3.5.2-4.2.5s-1.1.9-1.1 1.8c0 1.2.5 2.5 1.5 3.8l8.6 11 9.4-10.4c1.3-1.4 1.9-2.7 1.9-3.9 0-1.8-2-2.7-6-2.7V334h24.8v5.1c-3.3.3-6 1.2-8.2 2.6-2.1 1.4-4.7 3.8-7.9 7.3L902 360.6l14.5 19c4.2 5.5 7.3 8.7 9.3 9.8 2 1.1 4.2 1.6 6.6 1.6v5.1h-37.9V391c3.4 0 5.4-.3 6.3-.8.8-.5 1.2-1.3 1.2-2.4 0-1.2-.6-2.5-1.7-4L891 372z"/>
  <path class="strapline" fill="#FFF" d="M64.7 467.4c0-2.1.3-4 1.1-6 .7-1.9 1.8-3.8 3.2-5.2 1.4-1.6 3.1-2.8 5.1-3.8 2.1-.9 4.3-1.5 6.9-1.5 3.1 0 5.7.7 7.9 2.1 2.3 1.4 3.9 3.1 5 5.2l-4.9 3.4c-.5-.9-.9-1.7-1.6-2.4-.6-.7-1.3-1.1-2.1-1.5-.7-.3-1.5-.7-2.3-.8-.8-.1-1.6-.2-2.3-.2-1.6 0-3.1.3-4.2 1-1.3.7-2.2 1.5-3 2.5-.8 1-1.4 2.3-1.8 3.5-.5 1.4-.6 2.6-.6 4 0 1.5.2 2.8.7 4.2.5 1.4 1.1 2.5 1.9 3.5.8 1 1.9 1.8 3.1 2.5 1.3.6 2.5.9 4 .9.8 0 1.5-.1 2.3-.2.8-.2 1.6-.5 2.3-.9s1.4-.9 2.1-1.6c.6-.7 1.1-1.4 1.5-2.3l5.2 3.1c-.6 1.3-1.3 2.4-2.3 3.3s-2.1 1.7-3.3 2.4c-1.3.7-2.5 1.1-4 1.5-1.4.3-2.7.6-4.1.6-2.4 0-4.6-.5-6.5-1.5-1.9-1-3.6-2.3-5-3.9s-2.5-3.4-3.3-5.5c-.5-2.2-1-4.4-1-6.4zm49.5 17.2c-1.9 0-3.8-.3-5.4-1-1.6-.7-3-1.6-4-2.7-1.1-1.1-1.9-2.5-2.5-4-.6-1.5-.9-3.1-.9-4.8s.3-3.3.9-4.9c.6-1.5 1.5-2.8 2.5-4 1.1-1.1 2.5-2.1 4-2.7s3.4-1 5.4-1c1.9 0 3.8.3 5.4 1 1.6.7 3 1.6 4 2.7 1.1 1.1 1.9 2.5 2.5 4 .6 1.5.9 3.2.9 4.9s-.3 3.3-.9 4.8c-.6 1.5-1.5 2.8-2.5 4-1.1 1.1-2.4 2.1-4 2.7-1.7.6-3.5 1-5.4 1zm-6.4-12.7c0 1.1.1 2.1.5 3 .3.9.8 1.7 1.4 2.3.6.7 1.3 1.1 2.1 1.5.8.3 1.6.6 2.5.6s1.7-.2 2.5-.6c.8-.3 1.5-.9 2.1-1.5.6-.7 1-1.5 1.4-2.3.3-.8.5-1.9.5-3 0-1-.1-2.1-.5-3s-.8-1.7-1.4-2.3c-.6-.7-1.3-1.1-2.1-1.5-.8-.3-1.6-.6-2.5-.6s-1.7.2-2.5.6c-.8.3-1.5.9-2.1 1.6-.6.7-1 1.5-1.4 2.3-.4.9-.5 1.9-.5 2.9zm66 12.2h-6.3v-13.7c0-1.9-.3-3.4-1-4.3-.7-.9-1.6-1.4-2.7-1.4-1.3 0-2.4.5-3.5 1.4-1.1.9-1.8 2.2-2.3 3.8v14.2h-6.3v-13.7c0-1.9-.3-3.4-1-4.3-.7-.9-1.6-1.4-2.7-1.4-1.3 0-2.4.5-3.5 1.4-1.1.9-1.9 2.2-2.4 3.6V484h-6.3v-24.5h5.7v4.6c.9-1.6 2.2-2.8 3.8-3.6 1.6-.8 3.4-1.3 5.4-1.3 2.1 0 3.6.5 4.8 1.5 1.1 1 1.8 2.3 2.2 3.6 1-1.7 2.3-3 3.8-3.9 1.5-.9 3.3-1.4 5.2-1.4 1.5 0 2.7.2 3.6.8.9.6 1.7 1.3 2.3 2.2.6.9.9 1.9 1.1 3.1.2 1.1.3 2.3.3 3.5v15.5h-.2zm48 0h-6.3v-13.7c0-1.9-.3-3.4-1-4.3-.7-.9-1.6-1.4-2.7-1.4-1.3 0-2.4.5-3.5 1.4-1.1.9-1.8 2.2-2.3 3.8v14.2h-6.3v-13.7c0-1.9-.3-3.4-1-4.3-.7-.9-1.6-1.4-2.7-1.4-1.3 0-2.4.5-3.5 1.4-1.1.9-1.9 2.2-2.4 3.6V484h-6.3v-24.5h5.7v4.6c.9-1.6 2.2-2.8 3.8-3.6 1.6-.8 3.4-1.3 5.4-1.3 2.1 0 3.6.5 4.8 1.5 1.1 1 1.8 2.3 2.2 3.6 1-1.7 2.3-3 3.8-3.9 1.5-.9 3.3-1.4 5.2-1.4 1.5 0 2.7.2 3.6.8.9.6 1.7 1.3 2.3 2.2.6.9.9 1.9 1.1 3.1.2 1.1.3 2.3.3 3.5v15.5h-.2zm17.7.5c-2.5 0-4.4-.8-5.7-2.4-1.3-1.6-1.9-4-1.9-7.2v-15.3h6.3v13.9c0 3.8 1.4 5.7 4.1 5.7 1.3 0 2.4-.3 3.5-1.1 1.1-.7 2.1-1.8 2.7-3.3v-15.2h6.3v17.2c0 .7.1 1.1.3 1.4.2.2.6.5 1.1.5v5.4c-.6.1-1.1.2-1.6.2h-1.1c-1.1 0-2.1-.2-2.7-.8-.7-.6-1.1-1.3-1.3-2.2l-.1-1.9c-1.1 1.7-2.5 3-4.2 3.8-1.8.9-3.7 1.3-5.7 1.3zm48.8-.5H282v-13.7c0-1.9-.3-3.4-1-4.3-.7-.9-1.6-1.4-2.8-1.4-.6 0-1.3.1-1.9.3s-1.3.6-1.8 1c-.6.5-1.1 1-1.6 1.6-.5.6-.8 1.3-1 2.1V484h-6.3v-24.5h5.7v4.6c.9-1.6 2.2-2.7 3.9-3.6 1.7-.9 3.6-1.3 5.8-1.3 1.5 0 2.7.2 3.8.8.9.6 1.7 1.3 2.3 2.2.6.9.9 1.9 1.1 3.1.2 1.1.3 2.3.3 3.5v15.4l-.2-.1zm10.1-27.8v-6.2h6.3v6.2h-6.3zm0 27.8v-24.5h6.3v24.5h-6.3zm31.2-1.2c-.8.3-1.8.8-3.1 1.1-1.3.3-2.5.6-3.9.6-.9 0-1.7-.1-2.4-.3-.8-.2-1.5-.6-2.1-1-.6-.5-1-1.1-1.4-1.8-.3-.8-.6-1.7-.6-2.7v-14h-3.2V460h3.2v-8h6.3v8h5.1v4.8h-5.1v12c0 .9.2 1.5.7 1.8.5.3 1 .6 1.7.6s1.3-.1 1.9-.3c.6-.2 1.1-.5 1.5-.6l1.4 4.6zm8.4 6c.6.1 1 .2 1.6.3.5.1.9.1 1.3.1.5 0 .8-.1 1.1-.2.3-.1.7-.5.9-.8.2-.3.6-.9.8-1.6s.6-1.6.9-2.6l-9.7-24.5h6.5l6.6 19 5.9-19h5.9l-10.3 29.3c-.6 1.7-1.6 3.1-3.1 4.2s-3.2 1.6-5.4 1.6c-.5 0-1 0-1.5-.1-.6-.1-1-.2-1.6-.3v-5.4h.1zm45-4.8V451h12.1c2.7 0 5.1.5 7.1 1.3 2.1.9 3.8 2.1 5.1 3.5 1.4 1.5 2.4 3.2 3.1 5.2.7 2.1 1 4.1 1 6.4 0 2.5-.3 4.8-1.1 6.8s-1.8 3.8-3.3 5.2c-1.5 1.5-3.2 2.6-5.1 3.3-1.9.7-4.2 1.1-6.7 1.1H383v.3zm21.9-16.6c0-1.6-.2-3.1-.7-4.4-.5-1.4-1-2.5-1.9-3.4-.9-.9-1.8-1.7-3.1-2.3-1.3-.6-2.6-.8-4.2-.8h-5.6v21.9h5.6c1.6 0 3-.2 4.2-.8 1.3-.6 2.3-1.4 3.1-2.3.8-1 1.5-2.2 1.9-3.5.5-1.4.7-2.8.7-4.4zm26.9 17.1c-1.9 0-3.8-.3-5.4-1-1.6-.7-3-1.6-4.1-2.7-1.1-1.1-1.9-2.5-2.6-4-.6-1.5-.9-3.1-.9-4.8s.3-3.4.9-4.9c.6-1.6 1.5-2.8 2.6-4.1 1.1-1.1 2.5-2.1 4.1-2.7 1.6-.7 3.4-1 5.4-1 1.9 0 3.8.3 5.4 1 1.6.7 3 1.6 4 2.7 1.1 1.1 1.9 2.5 2.5 4 .6 1.5.9 3.1.9 4.8v1.1c0 .3 0 .7-.1.9h-18.9c.1.9.3 1.8.7 2.6s.9 1.4 1.5 1.9 1.3.9 2.1 1.3c.8.2 1.5.5 2.3.5 1.3 0 2.4-.3 3.5-.9 1.1-.6 1.8-1.4 2.3-2.4l5.4 1.5c-.9 1.8-2.4 3.4-4.3 4.6s-4.6 1.6-7.3 1.6zm6.4-14.7c-.1-1.8-.8-3.3-2.1-4.4-1.3-1.1-2.6-1.7-4.3-1.7-.8 0-1.6.1-2.4.5-.7.3-1.4.7-1.9 1.3-.6.6-1 1.1-1.4 1.9s-.6 1.6-.7 2.5l12.8-.1zm20.8 14.2l-9-24.5h6.5l6.2 19.4 6.3-19.4h5.9l-9 24.5H459zm34.2.5c-1.9 0-3.8-.3-5.4-1-1.6-.7-3-1.6-4.1-2.7-1.1-1.1-1.9-2.5-2.6-4-.7-1.5-.9-3.1-.9-4.8s.3-3.4.9-4.9c.6-1.5 1.5-2.8 2.6-4.1 1.1-1.1 2.5-2.1 4.1-2.7 1.6-.7 3.4-1 5.4-1 1.9 0 3.8.3 5.4 1 1.6.7 3 1.6 4 2.7 1.1 1.1 1.9 2.5 2.5 4 .6 1.5.9 3.1.9 4.8v1.1c0 .3 0 .7-.1.9H487c.1.9.3 1.8.7 2.6.3.8.9 1.4 1.5 1.9.6.6 1.3.9 2.1 1.3.8.2 1.5.5 2.3.5 1.3 0 2.4-.3 3.5-.9 1.1-.6 1.8-1.4 2.3-2.4l5.4 1.5c-.9 1.8-2.4 3.4-4.3 4.6-2.2 1-4.4 1.6-7.3 1.6zm6.4-14.7c-.1-1.8-.8-3.3-2.1-4.4-1.3-1.1-2.6-1.7-4.3-1.7-.8 0-1.6.1-2.4.5-.7.3-1.4.7-1.9 1.3-.6.6-1 1.1-1.4 1.9-.3.8-.6 1.6-.7 2.5l12.8-.1zm14.9-19.9h6.3v26.2c0 .9.2 1.6.7 2.1.5.5 1 .8 1.8.8.3 0 .8-.1 1.3-.2s.9-.2 1.3-.5l.8 4.8c-.8.5-1.8.7-3 .9-1.1.2-2.2.3-3.1.3-1.9 0-3.5-.6-4.6-1.6-1-1-1.6-2.5-1.6-4.4V450h.1zm30.8 34.6c-1.9 0-3.8-.3-5.4-1-1.6-.7-3-1.6-4-2.7-1.1-1.1-1.9-2.5-2.5-4-.6-1.5-.9-3.1-.9-4.8s.3-3.3.9-4.9c.6-1.5 1.5-2.8 2.5-4 1.1-1.1 2.5-2.1 4-2.7s3.4-1 5.4-1 3.8.3 5.4 1 3 1.6 4 2.7c1.1 1.1 1.9 2.5 2.5 4s.9 3.2.9 4.9-.3 3.3-.9 4.8c-.6 1.5-1.5 2.8-2.5 4-1.1 1.1-2.4 2.1-4 2.7-1.7.6-3.4 1-5.4 1zm-6.4-12.7c0 1.1.1 2.1.5 3 .3.9.8 1.7 1.4 2.3.6.7 1.3 1.1 2.1 1.5.8.3 1.6.6 2.5.6s1.7-.2 2.5-.6c.8-.3 1.5-.9 2.1-1.5.6-.7 1-1.5 1.4-2.3.3-.9.5-1.9.5-3 0-1-.1-2.1-.5-3-.3-.9-.8-1.7-1.4-2.3-.6-.7-1.3-1.1-2.1-1.5-.8-.3-1.6-.6-2.5-.6s-1.7.2-2.5.6c-.8.3-1.5.9-2.1 1.6-.6.7-1 1.5-1.4 2.3-.4.9-.5 1.9-.5 2.9zm42.7 12.7c-1.9 0-3.6-.5-5-1.3s-2.5-2.1-3.3-3.5V494H567v-34.4h5.5v4.2c.9-1.5 2.1-2.5 3.5-3.4 1.5-.9 3.1-1.3 4.9-1.3 1.6 0 3.2.3 4.6 1 1.4.7 2.6 1.6 3.6 2.7s1.8 2.5 2.4 4c.6 1.6.9 3.2.9 4.9 0 1.8-.2 3.4-.8 5s-1.3 3-2.2 4.1c-.9 1.1-2.1 2.1-3.4 2.7-1.4.7-2.9 1.1-4.4 1.1zm-2.1-5.3c.9 0 1.8-.2 2.6-.6.8-.5 1.5-.9 2.1-1.6s1-1.5 1.3-2.4c.3-.9.5-1.8.5-2.8 0-1-.2-1.9-.6-2.8-.3-.9-.8-1.7-1.4-2.3-.6-.6-1.4-1.1-2.2-1.6-.8-.3-1.7-.6-2.7-.6-.6 0-1.3.1-1.8.3-.6.2-1.3.5-1.7.9-.6.3-1 .8-1.4 1.3-.5.5-.7 1-.9 1.6v5.7c.6 1.4 1.4 2.5 2.6 3.5s2.3 1.4 3.6 1.4zm59.7 4.8h-6.3v-13.7c0-1.9-.3-3.4-1-4.3-.7-.9-1.6-1.4-2.7-1.4-1.3 0-2.4.5-3.5 1.4-1.1.9-1.8 2.2-2.3 3.8v14.2h-6.3v-13.7c0-1.9-.3-3.4-1-4.3-.7-.9-1.6-1.4-2.7-1.4-1.3 0-2.4.5-3.5 1.4-1.1.9-1.9 2.2-2.4 3.6V484h-6.3v-24.5h5.7v4.6c.9-1.6 2.2-2.8 3.8-3.6 1.6-.9 3.4-1.3 5.4-1.3 2.1 0 3.6.5 4.8 1.5 1.1 1 1.8 2.3 2.2 3.6 1-1.7 2.3-3 3.8-3.9 1.5-.9 3.3-1.4 5.2-1.4 1.5 0 2.7.2 3.6.8.9.6 1.7 1.3 2.3 2.2.6.9.9 1.9 1.1 3.1.2 1.1.3 2.3.3 3.5v15.5h-.2zm21.5.5c-1.9 0-3.8-.3-5.4-1-1.6-.7-3-1.6-4.1-2.7-1.1-1.1-1.9-2.5-2.6-4-.7-1.5-.9-3.1-.9-4.8s.3-3.4.9-4.9c.6-1.5 1.5-2.8 2.6-4.1 1.1-1.1 2.5-2.1 4.1-2.7 1.6-.7 3.4-1 5.4-1s3.8.3 5.4 1c1.6.7 3 1.6 4 2.7 1.1 1.1 1.9 2.5 2.5 4 .6 1.5.9 3.1.9 4.8v1.1c0 .3 0 .7-.1.9h-18.9c.1.9.3 1.8.7 2.6.3.8.9 1.4 1.5 1.9s1.3.9 2.1 1.3c.8.2 1.5.5 2.3.5 1.3 0 2.4-.3 3.5-.9s1.8-1.4 2.3-2.4l5.4 1.5c-.9 1.8-2.4 3.4-4.3 4.6s-4.6 1.6-7.3 1.6zm6.3-14.7c-.1-1.8-.8-3.3-2.1-4.4-1.3-1.1-2.6-1.7-4.3-1.7-.8 0-1.6.1-2.4.5-.7.3-1.4.7-1.9 1.3-.6.6-1 1.1-1.4 1.9-.3.8-.6 1.6-.7 2.5l12.8-.1zm37.7 14.2h-6.3v-13.7c0-1.9-.3-3.4-1-4.3-.7-.9-1.6-1.4-2.8-1.4-.6 0-1.3.1-1.9.3s-1.3.6-1.8 1c-.6.5-1.1 1-1.6 1.6s-.8 1.3-1 2.1V484H682v-24.5h5.7v4.6c.9-1.6 2.2-2.7 3.9-3.6 1.7-.9 3.6-1.3 5.8-1.3 1.5 0 2.7.2 3.8.8.9.6 1.7 1.3 2.3 2.2.6.9.9 1.9 1.1 3.1.2 1.1.3 2.3.3 3.5v15.4l-.2-.1zm24.5-1.2c-.8.3-1.8.8-3.1 1.1-1.3.3-2.5.6-3.9.6-.9 0-1.7-.1-2.5-.3-.8-.2-1.5-.6-2.1-1-.6-.5-1-1.1-1.4-1.8-.3-.8-.6-1.7-.6-2.7v-14h-3.2V460h3.2v-8h6.3v8h5.1v4.8h-5v12c0 .9.2 1.5.7 1.8.5.3 1 .6 1.7.6s1.3-.1 1.9-.3c.6-.2 1.1-.5 1.5-.6l1.4 4.6zm47.9-26.3h-10.6v27.5h-6.4v-27.5h-10.6V451h27.6v5.6zm17.6 8.5c-1.9 0-3.6.3-5.1 1.1-1.5.7-2.6 1.7-3.2 3.2v14.8h-6.3v-24.5h5.7v5.2c.5-.8.9-1.6 1.6-2.3.6-.7 1.3-1.3 1.9-1.7.7-.5 1.4-.9 2.1-1.1.7-.2 1.4-.3 2.1-.3h1.3v5.6zm15.6 19.5c-2.5 0-4.4-.8-5.7-2.4-1.3-1.6-1.9-4-1.9-7.2v-15.3h6.3v13.9c0 3.8 1.4 5.7 4.1 5.7 1.3 0 2.4-.3 3.5-1.1 1.1-.7 2.1-1.8 2.7-3.3v-15.2h6.3v17.2c0 .7.1 1.1.3 1.4.2.2.6.5 1.1.5v5.4c-.6.1-1.1.2-1.6.2h-1.1c-1.1 0-2.1-.2-2.7-.8-.7-.6-1.1-1.3-1.3-2.2l-.1-1.9c-1.1 1.7-2.5 3-4.2 3.8-1.7.9-3.7 1.3-5.7 1.3zm35.3 0c-2.1 0-4.1-.3-6-1-1.9-.7-3.6-1.6-5-2.8l2.3-3.9c1.5 1 3 1.8 4.3 2.4 1.4.6 2.8.8 4.2.8 1.3 0 2.3-.2 3-.7.7-.5 1-1.1 1-2.1 0-.9-.5-1.5-1.3-1.9-.8-.5-2.2-.9-4.1-1.4-1.6-.5-3-.9-4.1-1.3-1.1-.5-2.1-.9-2.7-1.4s-1.1-1.1-1.5-1.8c-.3-.7-.5-1.5-.5-2.4 0-1.3.2-2.4.7-3.3.5-1 1.1-1.8 2.1-2.5.9-.7 1.9-1.3 3.1-1.6 1.1-.3 2.4-.6 3.8-.6 1.8 0 3.5.2 5.1.8s3.1 1.4 4.4 2.6l-2.5 3.8c-1.3-.9-2.5-1.6-3.6-2.1s-2.3-.7-3.5-.7c-1 0-1.9.2-2.6.7-.7.5-1 1.1-1 2.1 0 .5.1.8.2 1 .1.2.5.6.8.8.3.2.9.5 1.5.7.6.2 1.4.5 2.3.7 1.7.5 3.1.9 4.3 1.3 1.3.5 2.2.9 3 1.5.8.6 1.4 1.3 1.7 1.9.3.7.6 1.6.6 2.6 0 2.4-.9 4.3-2.6 5.7-1.9 1.4-4.3 2.1-7.4 2.1zm33.3-1.7c-.8.3-1.8.8-3.1 1.1-1.3.3-2.5.6-3.9.6-.9 0-1.7-.1-2.5-.3-.8-.2-1.5-.6-2.1-1-.6-.5-1-1.1-1.4-1.8-.3-.8-.6-1.7-.6-2.7v-14h-3.2V460h3.2v-8h6.3v8h5.1v4.8h-5.1v12c0 .9.2 1.5.7 1.8.5.3 1 .6 1.7.6s1.3-.1 1.9-.3c.6-.2 1.1-.5 1.5-.6l1.5 4.6z"/>
  <path fill="#FFF" d="M474.7 243c-5.4-3.2-10.8-6.3-16-9.7 0-.2-.1-.4-.4-.6-4.1-2.3-8.2-4.5-12.4-6.6-8.2-4.2-16.4-8.3-24-13.5-14.9-10.3-27.4-23.7-41.3-35.3-12.4-10.4-26.2-20.8-41.4-26.7-6.4-2.5-14.8-4.8-21.6-2.5-7.2 2.5-5.8 10.9-3.7 16.5-10.8-5.6-21.5-12.2-33.7-14-8.7-1.3-28.6.4-20.9 13.9-16.5-5.7-35-5.1-50.2 4.1-15.3 9.3-28.4 25.6-32.4 43.2.7-3.3 2.8-12.3 0 .2-.3 1.3-.2 1.1 0 .2-1.3 6.2-1.4 16.1 6.6 17.4 7.4 1.3 13.8-6.6 18.5-11.2 13.3-13 28.1-17.8 46.3-13.5-16 12.3-.2 28.7 15.8 26.1 12.8-2 22.7-12 35.4-14.3-4.9 5.9-4.9 13.6 1.4 18.5 5.5 4.2 13.1 5 19.8 4.3 14.1-1.4 26.8-9.3 40-13.8 15-5.2 30.6-7.8 46.5-6.1 8.3.9 16.7 2.4 24.8 4.3 7.8 1.9 14.6 4.9 21.6 8.6.6.3 2.3 1.5 3.4 1.9 8.7 5.8 17.9 10.6 26.7 16.4 2 1.8 4.1 3.5 6.2 5.2.7.5 1.4.1 1.6-.5.5-.4.8-1.2.1-1.7-2.2-1.6-4.4-3.1-6.7-4.6m-102.6-40c-18-.4-37.5 4.2-52.6 14.1 16.8-12.4 38.5-17.3 59.1-17.1-11.4-4.4-22.9-8.5-34.6-11.9-10.7-3.1-20.8-5.8-31.8-4.4-21.9 2.8-47.4 12.6-62.9 28.6 14.2-16.4 37.8-26.9 58.6-31.6-23.2-3.3-47.7-7.7-71.8-5.5-25 2.3-44.3 13.6-61 32 14.9-17.2 32.4-29.4 55.2-33 21.7-3.4 43.9-1.4 65.6 1.3-11.6-7.3-22.9-18.8-36.5-22 19.3 2.9 33.7 21.6 52.6 24.2 15.7 2.1 30.9 5.2 46.2 10.1-10.9-11.4-22-23-35-32 16.1 9.5 36.7 28.7 43.7 34.8 17.9 10.6 37.9 17.8 57.1 25.5-16.6-6.1-34.1-12.7-51.9-13.1z"/>
  <path fill="#FFF" d="M462.2 249.1c-2.3 1.5-4.5 3-6.7 4.6-.7.5-.5 1.4.1 1.7.2.6 1 1.1 1.6.5 2.1-1.7 4.2-3.4 6.2-5.2 8.7-5.7 18-10.6 26.7-16.4 1.1-.4 2.8-1.6 3.4-1.9 7.1-3.7 13.8-6.7 21.6-8.6 8.1-2 16.5-3.5 24.8-4.3 15.8-1.7 31.5.9 46.5 6.1 13.2 4.5 25.9 12.4 40 13.8 6.7.7 14.3-.1 19.8-4.3 6.3-4.8 6.3-12.6 1.4-18.5 12.7 2.3 22.6 12.3 35.4 14.3 15.9 2.5 31.8-13.9 15.8-26.1 18.3-4.4 33.1.5 46.3 13.5 4.7 4.6 11 12.5 18.5 11.2 8-1.4 7.9-11.3 6.6-17.4.2.9.2 1.1 0-.2-2.8-12.5-.8-3.4 0-.2-4-17.6-17.1-33.9-32.4-43.2-15.1-9.2-33.7-9.7-50.2-4.1 7.7-13.5-12.2-15.1-20.9-13.9-12.2 1.8-22.9 8.4-33.7 14 2.1-5.6 3.5-14-3.7-16.5-6.7-2.4-15.2 0-21.6 2.5-15.3 5.9-29 16.3-41.4 26.7-13.8 11.6-26.4 24.9-41.3 35.3-7.6 5.3-15.8 9.4-24 13.5-4.2 2.1-8.4 4.3-12.4 6.6-.3.2-.4.4-.4.6-5.2 3.4-10.6 6.5-16 9.7m40.7-20.7c19.3-7.6 39.2-14.9 57.1-25.5 6.9-6.1 27.5-25.3 43.7-34.8-13 9-24.1 20.6-35 32 15.3-4.9 30.5-7.9 46.2-10.1 18.9-2.5 33.3-21.2 52.6-24.2-13.6 3.2-25 14.8-36.5 22 21.6-2.7 43.9-4.7 65.6-1.3 22.8 3.6 40.3 15.8 55.2 33-16.8-18.4-36-29.7-61-32-24-2.2-48.6 2.2-71.8 5.5 20.8 4.7 44.4 15.1 58.6 31.6-15.5-16.1-41.1-25.9-62.9-28.6-11.1-1.4-21.1 1.3-31.8 4.4-11.7 3.4-23.2 7.6-34.6 11.9 20.6-.2 42.3 4.7 59.1 17.1-15.1-10-34.6-14.6-52.6-14.1-17.9.5-35.4 7.1-51.9 13.1zM498 .8c-10.4-3.2-19.1 4.1-24.6 12.3C467.8 5 459.1-2.4 448.8.8c-10.4 3.3-17.2 14.3-15 25.1 2.7 13.2 11 24.1 18.8 34.7 5.3 7.2 11.6 15.3 15.4 24 .6-13.5-7.7-36-11.2-42.4 4 6.2 11.2 18 13.9 31 .8-15.9 2.3-31.8 2.8-47.8.5 17.4-.1 34.7.3 52.1 3.8-15.2 10.4-30.5 20.7-42.3C484.1 49 473.8 76.5 478 86.8c3.6-9.6 10.5-18.4 16.3-26.2 7.8-10.6 16-21.6 18.7-34.8 2.2-10.7-4.5-21.7-15-25zm0 195.2c-10.4 3.2-19.1-4.1-24.6-12.3-5.6 8.1-14.3 15.5-24.6 12.3-10.4-3.3-17.2-14.3-15-25.1 2.7-13.2 11-24.1 18.8-34.7 5.3-7.2 11.6-15.3 15.4-24 .6 13.5-7.7 36-11.2 42.4 4-6.2 11.2-18 13.9-31 .8 15.9 2.3 31.8 2.8 47.8.5-17.4-.1-34.7.3-52.1 3.8 15.2 10.4 30.5 20.7 42.3-10.4-13.8-20.7-41.3-16.5-51.6 3.6 9.6 10.5 18.4 16.3 26.2 7.8 10.6 16.1 21.5 18.8 34.7 2.1 10.8-4.6 21.8-15.1 25.1zm68.9-73.1c3.2-10.4-4.1-19.1-12.3-24.6 8.1-5.6 15.5-14.3 12.3-24.6-3.3-10.4-14.3-17.2-25.1-15-13.2 2.7-24.1 11-34.7 18.8-7.2 5.3-15.3 11.6-24 15.4 13.5.6 36-7.7 42.4-11.2-6.2 4-18 11.2-31 13.9 15.9.8 31.8 2.3 47.8 2.8-17.4.5-34.7-.1-52.1.3 15.2 3.8 30.5 10.4 42.3 20.7-13.8-10.4-41.3-20.7-51.6-16.5 9.6 3.6 18.4 10.5 26.2 16.3 10.6 7.8 21.5 16.1 34.7 18.8 10.9 2.1 21.9-4.7 25.1-15.1zm-187 0c-3.2-10.4 4.1-19.1 12.3-24.6-8.1-5.6-15.5-14.3-12.3-24.6 3.3-10.4 14.3-17.2 25.1-15 13.2 2.7 24.1 11 34.7 18.8 7.2 5.3 15.3 11.6 24 15.4-13.5.6-36-7.7-42.4-11.2 6.2 4 18 11.2 31 13.9-15.9.8-31.8 2.3-47.8 2.8 17.4.5 34.7-.1 52.1.3-15.2 3.8-30.5 10.4-42.3 20.7 13.8-10.4 41.3-20.7 51.6-16.5-9.6 3.6-18.4 10.5-26.2 16.3-10.6 7.8-21.5 16.1-34.7 18.8-10.8 2.1-21.9-4.7-25.1-15.1z"/>
</svg>
